<svg width="590" height="359" viewBox="0 0 590 359" fill="none" xmlns="http://www.w3.org/2000/svg">
<g clip-path="url(#clip0_57_737)">
<path d="M46.0923 358.185C46.0923 358.185 -21.2317 274.064 39.6109 208.335C113.543 128.465 34.4774 82.8994 92.194 29.598C139.412 -14.0064 195.795 -6.12253 304.344 31.6999C388.276 60.9434 421.478 -18.1116 506.304 22.2449C561.754 48.6255 521.244 129.562 553.012 182.844C589.998 244.884 589.998 325.478 542.403 358.185H46.0923Z" fill="#EBF3FA"/>
<path d="M477.852 215.145C477.852 215.145 471.113 207.254 477.435 202.243C477.435 202.243 482.054 199.436 485.819 199.664C485.819 199.664 480.482 208.645 482.209 209.54C483.935 210.432 487.436 199.101 487.436 199.101C487.436 199.101 497.946 198.077 501.327 199.709C501.327 199.709 492.342 207.088 494.235 207.527C496.128 207.966 505.832 200.723 505.832 200.723C505.832 200.723 515.614 202.395 515.093 208.384C514.571 214.373 511.201 216.223 509.718 216.064C508.237 215.904 499.57 212.583 499.383 213.802C499.193 215.021 504.411 219.002 508.064 219.187C508.064 219.187 501.166 226.822 496.585 224.617C492.001 222.414 491.61 218.922 488.753 217.611C485.896 216.301 483.456 216.306 484.637 217.64C485.817 218.976 490.988 220.275 492.621 223.175C494.254 226.075 495.721 228.032 490.978 227.315C486.236 226.599 478.528 223.116 478.189 219.128L477.85 215.141L477.852 215.145Z" fill="#C8DBF4"/>
<path d="M510.287 208.546C510.287 208.546 483.718 207.517 477.85 215.145C477.85 215.145 476.551 219.046 472.559 222.597L471.937 224.3C471.937 224.3 476.542 219.427 478.189 219.133C478.189 219.133 475.613 209.685 510.287 208.546Z" fill="#C8DBF4"/>
<path d="M472.562 222.6C472.562 222.6 466.859 226.834 466.462 234.396L467.496 234.49C467.496 234.49 469.316 226.67 472.608 223.612C475.901 220.554 472.559 222.602 472.559 222.602L472.562 222.6Z" fill="#C8DBF4"/>
<path d="M454.29 205.223C454.29 205.223 465.009 199.199 460.006 191.022C460.006 191.022 456.005 186.001 451.716 184.709C451.716 184.709 454.002 196.902 451.716 197.189C449.43 197.475 450.144 183.417 450.144 183.417C450.144 183.417 438.852 177.966 434.422 178.396C434.422 178.396 441.425 190.303 439.139 190.017C436.853 189.73 428.992 177.68 428.992 177.68C428.992 177.68 417.414 175.529 415.556 182.414C413.698 189.3 416.7 192.743 418.416 193.173C420.131 193.603 431.135 193.459 430.849 194.894C430.564 196.329 423.13 198.624 418.986 197.332C418.986 197.332 423.561 208.666 429.562 208.091C435.566 207.518 437.424 203.788 441.14 203.499C444.856 203.213 447.572 204.216 445.714 205.221C443.857 206.226 437.567 205.549 434.565 208.112C431.563 210.674 429.134 212.25 434.708 213.398C440.281 214.547 450.286 213.828 452.287 209.525L454.287 205.221L454.29 205.223Z" fill="#C8DBF4"/>
<path d="M420.847 184.566C420.847 184.566 450.86 194.321 454.29 205.223C454.29 205.223 454.147 210.101 457.149 215.695V217.846C457.149 217.846 454.004 210.531 452.289 209.525C452.289 209.525 459.007 200.059 420.847 184.563V184.566Z" fill="#C8DBF4"/>
<path d="M457.149 215.695C457.149 215.695 461.777 222.75 459.138 231.338L457.947 231.017C457.947 231.017 459.103 221.557 456.681 216.801C454.259 212.043 457.147 215.695 457.147 215.695H457.149Z" fill="#C8DBF4"/>
<path d="M471.345 196.914C471.345 196.914 457.215 188.971 463.808 178.194C463.808 178.194 469.085 171.576 474.735 169.874C474.735 169.874 471.722 185.947 474.735 186.325C477.749 186.703 476.808 168.171 476.808 168.171C476.808 168.171 491.692 160.984 497.532 161.553C497.532 161.553 488.302 177.248 491.315 176.87C494.329 176.492 504.692 160.606 504.692 160.606C504.692 160.606 519.952 157.769 522.402 166.846C524.852 175.923 520.895 180.461 518.635 181.029C516.375 181.597 501.868 181.407 502.245 183.298C502.621 185.188 512.418 188.215 517.882 186.513C517.882 186.513 511.852 201.451 503.941 200.695C496.028 199.939 493.578 195.021 488.681 194.643C483.783 194.265 480.203 195.59 482.651 196.912C485.101 198.236 493.391 197.346 497.347 200.721C501.304 204.098 504.507 206.177 497.158 207.689C489.811 209.201 476.621 208.255 473.984 202.583L471.347 196.909L471.345 196.914Z" fill="#D4E4F8"/>
<path d="M515.43 169.683C515.43 169.683 475.865 182.541 471.345 196.914C471.345 196.914 471.532 203.344 467.578 210.719V213.555C467.578 213.555 471.721 203.913 473.984 202.588C473.984 202.588 465.13 190.108 515.432 169.686L515.43 169.683Z" fill="#D4E4F8"/>
<path d="M467.575 210.719C467.575 210.719 461.473 220.019 464.952 231.338L466.522 230.916C466.522 230.916 464.999 218.447 468.191 212.177C471.382 205.906 467.575 210.719 467.575 210.719Z" fill="#D4E4F8"/>
<path d="M470.867 255.887C486.154 255.887 498.545 243.449 498.545 228.107H443.187C443.187 243.449 455.579 255.887 470.865 255.887H470.867Z" fill="#D4E4F8"/>
<path d="M498.929 257.301H442.808C442.808 255.408 444.336 253.874 446.222 253.874H495.513C497.399 253.874 498.927 255.408 498.927 257.301H498.929Z" fill="#D4E4F8"/>
<path d="M499.177 228.104H442.28V228.957H499.177V228.104Z" fill="#9FC1F4"/>
<path d="M69.4719 357.455H166.685L151.431 232.775H54.2185L69.4719 357.455Z" fill="#A4C4E0"/>
<path d="M73.6812 357.455H170.894L155.643 232.775H58.4302L73.6812 357.455Z" fill="#C8DBF4"/>
<path d="M78.5948 350.999H164.403L150.664 238.689H64.8553L78.5948 350.999Z" fill="#D4E4F8"/>
<path d="M70.5716 298.268H159.443L158.676 291.979H69.8018L70.5716 298.268Z" fill="#C8DBF4"/>
<path d="M157.915 251.354L155.643 232.775H137.133L157.915 251.354Z" fill="#B7CFEA"/>
<path d="M60.7022 251.354L58.4302 232.775H76.9406L60.7022 251.354Z" fill="#B7CFEA"/>
<path d="M152.386 357.471H170.897L168.625 338.892L152.386 357.471Z" fill="#B7CFEA"/>
<path d="M92.194 357.471H73.6836L71.4116 338.892L92.194 357.471Z" fill="#B7CFEA"/>
<path d="M114.818 357.459H184.159L173.281 268.527H103.938L114.818 357.459Z" fill="#A4C4E0"/>
<path d="M117.82 357.459H187.163L176.283 268.527H106.942L117.82 357.459Z" fill="#C8DBF4"/>
<path d="M121.325 352.854H182.532L172.733 272.745H111.526L121.325 352.854Z" fill="#D4E4F8"/>
<path d="M115.602 315.241H178.995L178.447 310.755H115.054L115.602 315.241Z" fill="#C8DBF4"/>
<path d="M177.904 281.779L176.283 268.527H163.082L177.904 281.779Z" fill="#B7CFEA"/>
<path d="M108.564 281.779L106.942 268.527H120.146L108.564 281.779Z" fill="#B7CFEA"/>
<path d="M173.962 357.471H187.165L185.544 344.219L173.962 357.471Z" fill="#B7CFEA"/>
<path d="M131.026 357.471H117.822L116.201 344.219L131.026 357.471Z" fill="#B7CFEA"/>
<path d="M118.283 42.0028H158.98C160.854 42.0028 162.377 43.5316 162.377 45.4128V84.8369C162.377 86.7181 160.854 88.247 158.98 88.247H118.283C116.409 88.247 114.886 86.7204 114.886 84.8369V45.4104C114.886 43.5293 116.407 42.0004 118.283 42.0004V42.0028Z" fill="#C0D8FB"/>
<path d="M157.218 44.006H120.047C118.334 44.006 116.945 45.4003 116.945 47.1201V83.1272C116.945 84.8471 118.334 86.2413 120.047 86.2413H157.218C158.931 86.2413 160.321 84.8471 160.321 83.1272V47.1201C160.321 45.4003 158.931 44.006 157.218 44.006Z" fill="#DFEBFD"/>
<path d="M137.648 48.2263C137.648 47.6814 138.087 47.2399 138.63 47.2399C139.173 47.2399 139.613 47.6814 139.613 48.2263C139.613 48.7711 139.173 49.2127 138.63 49.2127C138.087 49.2127 137.648 48.7711 137.648 48.2263Z" fill="#B7D3F3"/>
<path d="M145.587 49.6213C145.851 49.1446 146.45 48.9731 146.925 49.2385C147.4 49.5039 147.571 50.1051 147.306 50.5818C147.042 51.0586 146.443 51.23 145.968 50.9646C145.493 50.6993 145.322 50.098 145.587 49.6213Z" fill="#B7D3F3"/>
<path d="M152.386 55.044C152.842 54.7481 153.451 54.8796 153.746 55.3375C154.04 55.7955 153.909 56.4061 153.453 56.702C152.997 56.9979 152.388 56.8664 152.094 56.4085C151.799 55.9505 151.93 55.3399 152.386 55.044Z" fill="#B7D3F3"/>
<path d="M155.756 63.4375C156.298 63.4375 156.738 63.879 156.738 64.4239C156.738 64.9687 156.298 65.4102 155.756 65.4102C155.213 65.4102 154.773 64.9687 154.773 64.4239C154.773 63.879 155.213 63.4375 155.756 63.4375Z" fill="#B7D3F3"/>
<path d="M154.036 73.179C154.419 73.5642 154.419 74.1889 154.036 74.5764C153.652 74.9615 153.03 74.9615 152.644 74.5764C152.26 74.1912 152.26 73.5665 152.644 73.179C153.027 72.7915 153.65 72.7939 154.036 73.179Z" fill="#B7D3F3"/>
<path d="M147.859 79.3955C148.242 79.7806 148.242 80.4053 147.859 80.7929C147.475 81.178 146.852 81.178 146.466 80.7929C146.083 80.4077 146.083 79.783 146.466 79.3955C146.85 79.0103 147.473 79.0103 147.859 79.3955Z" fill="#B7D3F3"/>
<path d="M137.648 82.5989C137.648 82.054 138.087 81.6125 138.63 81.6125C139.173 81.6125 139.613 82.054 139.613 82.5989C139.613 83.1437 139.173 83.5852 138.63 83.5852C138.087 83.5852 137.648 83.1437 137.648 82.5989Z" fill="#B7D3F3"/>
<path d="M131.646 49.6213C131.382 49.1446 130.783 48.9731 130.308 49.2385C129.833 49.5039 129.662 50.1051 129.926 50.5818C130.191 51.0586 130.79 51.23 131.265 50.9646C131.74 50.6993 131.91 50.098 131.646 49.6213Z" fill="#B7D3F3"/>
<path d="M124.846 55.044C124.39 54.7481 123.782 54.8796 123.487 55.3375C123.192 55.7955 123.323 56.4061 123.779 56.702C124.236 56.9979 124.844 56.8664 125.139 56.4085C125.434 55.9505 125.303 55.3399 124.846 55.044Z" fill="#B7D3F3"/>
<path d="M121.477 63.4375C120.934 63.4375 120.494 63.879 120.494 64.4239C120.494 64.9687 120.934 65.4102 121.477 65.4102C122.02 65.4102 122.46 64.9687 122.46 64.4239C122.46 63.879 122.02 63.4375 121.477 63.4375Z" fill="#B7D3F3"/>
<path d="M123.197 73.179C122.813 73.5642 122.813 74.1889 123.197 74.5764C123.58 74.9615 124.203 74.9615 124.589 74.5764C124.973 74.1912 124.973 73.5665 124.589 73.179C124.205 72.7915 123.583 72.7939 123.197 73.179Z" fill="#B7D3F3"/>
<path d="M129.374 79.3955C128.99 79.7806 128.99 80.4053 129.374 80.7929C129.758 81.178 130.38 81.178 130.766 80.7929C131.15 80.4077 131.15 79.783 130.766 79.3955C130.382 79.0103 129.76 79.0103 129.374 79.3955Z" fill="#B7D3F3"/>
<path d="M138.366 64.4238C138.366 63.879 138.806 63.4375 139.349 63.4375C139.892 63.4375 140.331 63.879 140.331 64.4238C140.331 64.9687 139.892 65.4102 139.349 65.4102C138.806 65.4102 138.366 64.9687 138.366 64.4238Z" fill="#B7D3F3"/>
<path d="M139.484 52.0895H139.215V64.4238H139.484V52.0895Z" fill="#B7D3F3"/>
<path d="M145.494 58.9598L138.979 64.0931L139.476 64.7286L145.991 59.5953L145.494 58.9598Z" fill="#B7D3F3"/>
<path d="M433.004 258.891V261.39C433.004 262.266 433.288 262.98 433.631 262.98H524.517C524.861 262.98 525.144 262.266 525.144 261.39V258.891C525.144 258.017 524.861 257.301 524.517 257.301H433.631C433.288 257.301 433.004 258.017 433.004 258.891Z" fill="#9ABFE2"/>
<path d="M433.004 258.891V261.39C433.004 262.266 433.264 262.98 433.58 262.98H505.733C506.049 262.98 506.309 262.266 506.309 261.39V258.891C506.309 258.017 506.049 257.301 505.733 257.301H433.58C433.264 257.301 433.004 258.017 433.004 258.891Z" fill="#BAD4F4"/>
<path d="M456.005 357.375H520.528V262.982H456.005V357.375Z" fill="#C8DBF4"/>
<path d="M437.923 357.375H502.446V262.982H437.923V357.375Z" fill="#DFEBFD"/>
<path d="M441.39 265.647H498.978V352.161H441.39V265.647ZM498.356 266.272H442.01V351.539H498.356V266.272Z" fill="#B7D3F3"/>
<path d="M498.667 294.266H441.701V294.891H498.667V294.266Z" fill="#B7D3F3"/>
<path d="M498.667 323.444H441.701V324.069H498.667V323.444Z" fill="#B7D3F3"/>
<path d="M464.349 271.225H474.92C475.432 271.225 475.854 270.805 475.854 270.288C475.854 269.774 475.435 269.351 474.92 269.351H464.349C463.836 269.351 463.415 269.771 463.415 270.288C463.415 270.802 463.834 271.225 464.349 271.225Z" fill="#B7D3F3"/>
<path d="M464.349 299.759H474.92C475.432 299.759 475.854 299.339 475.854 298.822C475.854 298.308 475.435 297.885 474.92 297.885H464.349C463.836 297.885 463.415 298.306 463.415 298.822C463.415 299.337 463.834 299.759 464.349 299.759Z" fill="#B7D3F3"/>
<path d="M464.349 329.503H474.92C475.432 329.503 475.854 329.083 475.854 328.566C475.854 328.052 475.435 327.629 474.92 327.629H464.349C463.836 327.629 463.415 328.049 463.415 328.566C463.415 329.08 463.834 329.503 464.349 329.503Z" fill="#B7D3F3"/>
<path d="M497.269 221.744L495.118 222.09L499.189 247.546L501.34 247.2L497.269 221.744Z" fill="#9ABFE2"/>
<path d="M495.483 217.414L495.125 222.069L497.275 221.724L495.483 217.414Z" fill="#B7CFEA"/>
<path d="M512.079 222.134L509.937 221.735L505.256 247.086L507.398 247.484L512.079 222.134Z" fill="#9ABFE2"/>
<path d="M511.828 217.477L509.933 221.74L512.074 222.139L511.828 217.477Z" fill="#B7CFEA"/>
<path d="M519.634 218.345L517.492 217.946L512.811 243.296L514.953 243.695L519.634 218.345Z" fill="#87A6D8"/>
<path d="M519.384 213.685L517.489 217.95L519.629 218.346L519.384 213.685Z" fill="#B7CFEA"/>
<path d="M520.357 232.47H503.192V257.301H520.357V232.47Z" fill="#91B2E2"/>
<path d="M511.775 232.47H494.61V257.301H511.775V232.47Z" fill="#B7CFEA"/>
<path d="M266.6 151.386C266.6 151.386 272.195 148.115 275.274 149.24C278.353 150.365 283.531 154.017 281.292 155.562C279.053 157.107 276.32 155.67 275.414 155.562C274.509 155.454 272.791 159.282 267.524 158.054C262.257 156.825 266.6 151.386 266.6 151.386Z" fill="#FFB27D"/>
<path d="M224.32 75.0343C224.32 75.0343 214.595 67.4088 204.099 70.4055C204.099 70.4055 200.02 64.0575 192.762 67.4651C182.591 72.242 189.87 82.9558 195.097 80.7083C195.097 80.7083 194.955 83.3762 192.341 88.8083C189.728 94.2403 195.13 105.753 206.029 101.941C216.928 98.1271 226.323 93.8481 226.323 93.8481C226.323 93.8481 234.985 81.1757 224.32 75.0343Z" fill="#163560"/>
<path d="M223.587 154.345C223.587 154.345 225.19 157.53 228.094 161.186C231.596 165.588 236.994 170.674 243.773 171.677C247.011 172.156 250.177 171.456 253.088 170.16C253.095 170.158 253.099 170.158 253.099 170.158C261.333 166.489 267.522 158.054 267.522 158.054C268.973 154.08 266.598 151.386 266.598 151.386C266.598 151.386 249.973 155.139 248.389 154.345C246.805 153.552 237.5 131.027 235.654 127.464C232.015 120.44 225.677 118.39 225.677 118.39L223.585 154.345H223.587Z" fill="#739AF0"/>
<path d="M228.094 161.186C231.114 167.011 236.994 170.674 243.773 171.677C247.011 172.156 250.177 171.456 253.088 170.16C252.765 170.202 244.543 171.222 241.267 165.336C237.923 159.331 234.308 149.796 229.343 152.976C227.2 154.348 227.296 157.758 228.096 161.186H228.094Z" fill="#5D81DB"/>
<path d="M161.563 334.463C161.563 334.463 156.49 339.111 157.48 342.41C158.47 345.712 163.049 347.913 163.666 351.947C164.284 355.982 166.76 358.183 168.987 358.183H179.605C179.605 358.183 181.246 355.343 177.287 354.486C173.328 353.631 171.835 348.89 172.083 344.486C172.331 340.085 171.711 334.214 171.711 334.214L163.297 332.258L161.565 334.458L161.563 334.463Z" fill="#294A7F"/>
<path d="M204.499 336.91C204.499 336.91 202.674 356.595 204.901 357.694L233.403 357.636C233.403 357.636 233.403 354.334 228.826 353.601C224.247 352.868 216.205 350.177 214.846 344.186C213.484 338.195 204.501 336.91 204.501 336.91H204.499Z" fill="#294A7F"/>
<path d="M228.424 178.601L205.03 177.043L191.845 176.165C191.845 176.165 190.362 166.769 189.697 162.492C188.951 157.666 188.024 154.284 187.411 151.144C187.107 149.587 186.875 148.087 186.782 146.504C186.356 139.291 182.575 141.069 182.575 141.069L194.51 117.263C212.188 113.042 225.679 118.392 225.679 118.392C225.679 118.392 230.314 126.666 233.349 138.585C236.386 150.503 228.426 178.601 228.426 178.601H228.424Z" fill="#739AF0"/>
<path d="M208.664 176.325L191.845 176.165C191.845 176.165 190.362 166.769 189.697 162.492C188.951 157.666 188.024 154.284 187.411 151.144L187.392 150.548C187.392 150.548 191.758 144.35 194.18 145.109C196.604 145.867 192.238 157.246 195.891 161.32C198.537 164.27 207.854 166.799 208.666 176.322L208.664 176.325Z" fill="#5D81DB"/>
<path d="M227.771 174.892C227.771 174.892 235.988 200.564 236.515 209.305C237.044 218.046 220.807 333.469 220.155 337.497C219.539 341.295 214.843 343.714 214.843 343.714C214.843 343.714 212.684 344.994 209.6 344.12C205.322 342.908 203.97 341.457 203.97 341.457C203.97 341.457 197.575 259.137 201.532 229.73C205.491 200.324 205.538 174.895 205.538 174.895H227.771V174.892Z" fill="#ED7D2B"/>
<path d="M192.957 174.127C192.957 174.127 180.422 191.008 179.254 202.419C178.087 213.83 177.422 253.912 174.933 265.037C172.443 276.162 163.297 297.568 163.297 332.265C163.297 332.265 164.247 334.254 167.183 335.313C168.122 335.651 169.38 335.98 170.602 336.262C173.024 336.818 175.506 335.632 176.61 333.399C182.795 320.903 202.494 280.596 203.502 272.23C204.216 266.31 210.437 227.123 224.004 204.129C227.261 198.607 220.775 185.103 220.775 185.103L192.959 174.129L192.957 174.127Z" fill="#F99746"/>
<path d="M203.032 115.908C204.031 113.327 205.297 106.57 205.28 101.791L206.031 101.927L218.664 104.238C218.664 104.238 218.376 107.909 218.369 111.368C218.369 111.396 218.369 111.424 218.369 111.455C218.353 114.458 218.383 116.875 218.042 117.692C216.839 120.576 202.206 118.052 203.034 115.908H203.032Z" fill="#FFB27D"/>
<path d="M218.664 104.238C218.664 104.238 218.377 107.909 218.367 111.368C211.298 111.185 207.562 105.229 206.031 101.929L218.664 104.24V104.238Z" fill="#E8945B"/>
<path d="M221.023 108.01C221.023 108.01 204.298 108.287 204.286 97.8288C204.274 87.371 202.108 80.3654 212.787 79.7454C223.465 79.1254 225.543 83.1155 226.393 86.603C227.242 90.0929 225.372 107.667 221.023 108.007V108.01Z" fill="#FFB27D"/>
<path d="M220.405 79.4918C220.405 79.4918 215.826 91.7603 208.797 93.5733C201.768 95.3864 198.722 93.4982 198.722 93.4982C198.722 93.4982 204.113 89.2005 205.231 81.697C205.231 81.697 216.951 73.6535 220.405 79.4918Z" fill="#163560"/>
<path d="M219.27 80.4876C219.27 80.4876 222.665 81.7628 224.065 84.2475C225.431 86.6782 226.596 89.898 226.325 93.8481C226.325 93.8481 229.776 85.5086 225.897 80.7929C221.786 75.7906 219.27 80.4876 219.27 80.4876Z" fill="#163560"/>
<path d="M217.756 101.802C217.756 101.802 218.046 103.035 221.1 102.845C221.1 102.845 223.664 102.686 223.585 101.333C223.585 101.333 221.098 100.37 217.756 101.805V101.802Z" fill="white"/>
<path d="M197.482 175.651C197.482 175.651 211.308 171.015 216.858 179.305C218.035 181.064 209.361 181.935 204.728 181.318C203.624 181.17 195.795 179.592 195.795 179.592L197.482 175.651Z" fill="#FFB27D"/>
<path d="M194.508 117.263C194.508 117.263 185.029 118.984 178.548 131.398C172.995 142.034 164.9 158.951 164.9 162.086C164.9 165.221 169.722 174.89 195.626 180.449C195.626 180.449 198.305 177.619 198.144 175.383C198.144 175.383 181.973 161.442 182.018 159.813C182.1 156.731 184.669 152.661 198.865 138.408C202.725 134.533 194.508 117.26 194.508 117.26V117.263Z" fill="#739AF0"/>
<path d="M244.398 175.108C235.328 158.995 200.57 160.785 199.569 164.972C198.57 169.16 207.463 173.38 205.266 177.173C201.403 183.84 191.066 179.211 188.195 184.831C185.324 190.451 205.498 214.178 224.151 212.788C242.804 211.397 253.464 191.221 244.395 175.108H244.398ZM212.96 178.636C213.584 179.963 212.751 181.675 211.097 182.457C209.445 183.241 207.599 182.8 206.974 181.473C206.35 180.146 207.183 178.436 208.837 177.652C210.489 176.867 212.335 177.309 212.96 178.636Z" fill="#FFE3CA"/>
<path d="M203.68 199.293C202.98 198.481 202.278 197.506 202.407 196.44C202.531 195.406 203.441 194.608 204.429 194.295C205.416 193.983 206.481 194.058 207.515 194.136C208.147 194.185 208.778 194.232 209.41 194.281C209.815 194.312 210.236 194.347 210.585 194.556C210.912 194.751 211.139 195.078 211.348 195.399C211.549 195.707 211.748 196.024 211.851 196.379C212.946 200.146 205.573 201.491 203.682 199.293H203.68Z" fill="#233862"/>
<path d="M240.846 191.926C239.826 192.25 238.656 192.513 237.731 191.973C236.835 191.449 236.463 190.296 236.566 189.263C236.669 188.227 237.161 187.276 237.64 186.355C237.935 185.792 238.228 185.228 238.52 184.664C238.707 184.303 238.908 183.929 239.236 183.69C239.545 183.464 239.933 183.387 240.31 183.319C240.67 183.255 241.04 183.197 241.405 183.241C245.284 183.72 243.604 191.05 240.846 191.923V191.926Z" fill="#B7CFEA"/>
<path d="M216.25 201.151C217.059 200.528 218.124 200.188 219.118 200.411C219.638 200.526 220.113 200.787 220.616 200.953C221.46 201.235 222.422 201.28 223.112 201.844C223.931 202.513 224.1 203.701 224.022 204.758C223.976 205.413 223.854 206.076 223.559 206.663C222.67 208.441 220.321 209.122 218.423 208.553C216.706 208.041 215.377 206.67 214.75 205.009C214.153 203.424 214.93 202.161 216.247 201.151H216.25Z" fill="#F78248"/>
<path d="M232.455 174.197C233.094 173.706 233.934 173.439 234.718 173.612C235.127 173.704 235.502 173.908 235.899 174.042C236.566 174.265 237.324 174.298 237.867 174.744C238.513 175.273 238.644 176.21 238.586 177.043C238.548 177.56 238.452 178.081 238.221 178.544C237.521 179.946 235.668 180.482 234.17 180.035C232.816 179.631 231.767 178.551 231.274 177.241C230.803 175.991 231.416 174.993 232.455 174.197Z" fill="#739AF0"/>
<path d="M220.929 169.014C221.568 168.523 222.408 168.255 223.192 168.429C223.601 168.521 223.976 168.725 224.373 168.857C225.04 169.08 225.798 169.113 226.341 169.559C226.987 170.087 227.118 171.024 227.059 171.858C227.022 172.375 226.926 172.896 226.694 173.359C225.992 174.761 224.142 175.296 222.644 174.85C221.289 174.446 220.241 173.366 219.748 172.055C219.277 170.806 219.89 169.808 220.929 169.012V169.014Z" fill="#EBF3FA"/>
<path d="M229.799 203.283C229.112 202.464 229.093 201.231 229.502 200.24C229.912 199.249 230.679 198.455 231.468 197.731C232.018 197.226 232.6 196.736 233.283 196.44C233.969 196.144 234.779 196.066 235.452 196.388C236.126 196.71 236.597 197.494 236.419 198.22C236.178 199.209 235.087 199.953 234.622 200.857C234.177 201.719 234.182 202.745 233.761 203.586C233.382 204.342 232.996 204.826 232.078 204.941C230.707 205.113 230.574 204.204 229.799 203.281V203.283Z" fill="#F99746"/>
<path d="M201.579 174.704C201.579 174.704 206.408 173.687 207.318 173.821C208.802 174.037 211.935 174.662 212.29 174.916C212.646 175.169 210.435 176.569 208.664 176.325C207.461 176.158 204.934 177.889 204.061 178.462C203.189 179.035 201.579 174.707 201.579 174.707V174.704Z" fill="#FFB27D"/>
<path d="M284.708 159.876L282.158 162.657L247.332 129.867C247 129.555 246.981 129.033 247.29 128.697C247.554 128.411 247.996 128.383 248.291 128.636L284.708 159.874V159.876Z" fill="#F99746"/>
<path d="M282.158 162.659L284.708 159.876L281.468 157.098L279.205 159.878L282.158 162.659Z" fill="#739AF0"/>
<path d="M284.708 159.876C284.708 159.876 286.69 158.697 290.141 161.088C293.593 163.481 296.059 162.657 296.059 162.657C296.059 162.657 293.099 165.461 289.566 165.707C286.03 165.954 283.379 165.627 282.158 162.657L284.708 159.876Z" fill="#163560"/>
<path d="M270.094 153.65C270.094 153.65 270.26 153.629 270.548 153.594C272.169 153.394 277.626 152.715 278.538 152.516C279.612 152.281 277.897 154.146 276.065 154.669C274.233 155.195 275.398 156.682 273.376 156.496C271.352 156.309 270.094 153.65 270.094 153.65Z" fill="#FFB27D"/>
<path d="M396.065 239.241H278.87L297.257 88.9398H414.452L396.065 239.241Z" fill="#916140"/>
<path d="M401.335 239.241H284.14L302.526 88.9398H419.721L401.335 239.241Z" fill="#D8A27D"/>
<path d="M395.413 231.46H291.966L308.53 96.0674H411.976L395.413 231.46Z" fill="#E5BD9E"/>
<path d="M405.083 167.891H297.945L298.874 160.308H406.012L405.083 167.891Z" fill="#D8A27D"/>
<path d="M299.786 111.335L302.526 88.9398H324.841L299.786 111.335Z" fill="#C6916D"/>
<path d="M416.981 111.335L419.721 88.9398H397.406L416.981 111.335Z" fill="#C6916D"/>
<path d="M306.452 239.262H284.137L286.877 216.864L306.452 239.262Z" fill="#C6916D"/>
<path d="M379.017 239.262H401.332L404.072 216.864L379.017 239.262Z" fill="#C6916D"/>
<path d="M298.38 357.372C297.521 357.372 296.882 356.576 297.063 355.736L343.635 139.141C343.878 138.012 344.875 137.204 346.028 137.204H347.484C348.642 137.204 349.503 138.282 349.25 139.418L299.964 356.107C299.795 356.849 299.138 357.375 298.38 357.375V357.372Z" fill="#163560"/>
<path d="M367.421 357.708C366.602 357.692 365.95 357.018 365.952 356.198L366.717 139.453C366.726 138.432 367.559 137.612 368.58 137.622L369.836 137.636C370.887 137.647 371.727 138.514 371.713 139.569L368.659 356.511C368.65 357.185 368.095 357.722 367.424 357.708H367.421Z" fill="#163560"/>
<path d="M367.838 273.322H316.298V277.263H367.838V273.322Z" fill="#163560"/>
<path d="M365.073 72.0914L339.994 275.052L343.89 275.538L368.969 72.5764L365.073 72.0914Z" fill="#163560"/>
<path d="M369.118 154.261L340.712 154.249L342.68 150.308L369.12 150.32L369.118 154.261Z" fill="#163560"/>
<path d="M408.726 356.388L354.608 172.248C354.522 171.954 354.536 171.642 354.646 171.358L355.736 168.561C356.213 167.337 357.968 167.422 358.326 168.685L411.352 355.623C411.6 356.499 410.944 357.372 410.037 357.372C409.431 357.372 408.895 356.971 408.724 356.388H408.726Z" fill="#163560"/>
<path d="M394.198 242.329H280.817C280.251 242.329 279.79 241.869 279.79 241.298C279.79 239.635 281.133 238.29 282.787 238.29H395.352C396.126 238.29 396.756 238.919 396.756 239.699V239.765C396.756 241.183 395.612 242.332 394.198 242.332V242.329Z" fill="#163560"/>
<path d="M376.025 85.9548H354.917V88.9398H376.025V85.9548Z" fill="#163560"/>
<path d="M0.680891 357.372H589.319C589.693 357.372 590 357.678 590 358.056V358.317C590 358.692 589.696 359 589.319 359H0.680891C0.306518 359 0 358.695 0 358.317V358.056C0 357.68 0.304178 357.372 0.680891 357.372Z" fill="#2E3552"/>
</g>
<defs>
<clipPath id="clip0_57_737">
<rect width="590" height="359" fill="white"/>
</clipPath>
</defs>
</svg>
