<svg width="31" height="31" viewBox="0 0 31 31" fill="none" xmlns="http://www.w3.org/2000/svg">
<path d="M7.78857 25.1429H20.5346C21.4752 25.1429 22.2815 24.4712 22.435 23.5309L25.8327 3.61194C25.9863 2.69083 26.7925 2 27.7331 2H29" stroke="#F4F4F4" stroke-width="3" stroke-linecap="round" stroke-linejoin="round"/>
<path d="M10.2073 28.0405C10.476 28.0405 10.6872 28.2516 10.6872 28.5203C10.6872 28.7889 10.476 29 10.2073 29C9.93851 29 9.72736 28.7889 9.72736 28.5203C9.72736 28.2516 9.93851 28.0405 10.2073 28.0405Z" stroke="#F4F4F4" stroke-width="3" stroke-linecap="round" stroke-linejoin="round"/>
<path d="M19.8435 28.0405C20.1123 28.0405 20.3234 28.2516 20.3234 28.5203C20.3234 28.7889 20.1123 29 19.8435 29C19.5748 29 19.3636 28.7889 19.3636 28.5203C19.3636 28.2516 19.5748 28.0405 19.8435 28.0405Z" stroke="#F4F4F4" stroke-width="3" stroke-linecap="round" stroke-linejoin="round"/>
<path d="M23.1644 19.3667H7.63497C5.86894 19.3667 4.31408 18.1578 3.89177 16.4499L2.02976 8.98505C1.95298 8.69721 2.02976 8.39017 2.20253 8.15989C2.39449 7.92962 2.66323 7.79529 2.97036 7.79529H25.1224" stroke="#F4F4F4" stroke-width="3" stroke-linecap="round" stroke-linejoin="round"/>
</svg>
