<?xml version="1.0" encoding="UTF-8"?><svg xmlns="http://www.w3.org/2000/svg" xmlns:xlink="http://www.w3.org/1999/xlink" viewBox="0 0 663.16 416.84"><defs><style>.cls-1{clip-path:url(#clippath);}.cls-2{fill:#ebebeb;}.cls-3{fill:#eb996e;}.cls-4{fill:#f5f5f5;}.cls-5{fill:#fff;}.cls-6{fill:#fafafa;}.cls-7{fill:#ffbe9d;}.cls-8,.cls-9{fill:#e8505b;}.cls-10{fill:#e0e0e0;}.cls-11{fill:#455a64;}.cls-12{fill:#263238;}.cls-9{mix-blend-mode:screen;}.cls-13{opacity:.2;}.cls-14{opacity:.3;}.cls-15{opacity:.4;}.cls-16{isolation:isolate;}</style><clipPath id="clippath"><path class="cls-8" d="M540.71,308.24l-2.53,22.83c-.03,.29-.08,.58-.13,.86-.92,4.65-5.24,7.86-9.98,7.85h-11.26c-2.21-.02-3.85-2.06-3.38-4.22l5.3-27.46c.37-1.78,1.95-3.08,3.77-3.08h15.34c.82,0,1.61,.35,2.16,.96,.55,.61,.81,1.43,.72,2.25Z"/></clipPath></defs><g class="cls-16"><g id="Background_Complete"><g><path class="cls-4" d="M30.56,92.37s-11.64,4.41,1.11,29.2c12.75,24.79,21.57,37.05,21.57,37.05,0,0,2.27,5.76-2.58,6.67-4.85,.91-15.54-.76-17.68,5.19-2.22,6.17,2.27,11.96,11.36,17.03,9.09,5.07,28.59,16.9,30.35,17.97,1.73,1.06,3.46,3.73,.26,4.88-3.2,1.15-27.23,3.74-25.32,15.07,1.91,11.33,29.55,21.28,32.55,22.43,3,1.15,3.72,2.41,3.48,4.06-.24,1.65-8.4,1.75-15.2,2.77-6.8,1.02-14.51,3.39-12.86,9.83,1.65,6.44,18.05,19.93,57.76,23.69l18.52,.54,10.02-15.68c19.4-34.85,17.57-56.01,13.2-61.02s-10.7,0-15.39,5.03-9.4,11.69-10.89,10.95c-1.49-.74-2.13-2.05-1.37-5.17,.76-3.12,8.21-31.53-.04-39.52-8.25-7.99-24,10.34-26.76,12.33-2.76,1.99-3.98-.96-3.88-2.98,.11-2.06,1.41-24.83,2.39-35.19,.97-10.36-1.26-17.34-7.6-19.01-6.11-1.6-10.8,8.15-14.29,11.63-3.5,3.48-6.96-1.65-6.96-1.65,0,0-5.11-14.22-18.31-38.77-13.2-24.55-23.65-17.23-23.65-17.23"/><path class="cls-10" d="M134.85,293.1c-9.62-18.07-26.19-50.48-40.56-78.22-14.36-27.74-27.39-52.84-36.92-70.96-4.77-9.04-8.63-16.36-11.31-21.44-1.32-2.52-2.36-4.48-3.07-5.83-.34-.65-.6-1.16-.79-1.52-.17-.34-.25-.53-.25-.53,0,0,.11,.16,.3,.5,.2,.36,.48,.85,.84,1.5,.74,1.34,1.8,3.29,3.17,5.78,2.74,5.02,6.66,12.32,11.47,21.36,9.62,18.07,22.71,43.14,37.07,70.88,14.37,27.75,30.88,60.18,40.41,78.3"/><path class="cls-10" d="M47.85,173.42s.47,.09,1.29,.36c.82,.26,2,.67,3.44,1.19,2.89,1.05,6.85,2.6,11.19,4.39,4.27,1.78,8.13,3.4,11.09,4.63,1.33,.55,2.46,1.01,3.37,1.38,.8,.32,1.23,.52,1.22,.56s-.47-.09-1.3-.35c-.82-.26-2-.68-3.44-1.21-2.88-1.08-6.82-2.68-11.16-4.48-4.28-1.75-8.15-3.34-11.12-4.55-1.34-.54-2.47-1-3.38-1.36-.8-.33-1.23-.53-1.22-.57Z"/><path class="cls-10" d="M80.71,184.74c-.15-.05,2.69-8.36,6.35-18.54,3.65-10.19,6.74-18.4,6.89-18.35,.15,.05-2.69,8.36-6.35,18.55-3.65,10.19-6.74,18.4-6.89,18.35Z"/><path class="cls-10" d="M100.85,228.34s.24-.43,.75-1.15c.59-.81,1.32-1.81,2.18-3.01,1.84-2.54,4.36-6.06,7.01-10.05,2.65-3.98,4.93-7.67,6.56-10.35,.77-1.26,1.41-2.33,1.93-3.18,.46-.75,.73-1.15,.77-1.13,.03,.02-.17,.46-.57,1.24-.4,.78-1,1.9-1.77,3.27-1.54,2.74-3.77,6.47-6.43,10.47-2.65,4-5.24,7.49-7.16,9.98-.97,1.24-1.76,2.23-2.33,2.9-.57,.67-.89,1.03-.93,1.01Z"/><path class="cls-10" d="M68.87,224.64s.45-.03,1.26,.02c.93,.07,2.08,.16,3.43,.26,2.89,.24,6.88,.62,11.29,1.07,4.4,.45,8.39,.89,11.27,1.24,1.34,.17,2.48,.32,3.41,.44,.8,.12,1.25,.2,1.24,.24,0,.04-.45,.03-1.26-.02-.93-.07-2.08-.16-3.43-.26-2.89-.24-6.88-.62-11.29-1.07-4.4-.45-8.39-.89-11.27-1.24-1.34-.17-2.48-.32-3.41-.44-.8-.12-1.25-.2-1.24-.24Z"/><path class="cls-10" d="M81.76,265.39s.58-.02,1.62,.04c1.14,.08,2.62,.19,4.39,.32,3.71,.29,8.83,.74,14.47,1.26,5.65,.53,10.76,1.03,14.46,1.43,1.77,.2,3.24,.37,4.38,.5,1.03,.13,1.6,.22,1.6,.26,0,.04-.58,.02-1.62-.04-1.14-.08-2.62-.19-4.39-.32-3.71-.29-8.83-.74-14.48-1.26-5.65-.53-10.76-1.03-14.46-1.43-1.77-.2-3.24-.37-4.38-.5-1.03-.13-1.6-.22-1.6-.26Z"/><path class="cls-10" d="M121.73,268.83s.29-.55,.91-1.48c.68-1.01,1.56-2.33,2.63-3.91,2.22-3.31,5.26-7.89,8.48-13.04,3.23-5.15,6.02-9.88,8.03-13.32,.96-1.65,1.76-3.02,2.37-4.08,.56-.96,.89-1.48,.93-1.46,.03,.02-.23,.58-.73,1.57-.5,.99-1.26,2.42-2.22,4.17-1.91,3.5-4.66,8.27-7.89,13.43-3.22,5.16-6.33,9.71-8.63,12.96-1.16,1.62-2.11,2.93-2.78,3.81-.67,.89-1.06,1.37-1.09,1.35Z"/></g><g><path class="cls-4" d="M477.58,326.94c-26.68-17.43-33.65-51.1-33.57-81.57,.01-5.09-.71-10.42,1.57-14.96,2.28-4.53,7.82-7.75,12.44-5.75,3.83,1.66,5.61,6,7.83,9.56,2.96,4.74,7.27,8.61,12.27,11.01,3.29,1.58,7.32,2.48,10.46,.62,4.31-2.55,4.64-8.62,4.45-13.68-.35-9.42-.7-18.83-1.06-28.25-.19-5.05-.36-10.21,1.06-15.06,1.42-4.84,4.76-9.41,9.52-10.9,4.77-1.5,10.8,1.09,11.96,6.01,.49,2.04,.13,4.19,.34,6.29,.21,2.09,1.25,4.38,3.27,4.91,2.04,.53,4.01-.97,5.48-2.49,5.06-5.26,8.39-11.95,11.5-18.59,3.1-6.64,6.11-13.43,10.67-19.14,4.56-5.71,10.97-10.33,18.19-10.96,7.22-.63,15.07,3.59,17.12,10.64,2.06,7.07-1.88,14.42-6.22,20.33-6.44,8.76-14.15,16.58-22.79,23.12-1.56,1.18-3.25,2.46-3.8,4.35-.99,3.4,2.3,6.65,5.66,7.65,3.81,1.14,7.88,.62,11.83,.96,3.95,.34,8.28,1.95,9.88,5.62,2.23,5.1-1.92,10.65-6.06,14.33-8.29,7.37-17.83,13.28-28.08,17.4-3.67,1.48-7.55,2.79-10.47,5.5-2.92,2.71-4.58,7.3-2.66,10.81,1.92,3.51,6.61,4.5,10.48,3.66,3.87-.84,7.29-3.07,10.96-4.58,6.86-2.84,15.84-2.64,20.48,3.23,3.05,3.85,3.47,9.34,2.14,14.09-1.33,4.75-4.2,8.89-7.27,12.73-10.72,13.4-24.64,24.36-40.58,30.45-15.93,6.09-30.81,8.06-47,2.71"/><path class="cls-10" d="M484.84,307.62c4-15.5,9.8-32.13,16.46-49.31,1.68-4.29,3.34-8.53,4.98-12.7,1.64-4.17,3.27-8.3,5.12-12.24,3.65-7.9,7.77-15.22,11.89-22.04,4.12-6.83,8.28-13.16,12.21-19.05,3.95-5.88,7.73-11.3,11.39-16.09,7.29-9.61,14.07-16.65,18.92-21.29,2.42-2.33,4.36-4.08,5.69-5.24,.64-.55,1.14-.99,1.52-1.32,.35-.29,.53-.44,.54-.42,.01,.01-.15,.18-.48,.5-.36,.34-.85,.8-1.46,1.38-1.29,1.21-3.18,3-5.57,5.36-4.77,4.72-11.45,11.8-18.65,21.43-3.61,4.8-7.36,10.22-11.27,16.12-3.9,5.91-8.03,12.24-12.12,19.06-4.09,6.82-8.17,14.12-11.79,21.98-1.83,3.92-3.44,8.02-5.08,12.2-1.63,4.17-3.29,8.41-4.97,12.7-6.65,17.17-12.46,33.74-16.49,49.19"/><path class="cls-10" d="M511.66,233.32c-.06,.01-.26-.75-.56-2.14-.31-1.39-.69-3.41-1.12-5.92-.87-5.01-1.84-11.97-2.87-19.64-1.04-7.68-2.1-14.6-3.04-19.59-.47-2.49-.86-4.51-1.15-5.89-.28-1.39-.41-2.17-.35-2.18,.06-.02,.31,.73,.7,2.1,.4,1.36,.9,3.36,1.45,5.85,1.11,4.97,2.29,11.9,3.32,19.59,1,7.58,1.91,14.43,2.6,19.67,.33,2.36,.61,4.36,.83,5.96,.19,1.41,.27,2.19,.2,2.2Z"/><path class="cls-10" d="M576.24,219.16c0,.06-.92,.2-2.58,.39-1.66,.2-4.07,.48-7.03,.91-5.93,.83-14.08,2.26-23.01,4.23-8.92,1.99-16.92,4.13-22.66,5.85-2.88,.84-5.19,1.58-6.79,2.08-1.6,.51-2.49,.76-2.52,.7-.02-.06,.83-.43,2.4-1.05,1.57-.61,3.85-1.45,6.71-2.37,5.71-1.88,13.71-4.14,22.66-6.13,8.95-1.98,17.15-3.31,23.12-3.97,2.98-.35,5.41-.53,7.08-.62,1.68-.08,2.61-.09,2.61-.03Z"/><path class="cls-10" d="M485.6,306.4s-.19-.25-.47-.78c-.32-.63-.71-1.39-1.18-2.32-1.02-2.02-2.42-4.97-4.1-8.64-3.37-7.34-7.7-17.64-12.32-29.06-4.63-11.43-8.86-21.74-12.06-29.15-1.57-3.6-2.86-6.56-3.82-8.76-.41-.96-.75-1.74-1.03-2.39-.23-.55-.33-.85-.3-.86,.03-.01,.19,.26,.47,.78,.32,.63,.71,1.39,1.18,2.31,1.02,2.02,2.42,4.97,4.1,8.64,3.37,7.34,7.7,17.64,12.32,29.06,4.63,11.42,8.85,21.74,12.06,29.15,1.57,3.6,2.86,6.56,3.82,8.76,.41,.96,.75,1.74,1.03,2.39,.23,.55,.33,.85,.3,.86Z"/><path class="cls-10" d="M571.07,275.89s-.28,.16-.85,.38c-.67,.25-1.49,.55-2.48,.92-2.29,.82-5.39,1.93-9.15,3.28-7.73,2.77-18.35,6.73-30.09,11.11-11.74,4.39-22.42,8.25-30.2,10.86-3.89,1.31-7.05,2.34-9.25,3-1.02,.3-1.85,.55-2.54,.75-.58,.16-.89,.23-.9,.2,0-.03,.28-.16,.85-.38,.67-.25,1.49-.55,2.48-.92,2.29-.82,5.39-1.93,9.15-3.28,7.73-2.77,18.36-6.73,30.1-11.11,11.74-4.39,22.41-8.25,30.2-10.86,3.89-1.31,7.05-2.34,9.25-3,1.02-.3,1.85-.55,2.54-.75,.58-.16,.89-.23,.9-.2Z"/></g><path class="cls-2" d="M105.47,50.67c.81-5.86-7.46-10.68-13.67-11.18-2.96-.24-6.04,.21-8.85-.76-6.08-2.12-8.51-9.98-14.44-12.48-4.44-1.87-9.54-.21-13.84,1.96-4.3,2.16-8.55,4.89-13.35,5.2-4.18,.27-8.72-1.28-12.37,.76-2.72,1.52-4.15,4.66-6.66,6.51-2.46,1.81-5.66,2.2-8.71,2.36s-6.2,.2-8.98,1.47C1.81,45.78-.49,48.71,.09,51.71l105.38-1.04Z"/><path class="cls-4" d="M518.7,104.35c.83-6.06-7.72-11.05-14.15-11.57-3.07-.25-6.25,.22-9.15-.79-6.29-2.19-8.8-10.32-14.94-12.91-4.59-1.94-9.87-.21-14.32,2.03-4.45,2.24-8.85,5.06-13.82,5.38-4.32,.28-9.02-1.33-12.8,.79-2.82,1.57-4.3,4.82-6.89,6.74-2.54,1.88-5.86,2.27-9.01,2.44-3.15,.17-6.42,.2-9.29,1.52-2.87,1.32-5.25,4.35-4.65,7.45l109.04-1.08Z"/><path class="cls-4" d="M647.02,130.95c.51-3.73-4.75-6.8-8.71-7.12-1.89-.15-3.85,.14-5.64-.49-3.87-1.35-5.42-6.36-9.2-7.95-2.83-1.19-6.08-.13-8.82,1.25s-5.45,3.11-8.51,3.31c-2.66,.17-5.55-.82-7.88,.48-1.74,.97-2.65,2.97-4.25,4.15-1.57,1.15-3.61,1.4-5.55,1.5-1.94,.11-3.95,.13-5.72,.94-1.77,.81-3.23,2.68-2.86,4.59l67.14-.66Z"/><path class="cls-2" d="M627.78,45.66c.93-6.79-8.65-12.38-15.85-12.96-3.43-.28-7,.25-10.26-.89-7.05-2.46-9.87-11.57-16.75-14.47-5.14-2.17-11.06-.24-16.05,2.27-4.99,2.51-9.91,5.67-15.48,6.02-4.85,.31-10.11-1.49-14.35,.88-3.16,1.76-4.81,5.4-7.73,7.55-2.85,2.1-6.56,2.55-10.1,2.74-3.53,.19-7.19,.23-10.41,1.7-3.22,1.47-5.88,4.88-5.21,8.35l122.18-1.21Z"/></g><g id="Character"><g><g><path class="cls-12" d="M233.56,70.6c2.75-1.18,5.69,1.33,7.19,3.92,1.5,2.59,2.71,5.72,5.45,6.92,2.13,.93,4.58,.4,6.91,.49,7.15,.28,12.7,6.45,15.91,12.85,1.99,3.98,3.45,8.59,2.13,12.83-1.17,3.74-4.31,6.52-7.6,8.66-6.6,4.29-14.47,6.78-22.33,6.34s-15.63-3.97-20.6-10.06c-3.85-4.71-5.9-10.69-6.79-16.71-.89-6.02-.69-12.14-.49-18.22"/><path class="cls-11" d="M264.5,102.11s0-.64-.12-1.78c-.12-1.13-.43-2.78-1.33-4.61-.88-1.83-2.35-3.83-4.51-5.44-2.14-1.62-4.92-2.84-7.98-3.38-3.05-.55-6.1-.27-8.82-.85-2.75-.54-4.91-1.97-6.45-3.34-1.56-1.38-2.59-2.72-3.26-3.66-.33-.47-.58-.85-.74-1.11-.16-.26-.23-.4-.22-.41,.03-.02,.41,.5,1.12,1.4,.72,.89,1.78,2.18,3.34,3.5,1.55,1.3,3.66,2.66,6.3,3.15,2.64,.54,5.67,.25,8.82,.81,3.14,.55,5.99,1.82,8.18,3.51,2.21,1.68,3.7,3.77,4.56,5.66,.88,1.9,1.14,3.6,1.2,4.76,.03,.58,.02,1.03-.02,1.34-.03,.3-.05,.46-.07,.46Z"/></g><g><path class="cls-8" d="M292.33,89.06l-10.53,39.42-21.37-23c-9.84-6.42-21.46-9.57-33.2-8.99h0l-33.26-1.55-18.35,6.61c-4.42,1.6-8.67,3.67-12.66,6.16l-35.79,24.69c-7.57,5.47-13.78,9.64-15.25,18-1.93,11.02,3.65,23.33,15.24,25.36l50.61,.62,1.56,32.04,79.56-7.46-2.13-48.29c16.24,12.51,23.87,17.38,36.09,15,4.07-.79,9.89-5.07,11.78-11.41,6.75-22.61,7.9-58.15,7.9-58.15l-20.2-9.05Zm-124.76,56.57l4.62-1.31,.29,1.67-4.91-.36Z"/><path class="cls-12" d="M126.41,175.77s.14-.02,.43-.03c.31,0,.72-.01,1.25-.02,1.13,0,2.75-.02,4.83-.04,4.22-.01,10.28-.03,17.78-.05,15.05,.01,35.83,.02,58.87,.04l-.26,.25c.03-.57,.06-1.19,.08-1.82,.37-7.95,.73-15.64,1.06-22.79l.23,.26c-17.9-1.67-33.25-4.25-44.21-5.64-5.48-.72-9.85-1.2-12.85-1.55-1.48-.16-2.63-.29-3.44-.38l-.89-.11c-.2-.03-.3-.04-.3-.05,0,0,.1,0,.3,0,.22,.02,.52,.04,.89,.07,.81,.07,1.97,.17,3.45,.3,3.01,.29,7.39,.73,12.88,1.4,10.98,1.3,26.33,3.82,44.22,5.45l.24,.02v.24c-.34,7.15-.69,14.84-1.06,22.79-.03,.62-.06,1.24-.08,1.82v.25h-.26c-23.04-.08-43.82-.15-58.87-.2-7.49-.05-13.56-.09-17.78-.12-2.08-.02-3.7-.04-4.83-.06-.53-.01-.95-.02-1.25-.03-.28,0-.43-.02-.43-.03Z"/><path class="cls-12" d="M127.42,141.58s.28-.17,.81-.4c.53-.24,1.33-.51,2.34-.77,2.01-.54,4.91-.92,8.1-.61,3.18,.32,5.95,1.27,7.82,2.2,.93,.46,1.67,.88,2.14,1.22,.48,.33,.74,.52,.72,.55-.05,.08-1.13-.62-3.01-1.44-1.87-.83-4.6-1.7-7.71-2.02-3.11-.31-5.96,0-7.96,.45-2.01,.43-3.2,.9-3.24,.81Z"/><path class="cls-12" d="M138.43,132.39c.03-.06,.88,.35,2.18,1.16,1.29,.8,3.02,2.01,4.79,3.52,1.75,1.51,3.34,2.98,4,4.43,.33,.71,.43,1.36,.4,1.8-.02,.44-.13,.66-.15,.66-.1,0,.15-.99-.58-2.29-.68-1.31-2.26-2.7-4.01-4.2-1.75-1.49-3.43-2.74-4.66-3.61-1.23-.88-2.01-1.4-1.97-1.46Z"/><path class="cls-12" d="M172.88,146.17c-.07,.02-.41-1.18-.9-3.12-.5-1.94-1.15-4.63-1.96-7.58-.81-2.94-1.66-5.57-2.34-7.45-.68-1.88-1.15-3.03-1.08-3.06,.03-.01,.19,.25,.44,.76,.26,.5,.6,1.24,.98,2.17,.78,1.86,1.68,4.49,2.5,7.45,.81,2.96,1.41,5.67,1.82,7.63,.4,1.97,.61,3.19,.54,3.21Z"/><path class="cls-12" d="M257.78,175.07c-.14,0-.72-12.01-1.28-26.84-.57-14.83-.91-26.85-.76-26.86,.14,0,.72,12.01,1.28,26.84,.56,14.83,.91,26.85,.76,26.86Z"/><g class="cls-14"><path d="M256.17,126.88c.82,5.17,3.04,9.99,4.79,14.92,1.75,4.93,3.04,10.25,1.94,15.37l-5.98-4.81"/></g><path class="cls-12" d="M287.02,149.65s-.19-.25-.46-.75c-.27-.5-.62-1.24-1.02-2.17-.8-1.85-1.75-4.49-2.48-7.5-.72-3.01-1.08-5.79-1.21-7.8-.07-1.01-.09-1.83-.08-2.39,0-.57,.03-.88,.06-.88,.08,0,.16,1.24,.38,3.24,.22,1.99,.63,4.74,1.35,7.71,.72,2.97,1.6,5.6,2.31,7.48,.71,1.88,1.2,3.02,1.13,3.06Z"/><polygon class="cls-14" points="167.95 128.22 169.25 145.15 172.19 144.32 167.95 128.22"/><path class="cls-6" d="M254.34,128.12s-.09-.03-.26-.11l-.74-.37c-.66-.3-1.63-.75-2.95-1.16-2.6-.82-6.66-1.59-11.49-.58-2.41,.49-4.91,1.53-7.4,3-2.5,1.46-4.99,3.32-7.72,5.13-2.72,1.8-5.79,3.54-9.3,4.38-3.48,.9-7.27,1.05-11.03,.45-1.88-.31-3.7-.83-5.44-1.47-1.72-.69-3.36-1.51-4.87-2.49-1.49-1-2.88-2.1-4.1-3.33-1.22-1.22-2.3-2.52-3.29-3.83-1.99-2.61-3.67-5.23-5.39-7.56-1.71-2.34-3.46-4.4-5.34-5.98-1.89-1.56-3.8-2.74-5.61-3.45-1.81-.73-3.48-1.04-4.85-1.08-2.77-.1-4.19,.72-4.21,.6,0,0,.08-.05,.26-.11l.78-.28c.35-.1,.8-.19,1.32-.3,.53-.05,1.15-.15,1.85-.12,1.39,.01,3.1,.3,4.95,1.02,1.85,.7,3.81,1.88,5.74,3.44,1.93,1.58,3.73,3.66,5.45,6.01,1.75,2.33,3.44,4.94,5.42,7.53,.99,1.29,2.06,2.57,3.27,3.77,1.2,1.21,2.56,2.27,4.02,3.26,1.48,.96,3.09,1.76,4.78,2.44,1.71,.63,3.49,1.14,5.33,1.44,3.69,.59,7.41,.44,10.82-.43,3.44-.82,6.45-2.51,9.17-4.29,2.72-1.79,5.23-3.64,7.77-5.1,2.52-1.47,5.09-2.52,7.54-2.99,4.92-.98,9.03-.14,11.63,.75,1.32,.44,2.29,.92,2.94,1.26,.3,.17,.53,.3,.72,.41,.16,.1,.24,.15,.24,.16Z"/><path class="cls-6" d="M273.88,119.95s.08,.44,.1,1.24c.02,.8-.03,1.96-.27,3.37-.25,1.41-.75,3.07-1.59,4.77-.83,1.71-1.97,3.46-3.3,5.19-2.71,3.47-6.1,5.73-8.68,6.93-1.29,.61-2.39,.99-3.16,1.21-.77,.22-1.2,.3-1.21,.27-.03-.1,1.69-.53,4.2-1.81,2.5-1.27,5.78-3.53,8.43-6.92,1.31-1.7,2.45-3.42,3.28-5.08,.84-1.65,1.37-3.25,1.66-4.63,.57-2.76,.42-4.54,.53-4.54Z"/><path class="cls-6" d="M285.97,167.69s-.14-.06-.38-.21c-.23-.16-.61-.36-1.03-.71-.87-.65-2.04-1.74-3.21-3.31-2.38-3.1-4.43-8.36-4.47-14.35-.03-5.98,1.46-11.23,2.58-14.92,.57-1.85,1.08-3.34,1.45-4.36,.36-1.02,.58-1.58,.62-1.57,.03,.01-.12,.59-.42,1.63-.33,1.12-.76,2.61-1.29,4.4-1.03,3.71-2.44,8.93-2.41,14.81,.04,5.88,2,11.05,4.25,14.14,2.24,3.15,4.42,4.34,4.33,4.45Z"/><path class="cls-6" d="M309.55,122.89s-.32,.22-.96,.53c-.63,.31-1.57,.72-2.75,1.15-2.35,.86-5.79,1.83-9.69,1.65-3.9-.18-7.25-1.7-9.22-3.3-.99-.79-1.69-1.56-2.11-2.13-.42-.57-.6-.92-.58-.93,.09-.07,.9,1.3,2.91,2.77,1.97,1.48,5.23,2.89,9.02,3.07,3.79,.17,7.18-.71,9.54-1.48,2.37-.78,3.79-1.41,3.83-1.33Z"/><path class="cls-6" d="M160.76,144.97c-.09,.02-.5-1.56-1.43-4.02-.93-2.46-2.46-5.77-4.68-9.1-2.23-3.33-4.69-6.02-6.6-7.82-1.91-1.8-3.22-2.79-3.16-2.86,.02-.03,.36,.19,.97,.62,.61,.42,1.45,1.09,2.44,1.97,1.99,1.74,4.53,4.43,6.79,7.8,2.25,3.38,3.75,6.76,4.59,9.27,.42,1.26,.72,2.29,.88,3.01,.16,.72,.24,1.12,.2,1.13Z"/><path class="cls-6" d="M172.45,146.69s-.08,.19-.27,.53c-.18,.35-.5,.82-.95,1.42-.92,1.16-2.5,2.7-4.86,3.96-2.34,1.28-5.38,2.3-8.84,2.89-3.46,.6-7.3,.83-11.26,1.47-1.97,.34-3.89,.76-5.66,1.4-1.77,.63-3.4,1.45-4.85,2.39-2.92,1.87-5.07,4.2-6.6,6.32-1.51,2.14-2.4,4.09-2.92,5.46-.53,1.37-.71,2.17-.77,2.15-.02,0,.02-.2,.11-.58,.08-.38,.23-.94,.47-1.64,.47-1.4,1.32-3.4,2.81-5.6,1.51-2.18,3.68-4.58,6.64-6.51,1.47-.97,3.13-1.81,4.94-2.46,1.81-.65,3.75-1.09,5.74-1.43,4-.65,7.83-.86,11.26-1.43,3.42-.56,6.43-1.52,8.74-2.74,2.33-1.2,3.92-2.66,4.87-3.76,.94-1.12,1.32-1.86,1.37-1.82Z"/><path class="cls-6" d="M193.79,149.44s.16,.34,.35,.98c.2,.64,.41,1.59,.59,2.78,.19,1.19,.28,2.62,.26,4.22-.05,1.59-.23,3.34-.62,5.14-.4,1.8-.97,3.46-1.6,4.92-.65,1.46-1.33,2.72-2,3.72-.66,1-1.25,1.78-1.7,2.28-.44,.5-.7,.77-.73,.75-.08-.06,.89-1.19,2.12-3.22,.62-1.01,1.26-2.27,1.87-3.71,.59-1.45,1.13-3.09,1.53-4.85,.38-1.77,.57-3.48,.65-5.04,.05-1.56,0-2.98-.14-4.15-.26-2.36-.67-3.78-.57-3.81Z"/><path class="cls-6" d="M256.12,164.6c-.07,.16-2.86-1.48-6.72-1.92-3.86-.49-6.96,.45-6.99,.28-.02-.06,.72-.37,2-.63,1.27-.26,3.08-.41,5.05-.18,1.97,.24,3.7,.81,4.87,1.36,1.18,.55,1.82,1.03,1.79,1.08Z"/></g><g><polygon class="cls-7" points="302.75 64.25 292.69 89.22 311.63 97.7 316.48 76.46 302.75 64.25"/><path class="cls-11" d="M324.47,88.9l-17.03-21.1h0c-3.42-4.75-8.89-12.38-9.14-13.03-.35-.95-.48-7.83-.33-9.55s-.43-6.65-.43-6.65l-14.01,5.31-2.95-10.75-1.91,.6s-5.07,8.77-3.51,13.77,8.2,7.24,9.84,8.26c1.65,1.02,7.86,3.69,14.89,14.3l1.13,1.64h0l2.85,4.13h0l12.98,18.7c1.5,2.08,4.39,2.57,6.5,1.12,2.22-1.53,2.71-4.6,1.08-6.75Z"/><g><g><path class="cls-11" d="M291.08,41.03l-3.66-10.32,1.33-.43s6.45,3.95,7.85,8.65l-5.51,2.09Z"/><path class="cls-12" d="M287.18,54.66s.06-.02,.16-.07c.11-.05,.26-.12,.44-.2,.4-.18,.95-.43,1.65-.75,1.43-.65,3.46-1.58,5.96-2.71l-.14-.1c-.03,.59-.04,1.2,0,1.84,.06,.63,.11,1.31,.44,1.94,.69,1.18,1.53,2.34,2.39,3.58,1.73,2.46,3.65,5.11,5.68,7.88,.29,.37,.52,.72,.58,1.16,.06,.42,0,.86-.21,1.23-.4,.75-1.31,1.16-2.11,.97-.4-.08-.76-.3-1.04-.59-.25-.31-.51-.68-.75-1.01-.5-.67-.99-1.34-1.46-1.98-1.91-2.57-3.62-4.89-5.07-6.84-.35-.5-.82-.89-1.25-1.22-.44-.33-.87-.62-1.27-.88-.81-.52-1.53-.94-2.12-1.27-.59-.33-1.06-.58-1.37-.75l-.36-.18c-.08-.04-.12-.05-.13-.05,0,0,.04,.03,.12,.08,.09,.05,.21,.12,.35,.21,.33,.19,.78,.46,1.35,.79,.58,.35,1.29,.78,2.09,1.31,.4,.27,.82,.56,1.25,.89,.43,.34,.86,.7,1.2,1.19,1.43,1.96,3.13,4.29,5.02,6.88,.47,.65,.96,1.31,1.45,1.99,.26,.34,.48,.68,.77,1.03,.31,.34,.72,.58,1.18,.68,.91,.21,1.95-.24,2.4-1.1,.23-.42,.32-.92,.25-1.4-.06-.49-.36-.93-.63-1.28-2.03-2.76-3.96-5.41-5.69-7.86-.86-1.23-1.71-2.4-2.39-3.54-.3-.57-.36-1.24-.43-1.85-.05-.62-.05-1.23-.02-1.81v-.17l-.14,.07c-2.51,1.2-4.54,2.18-5.98,2.86-.68,.33-1.22,.59-1.6,.77-.17,.08-.3,.15-.41,.2-.09,.04-.13,.07-.13,.07Z"/></g><g><g class="cls-14"><polygon points="285.87 49.63 292.16 47.3 292.12 43.78 285.78 46.21 285.87 49.63"/></g><path class="cls-12" d="M290.78,43.58c-.15,0-.26,1.16-.24,2.6,.02,1.43,.15,2.59,.3,2.59,.15,0,.26-1.16,.24-2.6-.02-1.43-.15-2.59-.3-2.59Z"/><path class="cls-12" d="M288.87,44.28c-.15,0-.26,1.16-.24,2.6,.02,1.43,.15,2.59,.3,2.59,.15,0,.26-1.16,.24-2.6-.02-1.43-.15-2.59-.3-2.59Z"/><path class="cls-12" d="M287.05,44.72c-.15,0-.26,1.16-.24,2.6,.02,1.43,.15,2.59,.3,2.59,.15,0,.26-1.16,.24-2.6-.02-1.43-.15-2.59-.3-2.59Z"/></g></g><path class="cls-7" d="M293.34,87.62l.68-4.89,.47-12.97-.5-9.09s3.04,.23,4.66,4.15c1.64,3.97,1.71,9.91,1.71,9.91,0,0,12.69,5,8.22,16.97"/><g><path class="cls-7" d="M310.53,67.79c.06-1.01-.04-2.08-.58-2.93-.61-.97-1.71-1.55-2.83-1.76s-1.97-.23-3.1-.04l2.39,3.33c-.54,2.26-.77,3.78-1.06,6.09-.13,1.06-.12,2.36,.79,2.91,.74,.45,1.76,.11,2.34-.54,.58-.64,.84-1.51,1.07-2.35,.44-1.54,.88-3.1,.97-4.71Z"/><path class="cls-7" d="M314.12,71.64c.06-1.01-.04-2.08-.58-2.93-.61-.97-1.71-1.55-2.83-1.76-1.13-.21-1.97-.23-3.1-.04l2.39,3.33c-.54,2.26-.77,3.78-1.06,6.09-.13,1.06-.12,2.36,.79,2.91,.74,.45,1.76,.11,2.34-.54,.58-.64,.84-1.51,1.08-2.35,.44-1.54,.88-3.1,.97-4.71Z"/><path class="cls-7" d="M317.88,75.43c.06-1.01-.04-2.08-.58-2.93-.61-.97-1.71-1.55-2.83-1.76-1.13-.21-1.97-.23-3.1-.04l2.39,3.33c-.54,2.26-.77,3.78-1.06,6.09-.13,1.06-.12,2.36,.79,2.91,.74,.45,1.76,.11,2.34-.54,.58-.64,.84-1.51,1.08-2.35,.44-1.54,.88-3.1,.97-4.71Z"/><path class="cls-3" d="M310.27,65.43c.13-.03,.55,1.97,.19,4.44-.34,2.47-1.3,4.27-1.42,4.21-.14-.06,.57-1.9,.9-4.28,.35-2.38,.17-4.35,.32-4.36Z"/><path class="cls-3" d="M314.11,70.65c.13-.03,.48,1.76,.02,3.92-.45,2.16-1.5,3.65-1.6,3.58-.14-.07,.67-1.62,1.09-3.68,.45-2.06,.34-3.8,.49-3.81Z"/></g><path class="cls-3" d="M298.89,65.43c.05,0,.25,.96,.55,2.62,.29,1.66,.68,4.01,1.12,6.77l-.16-.19c1.7,.57,3.44,1.58,4.94,3,1.57,1.47,2.67,3.26,3.34,4.98,.69,1.72,.97,3.4,1,4.79,.04,1.4-.14,2.52-.3,3.28-.16,.76-.31,1.16-.34,1.16-.12-.02,.41-1.69,.27-4.42-.08-1.36-.39-2.97-1.08-4.63-.68-1.66-1.74-3.36-3.25-4.78-1.44-1.37-3.11-2.35-4.74-2.92l-.14-.05-.02-.14c-.4-2.77-.72-5.13-.93-6.8-.21-1.67-.31-2.65-.25-2.66Z"/><path class="cls-12" d="M297.55,38.58s-.07,.04-.22,.1c-.2,.07-.41,.15-.64,.24-.67,.25-1.45,.54-2.36,.88-2.12,.81-4.8,1.83-7.76,2.95-2.96,1.14-5.63,2.16-7.75,2.98-.9,.34-1.69,.63-2.36,.89-.23,.08-.44,.16-.64,.23-.15,.05-.23,.07-.23,.07s.07-.04,.21-.11c.2-.08,.4-.17,.63-.27,.66-.27,1.44-.58,2.33-.95,1.97-.79,4.7-1.87,7.73-3.03,3.03-1.16,5.78-2.19,7.78-2.9,1-.35,1.82-.63,2.38-.81,.23-.07,.45-.14,.65-.2,.15-.04,.23-.06,.23-.06Z"/></g><g><g><path class="cls-7" d="M210.7,154.95s12.46-3.42,14.59-3.49c1.63-.06,11.09,1.55,15.43,2.3,1.67,.29,2.94,1.83,2.67,3.5-.02,.11-.04,.21-.08,.3-.61,1.72-2.4,1.84-2.4,1.84,0,0,2.16,.99,1.82,3.46-.34,2.47-3.4,2.53-3.4,2.53,0,0,.16,.16,.37,.44,1.38,1.87,.13,4.54-2.19,4.71l-1.39,.1s1.7,1.03,1.42,2.72c-.54,3.23-7.92,2.74-7.92,2.74l-19.82-.38,.9-20.78Z"/><path class="cls-7" d="M239.63,149.67c-.24,1.06-.84,3.29-2.81,4.04l-9.97-1.92s7.86-1.44,9.12-2.55c.44-.39,1.04-.87,1.65-1.18,1.06-.55,2.28,.45,2.02,1.61Z"/></g><path class="cls-3" d="M231.58,152.41c-.03,.17,1.99,.68,4.53,1.02,2.53,.34,4.59,.56,4.62,.37,.03-.17-1.99-.68-4.53-1.02-2.53-.34-4.59-.56-4.62-.37Z"/><path class="cls-3" d="M232.98,158.36c-.04,.17,1.68,.75,3.89,1.01,2.22,.26,4.02,.09,4.02-.09,0-.19-1.78-.31-3.95-.56-2.17-.25-3.92-.54-3.97-.35Z"/><path class="cls-3" d="M227.99,156.86c-.16,.07-.05,.64,.46,1.1,.51,.45,1.09,.49,1.14,.32,.06-.18-.31-.46-.71-.81-.4-.35-.73-.69-.89-.61Z"/><path class="cls-3" d="M230.91,164.54c-.01,.18,1.91,.56,4.3,.84,2.39,.28,4.34,.37,4.37,.19s-1.89-.56-4.3-.84c-2.4-.29-4.36-.37-4.37-.19Z"/><path class="cls-3" d="M225.58,160.99c-.08-.04-.26,.14-.37,.53-.11,.38-.1,.98,.21,1.53,.31,.55,.83,.87,1.21,.97,.39,.11,.64,.04,.65-.05,.03-.18-.82-.42-1.28-1.24-.47-.82-.24-1.68-.41-1.74Z"/><path class="cls-3" d="M228.45,170.54c0,.18,1.75,.38,3.92,.44,2.17,.06,3.94-.04,3.94-.22,0-.18-1.75-.38-3.92-.44-2.17-.06-3.94,.04-3.94,.22Z"/><path class="cls-3" d="M223.33,166.52c-.08-.02-.24,.18-.29,.57-.05,.39,.04,.94,.33,1.44,.6,1,1.37,1.45,1.48,1.34,.15-.13-.42-.82-.91-1.66-.5-.84-.45-1.64-.62-1.69Z"/></g><g><path class="cls-12" d="M171.74,56.41c-.4-3.2-3.92-5.46-7.11-4.98-3.19,.48-5.76,3.2-6.64,6.3-.88,3.1-.27,6.48,1.05,9.42,1.04,2.32,2.76,4.61,5.25,5.12,2.28,.47,4.65-.73,6.2-2.47,1.55-1.74,2.44-3.95,3.3-6.12l-2.05-7.28Z"/><path class="cls-8" d="M175.8,55.71c-1-.66-2.44-.22-3.2,.71-.76,.92-.98,2.18-1.01,3.38-.05,1.99,.33,3.99,1.12,5.81,.24,.55,.57,1.14,1.14,1.31,.55,.17,1.16-.12,1.52-.56s.54-1.01,.67-1.57c.8-3.32,.63-6.87-.49-10.1"/><path class="cls-8" d="M232.46,40.27c5.63-2.76,8.85-5.6,8.38-7.93-.47-2.33-11.78-5.94-14.43-6.92-6.25-2.32-12.16,3.2-22.03,5.18-19.17,3.85-33.93,10.87-32.96,15.68,.47,2.32,4.5,3.7,10.7,4.08"/><g class="cls-15"><path d="M229.11,40.77c4.99-2.44,7.98-5,7.43-7.03-1.52-5.66-15.32-4.95-32.32-1.54-16.99,3.41-30.07,9.63-29.22,13.89,.41,2.05,3.99,3.28,9.48,3.61"/></g><g><g><path class="cls-7" d="M184.52,47.94c-2.38-13.23,6.6-25.92,20.06-27.93,12.68-1.9,24.52,6.99,27.11,19.55,2.27,11.01,4.31,22.14,4.47,26.21,.5,12.28-6.43,17.44-9.26,19.03-.65,.36-2.46,.83-3.19,.98h0s-.07,.05-.06,.1l3.48,13.94c1.73,9.16-2.98,17.67-12.13,19.51-9.17,1.84-16.78-4.86-18.69-14.02l-11.8-57.37Z"/><g><path class="cls-12" d="M227.94,47.21c.24,1-.41,2.03-1.46,2.3-1.04,.27-2.08-.33-2.32-1.33-.24-1,.41-2.04,1.46-2.3,1.04-.27,2.08,.33,2.32,1.33Z"/><path class="cls-12" d="M229.04,43.04c-.19,.3-1.85-.48-3.91-.07-2.06,.39-3.36,1.75-3.64,1.55-.13-.09,.02-.59,.58-1.2,.55-.61,1.57-1.29,2.85-1.55,1.29-.25,2.46,0,3.18,.36,.73,.36,1.04,.77,.94,.9Z"/></g><g><path class="cls-12" d="M207.68,51.28c.24,1-.41,2.03-1.46,2.3-1.04,.27-2.08-.33-2.32-1.33-.24-1,.41-2.04,1.46-2.3,1.04-.27,2.08,.33,2.32,1.33Z"/><path class="cls-12" d="M208.86,47.49c-.19,.3-1.86-.48-3.92-.07-2.06,.39-3.36,1.75-3.64,1.55-.13-.09,.02-.59,.58-1.2,.55-.61,1.56-1.29,2.85-1.55,1.29-.25,2.46,0,3.18,.36,.73,.36,1.04,.77,.94,.9Z"/></g><path class="cls-12" d="M219.41,61.28c-.03-.12,1.2-.59,3.23-1.28,.52-.16,.99-.36,1.01-.74,.05-.41-.29-.93-.66-1.49-.75-1.17-1.54-2.41-2.36-3.7-3.31-5.27-5.81-9.65-5.6-9.78,.21-.13,3.07,4.04,6.38,9.31,.8,1.3,1.57,2.54,2.3,3.73,.32,.56,.8,1.17,.69,2.01-.06,.42-.39,.78-.71,.94-.32,.17-.61,.24-.87,.3-2.07,.53-3.36,.8-3.39,.69Z"/><path class="cls-3" d="M223.64,85.8s-7.83,2.25-18.98-1.73c0,0,5.25,9.89,19.92,5.49l-.94-3.76Z"/><path class="cls-3" d="M219.53,66.42c-.94-.83-2.35-1.11-3.61-.71-.88,.28-1.69,.89-2.09,1.73-.4,.84-.3,1.89,.33,2.49,.71,.67,1.91,.62,2.84,.14s1.64-1.29,2.32-2.1c.19-.22,.38-.45,.47-.73,.09-.27,.05-.6-.16-.77"/><path class="cls-12" d="M213.63,63.92c.33-.09,.78,2.15,3.02,3.35,2.23,1.21,4.57,.48,4.65,.79,.06,.13-.44,.54-1.44,.77-.98,.23-2.49,.2-3.85-.53-1.36-.74-2.13-1.94-2.39-2.84-.27-.92-.14-1.52,.02-1.54Z"/></g><path class="cls-12" d="M208.32,40.84c-.09,.6-2.2,.75-4.56,1.53-2.38,.73-4.18,1.83-4.61,1.39-.19-.21,.04-.81,.72-1.51,.67-.7,1.82-1.46,3.24-1.92,1.42-.45,2.8-.49,3.75-.31,.96,.18,1.5,.53,1.46,.81Z"/><path class="cls-12" d="M227.22,37.88c-.27,.54-1.79,.34-3.5,.66-1.72,.26-3.09,.95-3.52,.53-.19-.21-.06-.72,.48-1.29,.53-.57,1.5-1.14,2.68-1.34,1.18-.2,2.28,.02,2.97,.38,.7,.36,1,.8,.88,1.06Z"/></g><path class="cls-12" d="M213.5,28.23c-1.53,3.63-4.77,6.5-8.56,7.57-2.49,.71-5.45,.84-7.03,2.89-1.15,1.5-1.15,3.54-1.42,5.41-.41,2.84,.32,6.12-1.86,8-1.7,1.47-3.3,1.43-4.34,3.42-1.1,2.1-.84,4.8-.41,7.13,.43,2.33,.97,6.05-.92,7.48-1.77-8.44-6.34-17.47-8.11-25.92-.26-1.26-.53-2.55-.31-3.82,.49-2.86,3.23-4.72,5.83-6.02,7.35-3.68,15.44-5.57,23.45-7.43"/><g><path class="cls-8" d="M235.61,31.04s-9.06-19.41-9.69-20.32c-.62-.91-8.23-8.68-22.65-8.44l-11.49,2.31s-15.26,8.52-17.44,13.09c-2.18,4.57,.42,24.12,.42,24.12l30.81-13.47,22.98,.94,7.05,1.77Z"/><path class="cls-8" d="M199.05,.7l3.17-.64c1.3-.26,2.64,.26,3.38,1.35,.5,.74,1.02,1.75,1.38,3.09,.95,3.53,6.67,27.87,6.67,27.87l-14.53,2.24-5.62-30.36-4.67,2.07-.1-.91c-.06-.55,.05-1.1,.32-1.58h0c.37-.67,1.01-1.15,1.75-1.31l8.24-1.82Z"/><path class="cls-11" d="M231.98,33.89l-2.94-6.79-23.93-2.48-25.47,13.41,1.6,7.98s20.95-13.69,50.73-12.12Z"/><path class="cls-8" d="M226.41,25.42l1.14,.73,8.74,4.15s-15.78-2.02-31.26,1.26c-15.48,3.28-32.17,12.08-32.17,12.08l9.03-8.24h0c2.56-4.15,6.69-7.08,11.45-8.13l19.39-4.29c4.7-1.04,9.62-.16,13.67,2.45Z"/><path class="cls-12" d="M234.13,31.03s-.18-.14-.57-.33c-.38-.21-.97-.44-1.76-.67-1.57-.46-3.92-.85-6.84-.94-5.82-.17-13.93,.6-22.45,3.14-4.25,1.18-8.35,2.22-11.99,3.51-3.64,1.33-6.77,2.74-9.39,4.04-1.3,.66-2.45,1.31-3.43,1.93-.98,.6-1.82,1.26-2.26,2-.44,.74-.47,1.45-.38,1.88,.1,.44,.26,.62,.28,.61,.09,.02-.5-.96,.38-2.3,.43-.64,1.23-1.21,2.22-1.77,.99-.57,2.14-1.18,3.45-1.8,2.61-1.2,5.81-2.57,9.38-3.83,3.61-1.23,7.69-2.25,11.96-3.43,8.45-2.52,16.45-3.37,22.21-3.36,2.88,0,5.2,.3,6.76,.65,1.58,.33,2.37,.76,2.42,.67Z"/></g><path class="cls-12" d="M231.88,33.67c2.77,6.19,12.43,15,3.17,23.55,0,0-2.92-14.02-5.16-19.23-.66-1.53-1.42-3.12-2.68-4.22"/><path class="cls-12" d="M184.39,45.25c-6.35,.96-11.19,7.75-10.02,14.07,.3,1.65,.96,3.28,.79,4.95-.16,1.63-1.08,3.08-1.49,4.66-.81,3.14-.96,8.32,.11,11.38,2.54,7.3,11.8,16.3,20.19,14.62"/><path class="cls-12" d="M190.6,88.93c1.72,.43,3.59-.26,4.88-1.47,1.3-1.21,2.09-2.87,2.59-4.57,1.62-5.46,.36-11.69-3.25-16.09,4.23-7.48,4.36-17.12,.32-24.71l-11.77,3.48,7.23,43.35Z"/><path class="cls-11" d="M171.87,63.6s-.54,.84-1.87,1.68c-1.31,.83-3.48,1.61-5.9,1.29-2.41-.29-4.37-1.51-5.41-2.68-1.08-1.19-1.2-2.24-1.14-2.23,.08-.04,.32,.93,1.41,1.98,1.06,1.04,2.94,2.14,5.21,2.42,2.28,.3,4.34-.37,5.65-1.09,1.32-.73,1.99-1.43,2.05-1.36Z"/><path class="cls-11" d="M170.97,62.02c.02,.05-.73,.47-2.07,.74-1.33,.28-3.3,.34-5.31-.31-2.02-.65-3.57-1.85-4.49-2.85-.93-1.01-1.3-1.79-1.25-1.82,.07-.05,.54,.65,1.51,1.56,.96,.91,2.47,2,4.39,2.62,1.92,.62,3.79,.62,5.09,.44,1.32-.17,2.1-.46,2.13-.38Z"/><path class="cls-11" d="M196.5,45.34s.03,.43-.06,1.18c-.09,.76-.31,1.85-.75,3.14-.86,2.58-2.84,6.02-6.24,8.53-3.41,2.51-7.28,3.39-10,3.45-1.37,.04-2.48-.07-3.23-.21-.75-.13-1.16-.26-1.15-.29,.01-.11,1.67,.3,4.36,.13,2.66-.15,6.4-1.07,9.7-3.5,3.3-2.44,5.28-5.74,6.2-8.24,.96-2.52,1.06-4.22,1.16-4.2Z"/><path class="cls-11" d="M196.85,62.97s-.17,.28-.58,.7c-.41,.42-1.07,.96-1.97,1.5-1.79,1.1-4.66,1.99-7.87,1.99-3.21,0-6.03-.71-8.03-1.24-1-.27-1.8-.52-2.35-.7-.55-.18-.85-.3-.84-.33,.02-.07,1.27,.22,3.28,.68,2.01,.44,4.81,1.07,7.94,1.08,3.12,0,5.9-.8,7.69-1.79,1.81-.97,2.67-1.95,2.74-1.87Z"/><path class="cls-12" d="M236.12,29.03s-.24-.05-.69-.2c-.49-.17-1.14-.39-1.95-.67-1.74-.62-4.16-1.49-7.13-2.56h-.03l-.03-.04c-.59-.53-1.2-1.08-1.84-1.65-.65-.57-1.27-1.2-2.06-1.62-.78-.44-1.68-.72-2.63-.8-.95-.11-1.92,.11-2.95,.27-4.09,.69-8.55,1.64-13.21,2.72-4.34,1.01-8.47,2.03-12.25,3-.96,.23-1.84,.47-2.61,.96-.77,.46-1.42,1.08-1.92,1.76-.92,1.44-1.74,2.91-2.53,4.2l-.02,.04-.03,.02c-2.88,2.13-5.24,3.88-6.93,5.12-.79,.57-1.43,1.03-1.9,1.37-.44,.31-.68,.46-.69,.45-.01-.02,.2-.2,.62-.54,.46-.37,1.08-.85,1.84-1.46,1.66-1.28,3.98-3.07,6.82-5.26l-.05,.06c.78-1.32,1.55-2.74,2.5-4.26,.53-.74,1.21-1.4,2.03-1.9,.81-.52,1.8-.81,2.73-1.03,3.78-.99,7.91-2.03,12.26-3.04,4.67-1.08,9.14-2.02,13.25-2.68,1.01-.15,2.05-.37,3.07-.25,1.01,.1,1.97,.41,2.8,.88,.84,.46,1.49,1.13,2.12,1.7,.63,.58,1.24,1.14,1.82,1.67l-.06-.04c2.94,1.13,5.35,2.05,7.07,2.71l1.91,.76c.44,.18,.66,.28,.65,.3Z"/><path class="cls-12" d="M197.46,25.66s-.14-.35-.29-.99c-.15-.64-.35-1.58-.59-2.73-.47-2.31-1.09-5.51-1.75-9.05-.32-1.76-.62-3.44-.9-4.99-.13-.76-.26-1.49-.38-2.18-.07-.59-.7-.92-1.17-.76-1,.41-1.86,.75-2.57,1.04-.62,.24-.96,.35-.98,.32-.01-.03,.3-.21,.9-.51,.6-.3,1.43-.71,2.54-1.21,.65-.26,1.58,.19,1.71,1.03,.13,.69,.28,1.41,.42,2.17,.29,1.55,.61,3.23,.94,4.99,.65,3.54,1.21,6.75,1.6,9.08,.19,1.16,.34,2.11,.42,2.76,.09,.65,.12,1.02,.09,1.03Z"/><path class="cls-12" d="M211.34,22.58c-.06,.02-.5-1.07-1.04-2.89-.55-1.82-1.19-4.36-1.85-7.17-.67-2.81-1.24-5.37-1.63-7.22-.39-1.85-.6-3.01-.53-3.03,.07-.02,.4,1.11,.89,2.94,.48,1.83,1.11,4.37,1.78,7.18,.64,2.73,1.23,5.2,1.7,7.2,.45,1.84,.76,2.97,.69,2.99Z"/><path class="cls-12" d="M235.89,62.77c-.03-.13,2.46,.16,5.94-1.43,1.7-.78,3.69-2.02,5.13-4.03,1.45-1.99,1.89-4.92,1.25-7.68-.64-2.79-2.39-5.12-4.51-6.38-2.14-1.27-4.38-1.84-6.12-2.68-1.76-.8-3.02-1.8-3.71-2.64-.35-.42-.56-.79-.69-1.04-.12-.26-.17-.4-.16-.4,.04-.03,.29,.53,1,1.31,.71,.78,1.96,1.7,3.71,2.44,1.72,.78,3.97,1.31,6.22,2.6,2.25,1.29,4.11,3.75,4.77,6.67,.67,2.9,.2,5.96-1.37,8.08-1.55,2.11-3.61,3.33-5.37,4.09-1.78,.76-3.34,1.04-4.42,1.12-.54,.03-.96,.04-1.24,.02-.28-.02-.43-.03-.43-.05Z"/><path class="cls-12" d="M161.02,58.78s-.09-.05-.23-.17c-.14-.12-.33-.32-.55-.6-.43-.56-.93-1.49-1.14-2.75-.19-1.25-.08-2.86,.8-4.34,.85-1.5,2.57-2.63,4.51-2.92,1.94-.29,3.92,.28,5.18,1.46,1.28,1.16,1.86,2.67,2.05,3.91,.17,1.27-.03,2.31-.27,2.97-.13,.33-.24,.58-.34,.73-.09,.16-.15,.24-.17,.23-.05-.02,.14-.36,.32-1.02,.18-.65,.31-1.65,.1-2.85-.22-1.18-.81-2.57-2-3.62-1.17-1.06-2.98-1.57-4.78-1.3-1.8,.28-3.38,1.3-4.18,2.66-.83,1.35-.98,2.86-.84,4.05,.16,1.2,.57,2.12,.94,2.69,.36,.58,.64,.85,.61,.88Z"/><path class="cls-12" d="M192.14,93.32s-.14,.07-.42,.15c-.28,.08-.69,.19-1.23,.32-1.08,.24-2.65,.57-4.63,.69-1.97,.11-4.42,0-6.88-1.06-2.46-1.03-4.7-3.14-6.18-5.82-1.48-2.68-2.09-5.62-2.09-8.25-.02-2.64,.48-4.98,1.03-6.88,.56-1.9,1.18-3.38,1.64-4.39,.23-.5,.42-.89,.56-1.14,.14-.26,.22-.39,.23-.38,.04,.02-.2,.58-.61,1.6-.4,1.02-.97,2.51-1.47,4.41-.5,1.89-.94,4.2-.9,6.78,.03,2.57,.63,5.41,2.06,8.01,1.43,2.59,3.56,4.62,5.91,5.63,2.35,1.04,4.73,1.2,6.67,1.14,1.95-.07,3.53-.34,4.61-.52,1.08-.19,1.68-.31,1.69-.27Z"/><path class="cls-12" d="M170.81,68.63s-.03,.17-.12,.48c-.11,.3-.3,.74-.64,1.26-.67,1.01-2.03,2.36-4.19,2.98-1.06,.32-2.32,.42-3.61,.16-1.29-.25-2.6-.85-3.76-1.76-1.15-.91-2.17-2.13-2.86-3.57-.69-1.45-1.05-3.1-1.06-4.79-.01-3.39,1.24-6.55,3.12-8.8,1.86-2.27,4.5-3.51,6.74-3.42,2.24,.04,3.92,1.01,4.77,1.88,.88,.88,1.07,1.57,1.07,1.57-.06,.04-.31-.62-1.21-1.42-.87-.8-2.5-1.66-4.64-1.66-2.13-.04-4.6,1.16-6.37,3.36-1.78,2.17-2.98,5.23-2.97,8.49,.01,1.62,.35,3.2,1,4.58,.65,1.38,1.61,2.54,2.7,3.42,1.1,.87,2.33,1.46,3.54,1.71,1.22,.26,2.4,.19,3.42-.09,2.07-.55,3.42-1.8,4.12-2.74,.7-.97,.87-1.64,.93-1.62Z"/></g></g><g><g><g><rect class="cls-11" x="116.61" y="176.72" width="354.59" height="234.49" rx="14.57" ry="14.57"/><path class="cls-11" d="M102.75,396.06H486.93v2.72c0,9.82-7.97,17.8-17.8,17.8H120.55c-9.82,0-17.8-7.97-17.8-17.8v-2.72h0Z"/><rect class="cls-12" x="126.13" y="186.03" width="334.56" height="198.02"/><polygon class="cls-12" points="258.95 393.86 263.72 401.45 330.8 401.45 335.23 393.86 258.95 393.86"/></g><g><path class="cls-2" d="M136.29,192.74H451.22c1.81,0,3.27,1.47,3.27,3.27v184.14c0,1.81-1.47,3.27-3.27,3.27H136.29c-1.81,0-3.27-1.47-3.27-3.27V196.01c0-1.81,1.47-3.27,3.27-3.27Z"/><polygon class="cls-6" points="454.15 383.7 132.68 383.7 133.02 206.99 454.15 206.99 454.15 383.7"/><path class="cls-12" d="M159.39,200.1c0,1.42-1.15,2.57-2.57,2.57s-2.57-1.15-2.57-2.57,1.15-2.57,2.57-2.57,2.57,1.15,2.57,2.57Z"/><path class="cls-12" d="M143.83,200.1c0,1.42-1.15,2.57-2.57,2.57s-2.57-1.15-2.57-2.57,1.15-2.57,2.57-2.57,2.57,1.15,2.57,2.57Z"/><path class="cls-12" d="M151.3,200.1c0,1.42-1.15,2.57-2.57,2.57s-2.57-1.15-2.57-2.57,1.15-2.57,2.57-2.57,2.57,1.15,2.57,2.57Z"/></g><path class="cls-12" d="M468.16,393.86c0,.13-78.7,.23-175.76,.23s-175.78-.1-175.78-.23,78.69-.23,175.78-.23,175.76,.1,175.76,.23Z"/></g><path class="cls-10" d="M334.79,349.21c0,.14-19.28,.26-43.06,.26s-43.06-.12-43.06-.26,19.28-.26,43.06-.26,43.06,.12,43.06,.26Z"/><g><rect class="cls-4" x="140.46" y="303.93" width="95.93" height="72.1"/><polygon class="cls-10" points="140.49 376.07 173.95 331.22 194.73 359.25 208.8 344.24 236.42 375.99 140.49 376.07"/><path class="cls-10" d="M203.52,325.71c0,4.17-3.37,7.56-7.55,7.56-4.17,0-7.56-3.37-7.56-7.55,0-4.17,3.37-7.56,7.55-7.56,4.17,0,7.56,3.37,7.56,7.55Z"/></g><g><rect class="cls-4" x="347.44" y="304.03" width="95.93" height="72.1"/><polygon class="cls-10" points="347.47 376.18 380.94 331.33 401.72 359.35 415.79 344.35 443.41 376.09 347.47 376.18"/><path class="cls-10" d="M410.5,325.81c0,4.17-3.38,7.56-7.55,7.56-4.17,0-7.56-3.37-7.56-7.55,0-4.17,3.37-7.56,7.55-7.56,4.17,0,7.56,3.37,7.56,7.55Z"/></g><g><path class="cls-10" d="M428.19,289.7c0-.07,1.03-.14,2.69-.18,1.66-.05,3.96-.08,6.49-.08,.99,0,1.93,0,2.82,.01l-.25,.25c.02-1.85,.05-3.44,.09-4.57s.1-1.79,.15-1.79,.11,.67,.15,1.79c.04,1.13,.08,2.72,.09,4.57v.25h-.25c-.89,0-1.84,0-2.82,.01-2.53,0-4.83-.03-6.49-.08-1.66-.05-2.69-.11-2.69-.18Z"/><path class="cls-10" d="M404.19,289.7c0-.14,2.69-.26,6-.26s6,.12,6,.26-2.69,.26-6,.26-6-.12-6-.26Z"/><path class="cls-10" d="M380.19,289.7c0-.14,2.69-.26,6-.26s6,.12,6,.26-2.69,.26-6,.26-6-.12-6-.26Z"/><path class="cls-10" d="M356.19,289.7c0-.14,2.69-.26,6-.26s6,.12,6,.26-2.69,.26-6,.26-6-.12-6-.26Z"/><path class="cls-10" d="M332.19,289.7c0-.14,2.69-.26,6-.26s6,.12,6,.26-2.69,.26-6,.26-6-.12-6-.26Z"/><path class="cls-10" d="M308.19,289.7c0-.14,2.69-.26,6-.26s6,.12,6,.26-2.69,.26-6,.26-6-.12-6-.26Z"/><path class="cls-10" d="M284.19,289.7c0-.14,2.69-.26,6-.26s6,.12,6,.26-2.69,.26-6,.26-6-.12-6-.26Z"/><path class="cls-10" d="M260.19,289.7c0-.14,2.69-.26,6-.26s6,.12,6,.26-2.69,.26-6,.26-6-.12-6-.26Z"/><path class="cls-10" d="M236.19,289.7c0-.14,2.69-.26,6-.26s6,.12,6,.26-2.69,.26-6,.26-6-.12-6-.26Z"/><path class="cls-10" d="M212.19,289.7c0-.14,2.69-.26,6-.26s6,.12,6,.26-2.69,.26-6,.26-6-.12-6-.26Z"/><path class="cls-10" d="M188.19,289.7c0-.14,2.69-.26,6-.26s6,.12,6,.26-2.69,.26-6,.26-6-.12-6-.26Z"/><path class="cls-10" d="M164.19,289.7c0-.14,2.69-.26,6-.26s6,.12,6,.26-2.69,.26-6,.26-6-.12-6-.26Z"/><path class="cls-10" d="M140.21,289.69s0,0,0,.01h0c.07-.15,2.72-.26,5.99-.26s6,.12,6,.26-2.69,.26-6,.26-5.92-.11-5.99-.25h0s0-.02,0-.02Z"/><path class="cls-10" d="M140.21,265.69c.14,0,.26,2.69,.26,6s-.12,6-.26,6-.26-2.69-.26-6,.12-6,.26-6Z"/><path class="cls-10" d="M140.21,241.69c.14,0,.26,2.69,.26,6s-.12,6-.26,6-.26-2.69-.26-6,.12-6,.26-6Z"/><path class="cls-10" d="M140.21,217.69c.14,0,.26,2.69,.26,6s-.12,6-.26,6-.26-2.69-.26-6,.12-6,.26-6Z"/><path class="cls-10" d="M161.03,214.51c0,.14-2.69,.26-6,.26s-6-.12-6-.26,2.69-.26,6-.26,6,.12,6,.26Z"/><path class="cls-10" d="M185.03,214.51c0,.14-2.69,.26-6,.26s-6-.12-6-.26,2.69-.26,6-.26,6,.12,6,.26Z"/><path class="cls-10" d="M209.03,214.51c0,.14-2.69,.26-6,.26s-6-.12-6-.26,2.69-.26,6-.26,6,.12,6,.26Z"/><path class="cls-10" d="M233.03,214.51c0,.14-2.69,.26-6,.26s-6-.12-6-.26,2.69-.26,6-.26,6,.12,6,.26Z"/><path class="cls-10" d="M257.03,214.51c0,.14-2.69,.26-6,.26s-6-.12-6-.26,2.69-.26,6-.26,6,.12,6,.26Z"/><path class="cls-10" d="M281.03,214.51c0,.14-2.69,.26-6,.26s-6-.12-6-.26,2.69-.26,6-.26,6,.12,6,.26Z"/><path class="cls-10" d="M305.03,214.51c0,.14-2.69,.26-6,.26s-6-.12-6-.26,2.69-.26,6-.26,6,.12,6,.26Z"/><path class="cls-10" d="M329.03,214.51c0,.14-2.69,.26-6,.26s-6-.12-6-.26,2.69-.26,6-.26,6,.12,6,.26Z"/><path class="cls-10" d="M353.03,214.51c0,.14-2.69,.26-6,.26s-6-.12-6-.26,2.69-.26,6-.26,6,.12,6,.26Z"/><path class="cls-10" d="M377.03,214.51c0,.14-2.69,.26-6,.26s-6-.12-6-.26,2.69-.26,6-.26,6,.12,6,.26Z"/><path class="cls-10" d="M401.03,214.51c0,.14-2.69,.26-6,.26s-6-.12-6-.26,2.69-.26,6-.26,6,.12,6,.26Z"/><path class="cls-10" d="M425.03,214.51c0,.14-2.69,.26-6,.26s-6-.12-6-.26,2.69-.26,6-.26,6,.12,6,.26Z"/><path class="cls-10" d="M440.19,223.34c-.14,0-.26-2.69-.26-6,.01-1,.02-1.94,.03-2.84l.23,.23c-1.89-.04-3.16-.13-3.16-.23s1.27-.19,3.16-.23h.23v.23c.01,.89,.02,1.84,.03,2.84,0,3.31-.12,6-.26,6Z"/><path class="cls-10" d="M440.19,247.34c-.14,0-.26-2.69-.26-6s.12-6,.26-6,.26,2.69,.26,6-.12,6-.26,6Z"/><path class="cls-10" d="M440.19,271.34c-.14,0-.26-2.69-.26-6s.12-6,.26-6,.26,2.69,.26,6-.12,6-.26,6Z"/></g><path class="cls-10" d="M334.79,373.53c0,.14-19.28,.26-43.06,.26s-43.06-.12-43.06-.26,19.28-.26,43.06-.26,43.06,.12,43.06,.26Z"/><path class="cls-10" d="M334.79,362.4c0,.14-19.28,.26-43.06,.26s-43.06-.12-43.06-.26,19.28-.26,43.06-.26,43.06,.12,43.06,.26Z"/></g></g><g id="Sign"><g><rect class="cls-12" x="65.86" y="276.65" width="5.18" height="139.73"/><g><circle class="cls-8" cx="68.45" cy="251.52" r="30.12"/><path class="cls-5" d="M95.56,251.15s-.03-.15-.05-.44c-.02-.31-.05-.74-.09-1.29-.02-.28-.04-.6-.06-.95-.04-.35-.11-.72-.18-1.13-.13-.82-.26-1.76-.57-2.79-.48-2.09-1.46-4.56-3.01-7.18-1.56-2.61-3.81-5.33-6.86-7.63-3.05-2.29-6.89-4.23-11.33-5.02-4.41-.76-9.38-.62-14.12,1.18-1.21,.39-2.34,.98-3.5,1.54-.57,.31-1.11,.67-1.67,1-.57,.32-1.1,.72-1.62,1.12-1.09,.75-2.05,1.69-3.05,2.59-.9,1-1.85,1.98-2.63,3.11-1.6,2.22-2.99,4.69-3.84,7.4-.88,2.7-1.35,5.56-1.39,8.47,.04,2.91,.51,5.78,1.38,8.48,.84,2.71,2.24,5.18,3.84,7.4,.78,1.14,1.73,2.11,2.63,3.11,1,.9,1.95,1.84,3.05,2.59,.53,.4,1.05,.8,1.62,1.12,.56,.33,1.11,.69,1.67,1,1.17,.56,2.3,1.16,3.5,1.54,4.74,1.8,9.71,1.94,14.12,1.18,4.44-.78,8.28-2.73,11.33-5.02,3.06-2.31,5.3-5.03,6.86-7.63,1.55-2.62,2.53-5.09,3.01-7.18,.31-1.03,.44-1.98,.57-2.79,.06-.41,.14-.78,.18-1.13,.02-.35,.04-.66,.06-.95,.04-.55,.07-.97,.09-1.29,.02-.29,.04-.44,.05-.44s.01,.15,0,.44c0,.31-.02,.74-.04,1.29-.01,.29-.02,.6-.04,.95-.03,.35-.1,.73-.15,1.14-.12,.82-.23,1.78-.53,2.82-.45,2.11-1.42,4.62-2.96,7.28-1.55,2.65-3.81,5.42-6.89,7.78-3.07,2.34-6.97,4.33-11.47,5.15-4.47,.79-9.53,.67-14.36-1.15-1.23-.39-2.38-.99-3.57-1.56-.58-.31-1.13-.68-1.71-1.01-.58-.32-1.12-.73-1.65-1.14-1.11-.76-2.09-1.72-3.11-2.63-.92-1.02-1.89-2.01-2.69-3.17-1.63-2.26-3.06-4.77-3.92-7.54-.89-2.75-1.37-5.67-1.41-8.64,.04-2.97,.52-5.89,1.41-8.64,.86-2.76,2.29-5.28,3.92-7.54,.8-1.16,1.76-2.15,2.69-3.17,1.02-.92,1.99-1.87,3.11-2.63,.54-.41,1.07-.81,1.65-1.13,.57-.34,1.13-.7,1.71-1.01,1.19-.57,2.34-1.17,3.57-1.56,4.83-1.82,9.89-1.94,14.36-1.15,4.51,.82,8.4,2.81,11.47,5.15,3.08,2.36,5.34,5.13,6.89,7.78,1.54,2.66,2.5,5.16,2.96,7.28,.3,1.04,.41,2,.53,2.82,.05,.41,.12,.79,.15,1.14,.01,.35,.02,.67,.04,.95,.02,.55,.03,.98,.04,1.29,0,.29,0,.44,0,.44Z"/><rect class="cls-6" x="52.76" y="247.75" width="31.37" height="6.54"/></g></g></g><g id="Crane"><g><g><g><g><g><rect class="cls-5" x="181.85" y="224.51" width="294.34" height="85.45" transform="translate(-20.35 27.21) rotate(-4.59)"/><path class="cls-12" d="M479.13,298.03c-.1-1.23-2.59-31.48-7.01-85.16l.18,.15c-68.1,5.49-174.32,14.06-293.37,23.67h-.02l.24-.28c2.36,29.4,4.66,58.02,6.84,85.18l-.27-.23c84.08-6.71,157.4-12.56,209.71-16.73,52.3-4.12,82.47-6.49,83.71-6.59,0,0-.48,.05-1.43,.13-.96,.08-2.38,.2-4.24,.36-3.75,.31-9.28,.76-16.45,1.35-14.36,1.17-35.25,2.87-61.39,5-52.34,4.23-125.72,10.17-209.86,16.98l-.25,.02-.02-.25c-2.18-27.16-4.49-55.77-6.85-85.17l-.02-.26,.26-.02h.02c119.05-9.53,225.28-18.03,293.38-23.48h.16v.15c4.22,53.69,6.6,83.96,6.69,85.19Z"/></g><g><rect class="cls-8" x="188.97" y="240.8" width="92.65" height="69.64" transform="translate(-18.97 17.39) rotate(-4.07)"/><g><path class="cls-10" d="M394.69,298c.01,.14-2.66,.49-5.96,.76-.56-.47-.16-.13-.28-.24h0v-.15l-.02-.15-.02-.3c-.02-.2-.03-.4-.05-.59-.03-.38-.05-.76-.08-1.12-.04-.66-.07-1.29-.1-1.91-.04-1.09-.04-1.76,.04-1.77,.07,0,.19,.66,.33,1.74,.07,.61,.14,1.24,.22,1.9,.04,.37,.07,.74,.11,1.12,.02,.2,.04,.39,.05,.59l.03,.3v.15l.02,.08v.06h0v.02c-.13-.11,.28,.24-.28-.24,3.3-.28,5.99-.39,6-.25Z"/><path class="cls-10" d="M421.83,295.71c.01,.14-3.02,.52-6.76,.83-3.75,.32-6.79,.46-6.81,.31-.01-.14,3.02-.52,6.76-.83,3.75-.32,6.79-.46,6.81-.31Z"/><path class="cls-10" d="M448.97,293.42c.01,.14-3.02,.52-6.76,.83-3.75,.32-6.79,.46-6.81,.31-.01-.14,3.02-.52,6.76-.83,3.75-.32,6.79-.46,6.81-.31Z"/><path class="cls-10" d="M468.02,285.79c.14-.01,.49,2.66,.76,5.96-.47,.56-.13,.16-.24,.28h-.15l-.15,.03-.3,.02c-.2,.02-.4,.03-.59,.05-.38,.03-.76,.05-1.12,.08-.66,.04-1.29,.07-1.91,.1-1.09,.04-1.76,.04-1.77-.04,0-.07,.66-.19,1.74-.33,.61-.07,1.24-.14,1.9-.22,.37-.04,.74-.07,1.12-.11,.2-.02,.39-.04,.59-.05l.3-.03h.15l.08-.02h.07c-.11,.12,.24-.29-.24,.27-.28-3.3-.39-5.99-.25-6Z"/><path class="cls-10" d="M466.13,263.41c.14-.01,.47,2.48,.73,5.57,.26,3.09,.36,5.61,.21,5.62-.14,.01-.47-2.48-.73-5.57-.26-3.09-.36-5.61-.21-5.62Z"/><path class="cls-10" d="M464.24,241.02c.14-.01,.47,2.48,.73,5.57,.26,3.09,.36,5.61,.21,5.62-.14,.01-.47-2.48-.73-5.57-.26-3.09-.36-5.61-.21-5.62Z"/><path class="cls-10" d="M456.81,224.35c-.01-.14,2.66-.49,5.96-.76,.56,.48,.16,.13,.28,.24h0v.15l.02,.15,.02,.3c.02,.2,.03,.4,.05,.59,.03,.38,.05,.76,.08,1.12,.04,.66,.07,1.29,.1,1.91,.04,1.09,.04,1.76-.04,1.77-.07,0-.19-.66-.33-1.74-.07-.61-.14-1.24-.22-1.9-.04-.37-.07-.74-.11-1.12l-.05-.59-.03-.3v-.15l-.02-.08v-.06h0v-.02c.13,.11-.28-.24,.28,.24-3.3,.28-5.99,.39-6,.25Z"/><path class="cls-10" d="M429.67,226.65c-.01-.14,3.02-.52,6.76-.83,3.75-.32,6.79-.46,6.81-.31,.01,.14-3.02,.52-6.76,.83-3.75,.32-6.79,.46-6.81,.31Z"/><path class="cls-10" d="M402.53,228.94c-.01-.14,3.02-.52,6.76-.83,3.75-.32,6.79-.46,6.81-.31s-3.02,.52-6.76,.83c-3.75,.32-6.79,.46-6.81,.31Z"/><path class="cls-10" d="M383.48,236.57c-.14,.01-.49-2.66-.76-5.96,.47-.56,.13-.16,.24-.28h.15l.15-.03,.3-.02c.2-.02,.4-.03,.59-.05,.38-.03,.76-.05,1.12-.08,.66-.04,1.29-.07,1.91-.1,1.09-.04,1.76-.04,1.77,.04,0,.07-.66,.19-1.74,.33-.61,.07-1.24,.14-1.9,.22-.37,.04-.74,.07-1.12,.11-.2,.02-.39,.04-.59,.05l-.3,.03h-.15l-.08,.02h-.07c.11-.12-.24,.29,.24-.27,.28,3.3,.39,5.99,.25,6Z"/><path class="cls-10" d="M385.37,258.95c-.14,.01-.47-2.48-.73-5.57-.26-3.09-.36-5.61-.21-5.62,.14-.01,.47,2.48,.73,5.57,.26,3.09,.36,5.61,.21,5.62Z"/><path class="cls-10" d="M387.27,281.34c-.14,.01-.47-2.48-.73-5.57-.26-3.09-.36-5.61-.21-5.62,.14-.01,.47,2.48,.73,5.57,.26,3.09,.36,5.61,.21,5.62Z"/></g><polygon class="cls-8" points="191.56 313.63 220.76 268.16 242.68 293.75 255.21 278.35 283.97 307.06 191.56 313.63"/><path class="cls-8" d="M248.87,260.84c.29,4.02-2.74,7.51-6.76,7.79-4.02,.29-7.51-2.74-7.79-6.76-.29-4.02,2.74-7.51,6.76-7.79,4.02-.29,7.51,2.74,7.79,6.76Z"/><g class="cls-13"><polygon points="191.56 313.63 220.76 268.16 242.68 293.75 255.21 278.35 283.97 307.06 191.56 313.63"/></g><g class="cls-13"><path d="M248.87,260.84c.29,4.02-2.74,7.51-6.76,7.79-4.02,.29-7.51-2.74-7.79-6.76-.29-4.02,2.74-7.51,6.76-7.79,4.02-.29,7.51,2.74,7.79,6.76Z"/></g></g><g><path class="cls-12" d="M375.38,249.57c.01,.14-17.95,1.92-40.12,3.97-22.18,2.05-40.16,3.59-40.18,3.45-.01-.14,17.95-1.92,40.13-3.97,22.17-2.05,40.16-3.59,40.17-3.45Z"/><path class="cls-12" d="M377.71,262.93c.01,.14-18.15,1.94-40.57,4.01-22.42,2.07-40.61,3.63-40.62,3.49-.01-.14,18.15-1.94,40.57-4.01,22.42-2.07,40.6-3.63,40.62-3.49Z"/><path class="cls-12" d="M380.03,276.29c.01,.14-18.35,1.95-41,4.05-22.66,2.09-41.04,3.67-41.06,3.53s18.34-1.95,41.01-4.05c22.66-2.09,41.04-3.67,41.05-3.53Z"/><path class="cls-12" d="M380.51,289.54c.01,.14-18.37,1.96-41.05,4.05-22.69,2.09-41.09,3.68-41.1,3.53-.01-.14,18.37-1.96,41.06-4.05,22.68-2.09,41.09-3.68,41.1-3.53Z"/><rect class="cls-8" x="293.36" y="242.42" width="42.41" height="3.36" transform="translate(-18.54 25.98) rotate(-4.59)"/></g></g><g><path class="cls-10" d="M426.69,271.63c-.14,.01-.69-4.92-1.21-11.02-.53-6.1-.84-11.05-.7-11.06,.14-.01,.69,4.92,1.21,11.02,.53,6.1,.84,11.05,.7,11.06Z"/><path class="cls-10" d="M435.94,260.06c0,.14-4.74,.56-10.6,.93-5.87,.37-10.63,.56-10.64,.41,0-.14,4.74-.56,10.6-.93,5.86-.37,10.63-.56,10.63-.41Z"/></g></g><path class="cls-12" d="M472.29,212.86s-.24-.08-.7-.25c-.47-.18-1.16-.44-2.05-.78-1.81-.7-4.46-1.73-7.88-3.06-6.86-2.69-16.77-6.58-29.09-11.41-24.65-9.71-58.88-23.21-97.28-38.34h.21c-3.92,1.94-8.09,4.01-12.31,6.1-39.83,19.73-75.88,37.59-101.99,50.53-13.05,6.44-23.62,11.65-30.93,15.26-3.65,1.79-6.48,3.18-8.42,4.12-.96,.46-1.69,.82-2.2,1.06-.5,.24-.76,.35-.76,.35,0,0,.24-.14,.73-.39,.5-.26,1.23-.63,2.17-1.11,1.93-.97,4.75-2.39,8.38-4.21,7.3-3.64,17.84-8.91,30.86-15.41,26.09-12.97,62.12-30.88,101.92-50.67,4.22-2.09,8.39-4.16,12.31-6.11l.1-.05,.11,.04c38.38,15.2,72.59,28.74,97.22,38.5,12.29,4.89,22.19,8.83,29.03,11.56,3.4,1.37,6.04,2.42,7.84,3.15,.88,.36,1.56,.64,2.03,.83,.46,.19,.68,.3,.68,.3Z"/></g><path class="cls-12" d="M412.55,73.14c-1.53-3.37-5.5-4.85-8.87-3.32-1.5,.68-2.63,1.86-3.28,3.24l-10.45,.86,10.57,20.83,6.62-12.18c.71-.07,1.42-.25,2.1-.56,3.37-1.53,4.85-5.5,3.32-8.87Z"/><path class="cls-12" d="M352.23,42.96l6.82-2.91-16.45-4.14c-1.02-1.6-2.71-2.75-4.74-3.03-3.66-.5-7.04,2.07-7.54,5.74-.5,3.66,2.07,7.04,5.74,7.54,1.85,.25,3.62-.28,4.98-1.33l15.63,9.56-4.44-11.42Z"/><g><path class="cls-12" d="M483.9,247.42l-.04-.14L370.98,36.85l-.64-1.19-17.79,8.1,85.14,224.39,.05,.13,50.69,80.6,1.03-.15,1.17-.17,.92-.14-10.49-16.67,6.12-15.79,16.23,6.01,7.15,23.65,.85-.13,1.08-.16,.95-.14-29.55-97.78Zm7.3,34.1l-20.26-5.21,11.75-22.95,8.51,28.15Zm-22.05-5.67l-24.92-6.4,36.78-16.76-11.86,23.16Zm9.41-32.36l-25.89-7.15,10.62-21.31,15.27,28.47Zm-27.66-7.64l-22.79-6.3,33.55-15.28-10.75,21.58Zm9.21-26.75l-23.86-8.32,8.51-20.3,15.35,28.62Zm-25.56-8.91l-20.95-7.31,29.68-13.52-8.73,20.83Zm6.83-26l-21.72-9.38,6.43-19.12,15.29,28.5Zm-23.38-10.1l-18.59-8.03,25.15-11.46-6.55,19.49Zm4.97-24.21l-.12,.06-19.53-10.56,4.34-18.05,15.31,28.55Zm-19.23-35.85l-17.04-11.44,2.26-16.11,14.78,27.56Zm-18.7-12.56l-13.7-9.2,16.01-7.29-2.31,16.49Zm-14.51-49.36l14.46,26.97-14.88-12.53,.41-14.43Zm-2.76,33.63l-10.49-27.65,11.02,9.28-.53,18.37Zm.59-20.67l-11.81-9.95,12.26-5.58-.44,15.53Zm1.69,3.78l14.31,12.05-14.85,6.76,.54-18.82Zm.92,25.35l13.79,9.26-2.77,19.78-11.02-29.04Zm15.45,10.38l16.57,11.13-19.36,8.82,2.79-19.95Zm19.78,15.11l-4.53,18.82-16.82-9.09,21.35-9.72Zm-21.03,11.94l16.07,8.69-4.96,20.6-11.11-29.28Zm17.7,9.57l17.91,9.68-22.74,10.36,4.82-20.04Zm-3.97,26.62l18.52,8-7.27,21.63-11.24-29.63Zm20.17,8.71l20.75,8.96-28.07,12.79,7.32-21.75Zm-6.24,28.01l21,7.32-9.56,22.83-11.44-30.15Zm22.71,7.92l22.72,7.92-32.19,14.66,9.46-22.58Zm-8.86,28.59l23.38,6.46-11.88,23.85-11.5-30.31Zm25.15,6.95l25.41,7.02-37.4,17.04,11.99-24.06Zm-9.02,32.97l25.47,6.54-9.59,18.72-15.89-25.26Zm27.26,7l20.82,5.35-30.73,14,9.91-19.35Zm9.78,51.9l-13.61-21.64,19.24,7.12-5.63,14.52Zm6.28-16.19l-21.46-7.95-.52-.83,29.96-13.65,.31,1.04-8.29,21.39Zm1.69,.63l7.45-19.21,7.48,24.74-14.93-5.53Z"/><path class="cls-12" d="M335.22,136.41s-.02-.6-.03-1.78c0-1.18-.02-2.93-.03-5.2-.01-4.58-.03-11.29-.06-19.9-.02-17.23-.05-42.03-.09-72.31v-.19l.18-.02c9.86-1.04,20.51-2.16,31.68-3.33h.12l.08,.07c24.1,26.93,52.36,58.52,82.45,92.15,46.87,52.46,89.29,99.94,120,134.32,15.33,17.2,27.74,31.12,36.32,40.74,4.28,4.81,7.6,8.55,9.86,11.09,1.12,1.27,1.97,2.23,2.55,2.89,.57,.65,.86,1,.86,1,0,0-.31-.32-.9-.96-.59-.65-1.46-1.61-2.59-2.86-2.28-2.53-5.62-6.24-9.93-11.03-8.61-9.6-21.06-23.48-36.44-40.63-30.74-34.35-73.21-81.8-120.12-134.22-30.07-33.65-58.32-65.25-82.4-92.2l.19,.07c-11.17,1.16-21.82,2.26-31.69,3.29l.18-.2c-.04,30.28-.07,55.07-.09,72.31-.02,8.61-.04,15.32-.06,19.9-.01,2.28-.02,4.02-.03,5.2-.01,1.17-.03,1.78-.03,1.78Z"/><g><rect class="cls-12" x="332.37" y="108.17" width="5.06" height="10.85" rx=".38" ry=".38"/><path class="cls-12" d="M343.48,120.7h-16.61c-1.02,0-1.85-.83-1.85-1.85h0c0-1.02,.83-1.85,1.85-1.85h16.61c1.02,0,1.85,.83,1.85,1.85h0c0,1.02-.83,1.85-1.85,1.85Z"/><path class="cls-12" d="M336.38,150.41l-.06-2.37-2.44,1.04c-.1,.87-.11,1.75-.04,2.63,.01,.14,.03,.29,.09,.41,.12,.21,.37,.31,.59,.41,1.05,.45,2.02,1.18,2.51,2.2,.5,1.02,.58,3.25-1.65,4.04-1.96,.69-3.71-1.15-3.73-2-.01-.4,0-.98-.56-1.04-.81-.08-1.16,1.1-1.14,1.72,.13,3.59,3.5,4.73,4.94,4.78,.97,.03,1.96-.12,2.79-.6,1.35-.78,2.36-2.17,2.62-3.71,.81-4.68-4.19-7.21-3.93-7.52Z"/><path class="cls-10" d="M338.48,149.24l10.62-25.55c.96-2.31-.74-4.86-3.24-4.86h-21.23c-2.5,0-4.2,2.54-3.24,4.86l10.61,25.55c1.2,2.88,5.28,2.88,6.48,0Z"/><g><path class="cls-8" d="M325.7,120.64l-2.74,2.74c.03,.1,0,.21,.05,.31l.9,2.16,5.22-5.22h-3.42Z"/><polygon class="cls-8" points="335.95 120.64 332.53 120.64 324.9 128.27 325.91 130.68 335.95 120.64"/><polygon class="cls-8" points="343.25 133.85 345.68 128 330.92 142.75 331.93 145.17 343.25 133.85"/><path class="cls-8" d="M340.82,139.69l-7.89,7.89,.27,.64c.25,.6,.71,1.02,1.28,1.22l3.91-3.91,2.43-5.85Z"/><polygon class="cls-8" points="342.79 120.64 339.37 120.64 326.91 133.1 327.91 135.51 342.79 120.64"/><path class="cls-8" d="M347.63,122.63c-.03-.35-.16-.7-.36-1.01-.29-.44-.73-.69-1.21-.83l-17.13,17.13,1,2.41,17.71-17.71Z"/></g></g><g><path class="cls-12" d="M608.64,310.46h17.84c1.46,0,2.64,1.18,2.64,2.64v8.14h-23.11v-8.14c0-1.46,1.18-2.64,2.64-2.64Z"/><path class="cls-12" d="M565.6,318.56h-3.79v-22.54c0-1,.16-1.99,.46-2.94l1.9-5.9c.04-.11,.19-.13,.25-.03l2.24,3.95-.59,1.83c-.31,.97-.48,1.99-.48,3.02v22.6Z"/><path class="cls-8" d="M659.01,322.67c-1.08-2.6-3.41-4.47-6.19-4.97l-94.81-.05v-15.79c0-2.12-1.72-3.84-3.84-3.84h-45.8c-1.67,0-3.14,1.08-3.65,2.66l-1.37,4.34h5.1c1.19,0,2.31,.52,3.06,1.42,.75,.9,1.05,2.07,.81,3.21l-4.91,23.24c-.38,1.78-2,3.07-3.86,3.07h-9.73c-.12,1.48-.05,2.97,.27,4.43l.54,2.32-25.08,4.93c-.41,.08-.73,.4-.82,.8l-2.36,6.34c-.14,.25-.25,.56-.34,.91v.03h0c-.51,2.1-.13,5.6,1.13,5.6h26.87l-1.18,1.32-1.51,4.72h170.73c.04-15.29-.36-38.31-3.03-44.72Zm-118.3-14.42l-2.53,22.83c-.03,.29-.08,.58-.13,.86-.92,4.65-5.24,7.86-9.98,7.85h-11.26c-2.21-.02-3.85-2.06-3.38-4.22l5.3-27.46c.37-1.78,1.95-3.08,3.77-3.08h15.34c.82,0,1.61,.35,2.16,.96,.55,.61,.81,1.43,.72,2.25Z"/><path class="cls-11" d="M582.68,378.76l-72.64,1.02c-.47,0-1.31-1.4-1.31-1.87v-8.11c0-.47,.38-.86,.86-.86h73.1c.47,0,.86,.38,.86,.86v8.11c0,.47-.38,.86-.86,.86Z"/><g><path class="cls-8" d="M540.71,308.24l-2.53,22.83c-.03,.29-.08,.58-.13,.86-.92,4.65-5.24,7.86-9.98,7.85h-11.26c-2.21-.02-3.85-2.06-3.38-4.22l5.3-27.46c.37-1.78,1.95-3.08,3.77-3.08h15.34c.82,0,1.61,.35,2.16,.96,.55,.61,.81,1.43,.72,2.25Z"/><g class="cls-1"><g><path class="cls-9" d="M662.11,369.36c.04-.7-.04-1.5-.23-1.83h-170.31c-.2,.33-.28,1.13-.24,1.83h170.78Z"/><path class="cls-8" d="M504.72,300.69l-10.25,31.85c-.82,2.54-.95,5.25-.39,7.87l4.39,20.36h59.56v-58.9c0-2.12-1.72-3.84-3.84-3.84h-45.8c-1.67,0-3.14,1.08-3.65,2.66Z"/></g></g></g><path class="cls-11" d="M516.81,339.78c-2.21,0-3.85-2.04-3.38-4.2l5.3-27.46c.37-1.78,1.95-3.08,3.77-3.08h15.34c.82,0,1.61,.35,2.16,.96,.55,.61,.81,1.43,.72,2.25l-2.53,22.83c-.03,.29-.08,.58-.13,.86-.92,4.65-5.24,7.86-9.98,7.85h-11.26Z"/><path class="cls-11" d="M493.81,336.02c.1-1.12,.32-2.23,.67-3.29l8.9-27.65h5.09c1.19,0,2.31,.52,3.06,1.42,.75,.9,1.05,2.07,.81,3.21l-4.91,23.24c-.38,1.78-2,3.07-3.86,3.07h-9.76Z"/><path class="cls-12" d="M662.19,371.9h-170.64c-1.3,0-1.3-4.73,0-4.73h170.64c1.31,0,1.31,4.73,0,4.73Z"/><path class="cls-12" d="M558.17,318.87s.01,.09,.02,.25c0,.2,0,.44,0,.74-.01,.69-.03,1.64-.06,2.84-.08,2.51-.19,6.07-.32,10.45-.15,4.43-.34,9.68-.54,15.5-.05,1.46-.11,2.95-.17,4.48-.08,1.52-.19,3.17-1,4.64-.79,1.49-2.32,2.49-3.93,2.95-1.62,.48-3.32,.58-5.01,.59-13.46-.25-25.64-.48-34.5-.65-4.38-.11-7.94-.2-10.45-.26-1.2-.04-2.15-.07-2.84-.1l-.74-.04c-.17-.01-.25-.02-.25-.03,0,0,.09-.02,.25-.02h.74c.69-.01,1.64-.01,2.84-.01,2.51,.02,6.07,.05,10.46,.09,8.87,.13,21.04,.3,34.5,.5,1.67,0,3.33-.11,4.86-.57,1.53-.44,2.91-1.35,3.63-2.7,.74-1.34,.88-2.91,.95-4.42,.06-1.53,.12-3.02,.18-4.48,.25-5.82,.47-11.07,.65-15.5,.2-4.38,.37-7.94,.49-10.45,.07-1.2,.12-2.15,.16-2.84,.02-.3,.04-.54,.05-.74,.02-.17,.03-.25,.04-.25Z"/><path class="cls-12" d="M509.54,361c-.14,0-.26-5-.26-11.17s.12-11.17,.26-11.17,.26,5,.26,11.17-.12,11.17-.26,11.17Z"/><path class="cls-12" d="M518.47,298.21s-.03,.58-.19,1.61c-.15,1.03-.4,2.53-.72,4.37-.65,3.68-1.64,8.75-2.89,14.31-1.25,5.57-2.51,10.57-3.49,14.18-.49,1.8-.9,3.26-1.21,4.26-.3,1-.49,1.55-.52,1.54s.08-.58,.32-1.59c.27-1.1,.62-2.55,1.05-4.3,.89-3.63,2.1-8.64,3.34-14.2,1.24-5.56,2.29-10.61,3.03-14.27,.36-1.76,.66-3.22,.89-4.33,.21-1.02,.35-1.59,.39-1.58Z"/><path class="cls-8" d="M538.22,348.86c-.01-.05,.4-.01,.93-.38,.25-.19,.52-.49,.64-.92,.1-.42,.1-.99-.18-1.44-.27-.47-.83-.82-1.48-.78-.72,0-1.47,.02-2.26,.02-1.61,0-3.36,.01-5.19,.02-.8-.02-1.5,.67-1.53,1.42-.11,.8,.36,1.51,1.02,1.74,.16,.06,.33,.09,.5,.09,.19,0,.39,0,.57,0,.38,0,.74,0,1.1,.01,.7,.01,1.36,.02,1.97,.03,1.21,.02,2.18,.05,2.86,.08,.67,.03,1.05,.07,1.05,.1s-.37,.07-1.05,.1c-.67,.03-1.65,.06-2.86,.08-.62,.01-1.27,.02-1.97,.03-.36,0-.72,0-1.1,.01-.19,0-.38,0-.58,0-.22,0-.44-.04-.66-.11-.88-.26-1.51-1.27-1.37-2.22,.03-1,.96-1.93,2.04-1.91,1.83,0,3.58,.01,5.19,.02,.79,0,1.55,.02,2.26,.02,.78-.03,1.5,.44,1.8,1.03,.16,.29,.23,.61,.24,.9,0,.27-.01,.57-.1,.81-.17,.5-.5,.82-.8,1.01-.31,.18-.59,.23-.77,.24-.18,.01-.28-.02-.28-.03Z"/><g><path class="cls-12" d="M650.96,324.33c0,.14-6.97,.26-15.58,.26s-15.58-.12-15.58-.26,6.97-.26,15.58-.26,15.58,.12,15.58,.26Z"/><path class="cls-12" d="M650.96,327.43c0,.14-6.97,.26-15.58,.26s-15.58-.12-15.58-.26,6.97-.26,15.58-.26,15.58,.12,15.58,.26Z"/><path class="cls-12" d="M650.96,330.53c0,.14-6.97,.26-15.58,.26s-15.58-.12-15.58-.26,6.97-.26,15.58-.26,15.58,.12,15.58,.26Z"/><path class="cls-12" d="M650.96,333.63c0,.14-6.97,.26-15.58,.26s-15.58-.12-15.58-.26,6.97-.26,15.58-.26,15.58,.12,15.58,.26Z"/><path class="cls-12" d="M650.96,336.73c0,.14-6.97,.26-15.58,.26s-15.58-.12-15.58-.26,6.97-.26,15.58-.26,15.58,.12,15.58,.26Z"/><path class="cls-12" d="M650.96,339.83c0,.14-6.97,.26-15.58,.26s-15.58-.12-15.58-.26,6.97-.26,15.58-.26,15.58,.12,15.58,.26Z"/><path class="cls-12" d="M650.96,342.93c0,.14-6.97,.26-15.58,.26s-15.58-.12-15.58-.26,6.97-.26,15.58-.26,15.58,.12,15.58,.26Z"/></g><path class="cls-12" d="M474.07,416.58c-9.35,0-17.22-9.02-17.22-18.37s8.23-17.24,17.58-17.24l150.62-6.81c7.78-.35,15.26,3.64,18.89,10.53,1.92,3.63,2.92,8.25,1.68,13.96-3.94,18.2-19.11,17.97-24.99,17.58s-146.57,.35-146.57,.35Z"/><circle class="cls-11" cx="474.07" cy="398.09" r="14.07"/><circle class="cls-11" cx="624.11" cy="395.23" r="18.2"/><path class="cls-11" d="M626.14,377.61s-.13,.03-.39,.06c-.28,.03-.66,.07-1.15,.13-1.04,.1-2.53,.25-4.43,.44-3.84,.38-9.41,.88-16.29,1.44-13.77,1.13-32.8,2.44-53.86,3.37-21.06,.92-40.14,1.29-53.96,1.38-6.91,.04-12.49,.04-16.36,0-1.91-.02-3.4-.04-4.45-.05-.49-.01-.87-.02-1.16-.03-.26,0-.39-.02-.39-.03s.13-.02,.39-.03c.29,0,.67-.01,1.16-.02,1.05-.01,2.54-.03,4.45-.04,3.89-.04,9.47-.09,16.35-.16,13.81-.18,32.88-.6,53.94-1.53,21.05-.93,40.08-2.18,53.85-3.22,6.86-.54,12.43-.97,16.3-1.28,1.9-.15,3.39-.27,4.43-.35,.49-.03,.87-.06,1.15-.08,.26-.01,.39-.02,.39,0Z"/><path class="cls-11" d="M620.35,411.71c0,.14-32.75,.26-73.15,.26s-73.16-.12-73.16-.26,32.75-.26,73.16-.26,73.15,.12,73.15,.26Z"/><path class="cls-8" d="M499.16,360.51c-.08,.02-.42-1.35-1.04-3.54-.61-2.19-1.5-5.21-2.4-8.57-.91-3.36-1.59-6.45-1.88-8.73-.14-1.14-.17-2.07-.16-2.71,.05-.64,.09-.99,.13-.99,.09,0,0,1.41,.4,3.65,.38,2.24,1.11,5.29,2.02,8.65,.9,3.35,1.74,6.39,2.25,8.62,.26,1.11,.46,2.01,.56,2.65,.11,.63,.15,.98,.12,.99Z"/><path class="cls-6" d="M614.09,406.47s-.4-.19-1.04-.69c-.64-.49-1.49-1.31-2.35-2.47-.86-1.16-1.68-2.71-2.19-4.56-.52-1.85-.69-4.01-.28-6.2,.44-2.19,1.41-4.12,2.58-5.64,1.17-1.52,2.51-2.65,3.74-3.41,1.23-.76,2.33-1.2,3.1-1.41,.77-.22,1.22-.27,1.22-.25,.04,.12-1.76,.4-4.13,1.97-1.18,.78-2.45,1.9-3.56,3.39-1.11,1.48-2.03,3.36-2.45,5.45-.39,2.1-.25,4.18,.23,5.97,.47,1.8,1.23,3.32,2.03,4.48,1.6,2.34,3.17,3.28,3.09,3.37Z"/><g><path class="cls-5" d="M535.03,320.96c.08,.12-3.42,2.79-7.82,5.98-4.4,3.19-8.04,5.67-8.12,5.56s3.41-2.79,7.82-5.98c4.4-3.19,8.04-5.67,8.12-5.56Z"/><path class="cls-5" d="M536.23,316.71c.08,.12-2.97,2.39-6.81,5.08-3.84,2.69-7.03,4.77-7.11,4.65-.08-.12,2.97-2.39,6.81-5.08,3.84-2.69,7.03-4.77,7.11-4.65Z"/><path class="cls-5" d="M506.91,323.27c.08,.12-1.47,1.34-3.46,2.73-1.99,1.39-3.68,2.42-3.76,2.3-.08-.12,1.47-1.34,3.46-2.73,1.99-1.39,3.67-2.42,3.76-2.3Z"/><path class="cls-5" d="M508.92,319.3c.09,.11-1.68,1.63-3.95,3.39-2.27,1.76-4.18,3.09-4.27,2.98-.09-.11,1.68-1.63,3.95-3.39,2.27-1.76,4.18-3.09,4.27-2.98Z"/><path class="cls-8" d="M540.32,343.62c0,.14-2.5,.26-5.59,.26s-5.59-.12-5.59-.26,2.5-.26,5.59-.26,5.59,.12,5.59,.26Z"/></g><path class="cls-6" d="M471.28,410.03s-.45-.03-1.23-.26c-.78-.23-1.87-.7-3.07-1.51-1.21-.81-2.49-2.02-3.55-3.64-1.06-1.61-1.86-3.65-2.04-5.89-.14-2.24,.36-4.38,1.19-6.12,.83-1.75,1.93-3.13,3.01-4.1,1.08-.98,2.1-1.59,2.83-1.93,.74-.34,1.17-.46,1.18-.43,.06,.11-1.71,.64-3.76,2.63-1.02,.98-2.05,2.34-2.83,4.04-.78,1.69-1.24,3.74-1.11,5.88,.17,2.14,.92,4.1,1.92,5.66,1,1.57,2.22,2.77,3.36,3.6,2.31,1.68,4.13,1.96,4.09,2.07Z"/><path class="cls-5" d="M492.61,354.52c0,.14-5.42,.26-12.11,.26s-12.12-.12-12.12-.26,5.42-.26,12.12-.26,12.11,.12,12.11,.26Z"/></g></g><path class="cls-8" d="M383.39,58.22l-9.12-19.59c-2.82-6.06-10.02-8.68-16.08-5.86h0c-6.06,2.82-8.68,10.02-5.86,16.08l9.12,19.59c.17,.37,.61,.52,.97,.35l20.61-9.6c.37-.17,.52-.61,.35-.97Z"/></g></g><g id="Fence"><g><g><g><rect class="cls-10" x="28.63" y="321.71" width="5.14" height="94.49"/><path class="cls-8" d="M36.4,318.48c0,2.86-2.32,5.18-5.18,5.18s-5.18-2.32-5.18-5.18,2.32-5.18,5.18-5.18,5.18,2.32,5.18,5.18Z"/></g><g><rect class="cls-10" x="130.78" y="321.71" width="5.14" height="94.49"/><path class="cls-8" d="M138.54,318.48c0,2.86-2.32,5.18-5.18,5.18s-5.18-2.32-5.18-5.18,2.32-5.18,5.18-5.18,5.18,2.32,5.18,5.18Z"/></g><g><rect class="cls-8" x="13.96" y="330.83" width="131.69" height="23.56"/><polygon class="cls-4" points="28.86 330.83 28.63 331.22 15.11 354.39 13.96 354.39 13.96 330.83 28.86 330.83"/><polygon class="cls-4" points="62.15 330.83 48.38 354.39 30.38 354.39 35.86 345.03 44.15 330.83 62.15 330.83"/><polygon class="cls-4" points="95.42 330.83 81.65 354.39 63.65 354.39 77.42 330.83 95.42 330.83"/><polygon class="cls-4" points="128.69 330.83 114.91 354.39 96.92 354.39 110.7 330.83 128.69 330.83"/><polygon class="cls-4" points="145.65 330.83 145.65 354.39 130.19 354.39 143.97 330.83 145.65 330.83"/></g><g><rect class="cls-8" x="13.96" y="367.23" width="131.69" height="23.56"/><polygon class="cls-4" points="28.86 367.23 28.63 367.62 15.11 390.79 13.96 390.79 13.96 367.23 28.86 367.23"/><polygon class="cls-4" points="62.15 367.23 48.38 390.79 30.38 390.79 35.86 381.43 44.15 367.23 62.15 367.23"/><polygon class="cls-4" points="95.42 367.23 81.65 390.79 63.65 390.79 77.42 367.23 95.42 367.23"/><polygon class="cls-4" points="128.69 367.23 114.91 390.79 96.92 390.79 110.7 367.23 128.69 367.23"/><polygon class="cls-4" points="145.65 367.23 145.65 390.79 130.19 390.79 143.97 367.23 145.65 367.23"/></g></g><path class="cls-12" d="M145.65,354.39s0-.14-.01-.41c0-.28,0-.67-.01-1.18,0-1.05-.02-2.58-.03-4.58-.02-4.01-.04-9.88-.08-17.4l.14,.14c-27,.03-75.9,.07-131.68,.12h0l.26-.26c0,8.07,0,16,0,23.56l-.26-.26c37.29,.05,70.17,.08,93.75,.11,11.8,.03,21.26,.06,27.8,.07,3.26,.02,5.78,.03,7.51,.03,.85,0,1.5,.01,1.95,.02,.44,0,.68,.02,.68,.02,0,0-.21,.01-.64,.02-.45,0-1.09,0-1.92,.02-1.71,0-4.22,.02-7.45,.03-6.52,.02-15.97,.04-27.74,.07-23.62,.03-56.57,.07-93.93,.11h-.26v-.26c0-7.56,0-15.49,0-23.56v-.26h.27c55.78,.05,104.68,.1,131.68,.12h.14v.14c-.03,7.55-.06,13.45-.08,17.48-.01,1.99-.03,3.51-.03,4.55,0,.5-.01,.88-.01,1.15,0,.26-.01,.38-.01,.38Z"/><path class="cls-12" d="M145.65,390.79s0-.14-.01-.41c0-.28,0-.67-.01-1.18,0-1.05-.02-2.58-.03-4.58-.02-4.01-.04-9.88-.08-17.4l.14,.14c-27,.03-75.9,.07-131.68,.12h0l.26-.26c0,8.07,0,16,0,23.56l-.26-.26c37.29,.05,70.17,.09,93.75,.11,11.8,.03,21.26,.06,27.8,.07,3.26,.02,5.78,.03,7.51,.03,.85,0,1.5,.01,1.95,.02,.44,0,.68,.02,.68,.02,0,0-.21,.01-.64,.02-.45,0-1.09,0-1.92,.02-1.71,0-4.22,.02-7.45,.03-6.52,.02-15.97,.04-27.74,.07-23.62,.03-56.57,.07-93.93,.11h-.26v-.26c0-7.56,0-15.49,0-23.56v-.26h.27c55.78,.05,104.68,.1,131.68,.12h.14v.14c-.03,7.55-.06,13.45-.08,17.48-.01,1.99-.03,3.51-.03,4.55,0,.5-.01,.88-.01,1.15,0,.26-.01,.38-.01,.38Z"/></g></g><g id="Floor"><path class="cls-12" d="M655.65,416.58c0,.14-145.42,.26-324.76,.26s-324.79-.12-324.79-.26,145.39-.26,324.79-.26,324.76,.12,324.76,.26Z"/></g></g></svg>