<svg width="526" height="490" viewBox="0 0 526 490" fill="none" xmlns="http://www.w3.org/2000/svg">
<path d="M54.2791 115.958C56.6427 114.965 58.3213 112.535 58.3327 109.671C58.3441 105.917 55.5009 102.859 51.984 102.836C48.4556 102.825 45.5895 105.848 45.5781 109.602C45.5667 112.5 47.2566 114.953 49.6431 115.946C39.8231 117.429 40.2685 128.086 40.2685 128.086L63.4939 128.189C63.4939 128.189 64.0192 117.407 54.2905 115.935L54.2791 115.958Z" fill="#EBEBEB"/>
<path d="M58.6411 221.692C58.9723 237.597 46.3319 250.753 30.4143 251.083C14.5082 251.403 1.33115 238.784 1.00001 222.878C0.668873 206.973 13.3093 193.818 29.2268 193.487C45.1443 193.156 58.31 205.787 58.6411 221.692Z" fill="#F5F5F5"/>
<path d="M19.8749 215.029C20.9711 214.937 21.9531 216.147 22.0901 217.721C22.2157 219.296 21.4392 220.642 20.343 220.733C19.2468 220.825 18.2648 219.615 18.1278 218.041C18.0022 216.466 18.7787 215.12 19.8749 215.029Z" fill="#E0E0E0"/>
<path d="M22.4099 207.738C22.387 207.989 19.9777 207.761 17.2715 208.776C14.5539 209.757 12.8639 211.492 12.6926 211.32C12.5099 211.218 14.04 209.073 16.986 208C19.9206 206.905 22.4784 207.532 22.4099 207.738Z" fill="#E0E0E0"/>
<path d="M38.2019 214.652C37.1057 214.606 36.1694 215.85 36.1009 217.436C36.0324 219.011 36.8659 220.334 37.9621 220.38C39.0583 220.425 39.9946 219.182 40.0631 217.596C40.1316 216.021 39.2981 214.698 38.2019 214.652Z" fill="#E0E0E0"/>
<path d="M35.37 207.464C35.2901 207.27 37.825 206.528 40.7938 207.51C43.7741 208.457 45.407 210.533 45.2243 210.647C45.053 210.83 43.2945 209.164 40.5426 208.297C37.8022 207.384 35.4043 207.715 35.37 207.464Z" fill="#E0E0E0"/>
<path d="M44.0481 221.989C44.0481 221.989 44.0709 222.548 43.8425 223.529C43.6256 224.51 43.1231 225.902 42.164 227.442C41.2162 228.983 39.7547 230.626 37.7678 231.983C35.7924 233.341 33.2461 234.357 30.4371 234.516C27.6395 234.642 24.9904 233.9 22.8894 232.748C20.7655 231.607 19.1441 230.112 18.0479 228.686C16.9403 227.248 16.2894 225.925 15.9811 224.978C15.6614 224.031 15.5815 223.472 15.6157 223.46C15.787 223.381 16.2323 225.64 18.5046 228.321C19.6237 229.656 21.2108 231.025 23.2548 232.086C25.2759 233.136 27.7765 233.809 30.4142 233.695C33.0405 233.535 35.4498 232.611 37.3568 231.345C39.2751 230.089 40.7138 228.549 41.6844 227.112C43.6598 224.213 43.8768 221.92 44.0481 221.977V221.989Z" fill="#E0E0E0"/>
<path d="M268.983 280.213C272.135 278.889 274.373 275.649 274.384 271.826C274.407 266.818 270.616 262.744 265.912 262.721C261.219 262.699 257.393 266.738 257.371 271.747C257.359 275.603 259.609 278.889 262.794 280.213C249.709 282.186 250.302 296.392 250.302 296.392L281.247 296.529C281.247 296.529 281.955 282.164 268.983 280.201V280.213Z" fill="#EBEBEB"/>
<path d="M244.513 330.724L204.194 337.512C189.099 324.505 169.47 316.621 147.98 316.621C100.399 316.621 61.8269 355.163 61.8269 402.708C61.8269 450.252 100.399 488.795 147.98 488.795C195.562 488.795 234.134 450.252 234.134 402.708C234.134 389.393 231.108 376.785 225.695 365.523L244.513 330.724Z" fill="#E0E0E0"/>
<path d="M67.833 312.331C67.833 313.563 68.8378 314.567 70.0711 314.567C71.3043 314.567 72.3091 313.563 72.3091 312.331C72.3091 311.099 71.3043 310.095 70.0711 310.095C68.8378 310.095 67.833 311.099 67.833 312.331Z" fill="#263238"/>
<path d="M58.8694 312.331C58.8694 313.563 59.8742 314.567 61.1074 314.567C62.3406 314.567 63.3455 313.563 63.3455 312.331C63.3455 311.099 62.3406 310.095 61.1074 310.095C59.8742 310.095 58.8694 311.099 58.8694 312.331Z" fill="#263238"/>
<path d="M49.9401 311.213C49.3235 312.285 49.6889 313.655 50.7622 314.271C51.8356 314.887 53.2058 314.522 53.8224 313.449C54.439 312.377 54.0736 311.008 53.0003 310.391C51.9269 309.775 50.5567 310.14 49.9401 311.213Z" fill="#263238"/>
<path d="M60.9706 286.214C60.9706 286.214 60.8221 286.237 60.5138 286.271C60.1827 286.294 59.7488 286.328 59.1893 286.362C58.9038 286.385 58.5727 286.397 58.2187 286.431L57.054 286.625C56.6315 286.693 56.1862 286.773 55.6952 286.842C55.2156 286.967 54.7132 287.104 54.1879 287.241C52.0641 287.823 49.5063 288.793 46.8914 290.527C44.2766 292.238 41.5818 294.669 39.3894 297.943C37.2427 301.229 35.5984 305.337 35.1759 309.946C35.1417 311.099 35.0047 312.274 35.1188 313.461C35.1645 314.054 35.1531 314.659 35.2445 315.252C35.3358 315.845 35.4271 316.45 35.5185 317.055C36.0209 319.451 36.7403 321.904 37.9849 324.186C39.1953 326.479 40.7596 328.647 42.6665 330.587C44.6077 332.481 46.8686 334.124 49.3921 335.39C51.9042 336.668 54.6789 337.547 57.5792 337.889C58.2986 338.026 59.0294 338.026 59.7602 338.072C60.491 338.117 61.2332 338.151 61.964 338.106C63.437 338.049 64.9214 337.855 66.383 337.547C69.5574 336.873 72.549 335.584 75.1753 333.85L75.3009 333.77L75.4494 333.827C78.5666 335.082 81.6268 336.314 84.6071 337.512L84.2188 337.855C83.3054 334.489 82.4033 331.226 81.5469 328.065L81.5126 327.928L81.5926 327.814C84.1161 324.471 85.7375 320.66 86.4112 316.872C86.7538 314.978 86.9022 313.084 86.788 311.259C86.7538 310.346 86.7195 309.433 86.5482 308.554C86.4797 308.109 86.4112 307.676 86.3541 307.242C86.2742 306.809 86.1486 306.387 86.0458 305.964C84.3445 299.187 80.1995 294.144 76.0774 291.234C71.9438 288.222 67.9017 287.138 65.2069 286.648C64.5218 286.545 63.9166 286.408 63.3913 286.374C62.8661 286.34 62.4207 286.305 62.0553 286.283L61.2332 286.214C61.0505 286.191 60.9591 286.18 60.9591 286.18C60.9591 286.18 61.0505 286.18 61.2332 286.18C61.4387 286.18 61.7128 286.18 62.0553 286.203C62.4321 286.214 62.8775 286.226 63.4027 286.248C63.9394 286.271 64.5446 286.397 65.2411 286.477C65.5837 286.534 65.9605 286.568 66.3373 286.648C66.7141 286.739 67.1138 286.842 67.5248 286.944C67.9359 287.047 68.3698 287.161 68.8266 287.275C69.2719 287.435 69.7286 287.595 70.1968 287.766C72.1037 288.428 74.1705 289.489 76.2829 290.972C80.485 293.881 84.7327 298.97 86.5026 305.862C86.6053 306.295 86.7424 306.717 86.8223 307.162C86.8908 307.607 86.9593 308.052 87.0278 308.497C87.1991 309.399 87.2448 310.312 87.2904 311.247C87.416 313.118 87.279 315.047 86.9365 316.975C86.2628 320.843 84.6185 324.745 82.0493 328.156L82.095 327.917C82.9628 331.077 83.8649 334.341 84.7898 337.706L84.9496 338.265L84.4015 338.049C81.4099 336.851 78.3611 335.63 75.2324 334.375L75.5064 334.352C72.8231 336.12 69.7629 337.444 66.5086 338.14C65.0128 338.459 63.4941 338.653 61.9868 338.71C61.2332 338.745 60.4796 338.71 59.7259 338.665C58.9723 338.619 58.2301 338.619 57.4993 338.471C54.5419 338.117 51.6987 337.216 49.1295 335.904C46.5603 334.603 44.2423 332.914 42.2669 330.975C40.3257 328.989 38.7385 326.764 37.5053 324.425C36.2379 322.086 35.5185 319.588 35.0161 317.135L34.742 315.286C34.6507 314.67 34.6621 314.054 34.6278 313.449C34.5137 312.24 34.6507 311.042 34.6964 309.867C35.1417 305.177 36.8431 301.001 39.0468 297.681C41.2849 294.361 44.0596 291.93 46.7087 290.219C49.3693 288.485 51.9727 287.538 54.1194 286.99C54.6561 286.853 55.1699 286.728 55.6495 286.613C56.1405 286.545 56.5972 286.477 57.0197 286.419C57.4422 286.362 57.8305 286.305 58.1958 286.26C58.5498 286.226 58.881 286.226 59.1778 286.214C59.7374 286.203 60.1827 286.191 60.5024 286.18C60.7993 286.18 60.9591 286.18 60.9591 286.18L60.9706 286.214Z" fill="#263238"/>
<path d="M157.401 270.4C159.49 265.756 164.366 262.482 169.47 262.311C174.574 262.14 179.667 265.072 182.053 269.579C183.481 272.26 184.04 275.443 186.096 277.68C188.665 280.464 193.392 280.897 196.429 278.649C197.263 281.901 195.242 285.621 192.068 286.705C193.746 286.876 195.436 287.047 197.115 287.218C194.386 293.163 186.929 295.878 180.478 294.714C174.026 293.551 168.545 289.295 164.16 284.446" fill="#263238"/>
<path d="M157.446 270.48L173.021 275.58C178.502 279.197 182.864 284.514 185.011 290.71C185.742 292.809 186.233 295 187.158 297.019C188.082 299.039 189.51 300.944 191.542 301.857C193.038 302.53 194.74 302.599 196.27 303.169C198.873 304.127 200.837 306.512 201.499 309.193C202.162 311.875 201.556 314.796 200.083 317.135C199.341 318.31 198.359 319.439 198.302 320.831C198.256 321.767 198.656 322.657 198.873 323.57C199.615 326.662 198.142 330.153 195.402 331.785C192.661 333.416 188.87 333.04 186.507 330.918C185.513 333.2 184.189 335.561 181.928 336.634C179.667 337.706 176.344 336.748 175.876 334.295C174.757 336.645 171.948 338.06 169.379 337.581C166.81 337.09 164.731 334.751 164.549 332.161L121.866 285.632C128.238 268.609 153.153 270.115 157.458 270.503L157.446 270.48Z" fill="#263238"/>
<path d="M164.674 286.659C167.426 286.944 169.493 289.283 169.436 292.045L166.421 363.686C166.307 372.141 150.903 382.147 141.814 381.965C132.634 381.771 135.34 372.061 135.203 364.017C134.986 350.577 134.986 345.522 134.986 345.602C134.986 345.602 123.385 343.685 120.987 328.601C119.788 321.105 120.165 308.805 120.804 298.753C121.375 289.706 127.393 278.604 136.436 279.562L164.674 286.682V286.659Z" fill="#FFBE9D"/>
<path d="M124.732 308.509C124.698 309.536 125.532 310.403 126.605 310.46C127.667 310.517 128.569 309.741 128.603 308.714C128.637 307.699 127.804 306.82 126.73 306.763C125.657 306.706 124.766 307.482 124.732 308.509Z" fill="#263238"/>
<path d="M123.476 305.143C123.716 305.394 125.189 304.31 127.278 304.321C129.368 304.299 130.898 305.371 131.127 305.109C131.241 304.995 130.99 304.538 130.327 304.059C129.665 303.58 128.546 303.112 127.244 303.112C125.943 303.112 124.846 303.591 124.218 304.082C123.579 304.572 123.362 305.029 123.476 305.143Z" fill="#263238"/>
<path d="M145.148 308.509C145.114 309.536 145.948 310.403 147.021 310.46C148.083 310.517 148.985 309.741 149.019 308.714C149.054 307.699 148.22 306.82 147.147 306.763C146.073 306.706 145.183 307.482 145.148 308.509Z" fill="#263238"/>
<path d="M143.995 305.531C144.235 305.782 145.708 304.698 147.798 304.709C149.887 304.687 151.417 305.759 151.646 305.497C151.76 305.383 151.509 304.926 150.846 304.447C150.184 303.968 149.065 303.5 147.763 303.5C146.462 303.5 145.365 303.979 144.737 304.47C144.098 304.96 143.881 305.417 143.995 305.531Z" fill="#263238"/>
<path d="M136.425 320.957C136.425 320.843 135.134 320.615 133.033 320.352C132.497 320.295 131.994 320.192 131.903 319.827C131.777 319.439 132.006 318.869 132.257 318.253C132.759 316.963 133.285 315.617 133.833 314.202C136.025 308.44 137.612 303.705 137.373 303.614C137.144 303.523 135.169 308.132 132.988 313.894C132.463 315.32 131.96 316.667 131.481 317.968C131.275 318.572 130.932 319.257 131.206 320.056C131.355 320.455 131.743 320.74 132.086 320.831C132.428 320.934 132.725 320.945 132.988 320.957C135.1 321.071 136.413 321.082 136.425 320.957Z" fill="#263238"/>
<path d="M134.975 345.591C134.975 345.591 145.149 346.241 155.243 340.205C155.243 340.205 150.321 350.565 135.18 349.15L134.975 345.591Z" fill="#EB996E"/>
<path d="M137.304 325.977C138.058 324.985 139.371 324.448 140.672 324.585C141.575 324.688 142.499 325.121 143.048 325.852C143.596 326.582 143.71 327.632 143.207 328.328C142.648 329.115 141.472 329.297 140.467 329.012C139.473 328.727 138.617 328.077 137.795 327.426C137.567 327.244 137.338 327.061 137.201 326.81C137.064 326.559 137.03 326.24 137.201 326.034" fill="#EB996E"/>
<path d="M142.568 322.406C142.225 322.383 142.225 324.642 140.284 326.251C138.343 327.86 135.934 327.609 135.911 327.917C135.877 328.054 136.448 328.35 137.464 328.385C138.469 328.419 139.93 328.099 141.118 327.118C142.305 326.137 142.808 324.825 142.888 323.901C142.979 322.954 142.716 322.395 142.568 322.406Z" fill="#263238"/>
<path d="M143.059 301.88C143.264 302.45 145.354 302.176 147.798 302.473C150.253 302.713 152.228 303.431 152.559 302.929C152.708 302.69 152.365 302.154 151.566 301.606C150.778 301.058 149.51 300.533 148.037 300.374C146.564 300.214 145.217 300.442 144.326 300.807C143.424 301.172 142.979 301.617 143.059 301.88Z" fill="#263238"/>
<path d="M124.241 299.119C124.607 299.586 126.045 299.096 127.781 299.073C129.505 298.993 130.978 299.392 131.309 298.89C131.458 298.651 131.229 298.172 130.59 297.727C129.962 297.282 128.9 296.917 127.712 296.951C126.525 296.985 125.497 297.419 124.892 297.898C124.275 298.388 124.081 298.868 124.241 299.096V299.119Z" fill="#263238"/>
<path d="M167.757 310.779C168.899 309.992 170.509 310.277 171.708 310.973C174.483 312.571 175.876 316.245 174.837 319.268C173.809 322.303 170.475 324.368 167.289 323.958" fill="#FFBE9D"/>
<path d="M143.972 274.531C138.457 274.713 134.278 276.39 129.437 279.026C124.595 281.662 120.553 286.02 119.057 291.314C118.737 292.444 118.566 293.722 119.183 294.714C119.993 296.027 121.923 296.243 123.328 295.604C124.732 294.965 125.748 293.71 126.708 292.501C127.427 295.273 130.179 297.373 133.045 297.339C135.911 297.304 138.617 295.148 139.268 292.364C139.291 295.262 142.203 297.658 145.103 297.544C148.003 297.441 150.572 295.205 151.543 292.478C152.08 295.057 152.662 297.715 154.204 299.837C155.745 301.971 158.543 303.432 161.055 302.621C160.701 304.869 160.358 307.231 161.157 309.365C161.957 311.498 164.332 313.221 166.49 312.479C168.591 311.761 169.402 309.285 169.893 307.128C170.84 302.975 171.651 298.742 171.514 294.486C171.377 290.23 170.235 285.895 167.62 282.529C164.914 279.049 160.804 276.835 156.533 275.717C152.262 274.588 147.786 274.462 143.367 274.519" fill="#263238"/>
<path d="M168.819 319.462C168.865 319.36 169.402 319.588 170.133 319.257C170.852 318.972 171.503 317.91 171.434 316.678C171.389 315.423 170.578 314.533 169.824 314.259C169.071 313.951 168.511 314.1 168.477 313.986C168.42 313.906 168.991 313.506 169.984 313.735C170.464 313.849 171.023 314.134 171.468 314.659C171.902 315.172 172.188 315.891 172.222 316.644C172.336 318.162 171.377 319.542 170.327 319.782C169.299 320.056 168.739 319.531 168.819 319.462Z" fill="#EB996E"/>
<path d="M169.265 325.795C170.356 325.795 171.24 324.916 171.24 323.832C171.24 322.748 170.356 321.87 169.265 321.87C168.174 321.87 167.289 322.748 167.289 323.832C167.289 324.916 168.174 325.795 169.265 325.795Z" fill="#E8505B"/>
<path d="M157.641 269.716C157.641 269.716 158.554 269.396 160.096 269.43C161.626 269.465 163.772 269.932 165.828 271.108C167.883 272.294 169.356 273.914 170.155 275.227C170.966 276.539 171.194 277.474 171.137 277.497C171.035 277.543 170.669 276.676 169.801 275.466C168.934 274.257 167.483 272.762 165.519 271.632C163.555 270.503 161.534 270.001 160.05 269.864C158.565 269.716 157.629 269.83 157.618 269.727L157.641 269.716Z" fill="#E8505B"/>
<path d="M165.554 269.727C165.554 269.727 165.519 269.567 165.497 269.248C165.497 268.94 165.554 268.461 165.782 267.901C166.216 266.783 167.552 265.38 169.687 264.878C171.845 264.285 174.574 265.391 176.481 267.479C177.452 268.518 178.274 269.773 178.948 271.142C179.621 272.511 180.169 273.994 180.752 275.478C181.334 276.961 181.928 278.398 182.693 279.665C183.458 280.931 184.383 282.038 185.445 282.871C186.495 283.715 187.683 284.263 188.859 284.423C190.035 284.617 191.154 284.366 192.079 283.978C193.952 283.134 195.002 281.696 195.482 280.669C195.95 279.619 195.973 278.946 196.041 278.958C196.064 278.958 196.053 279.117 196.041 279.437C196.007 279.745 195.916 280.201 195.71 280.76C195.276 281.856 194.237 283.407 192.273 284.354C191.303 284.799 190.081 285.096 188.802 284.913C187.523 284.754 186.233 284.183 185.114 283.305C183.983 282.426 183.001 281.285 182.202 279.962C181.403 278.638 180.798 277.178 180.204 275.683C179.073 272.694 177.977 269.83 176.093 267.844C174.289 265.836 171.8 264.787 169.79 265.277C167.78 265.688 166.479 266.966 166.01 267.981C165.508 269.02 165.645 269.716 165.565 269.704L165.554 269.727Z" fill="#455A64"/>
<path d="M137.053 293.014C137.053 293.014 136.996 292.877 136.95 292.604C136.916 292.33 136.824 291.919 136.813 291.394C136.722 290.344 136.756 288.793 137.087 286.922C137.418 285.05 138.16 282.871 139.405 280.68C140.672 278.513 142.488 276.322 144.886 274.645C147.272 272.956 149.887 271.906 152.319 271.302C154.763 270.674 157.047 270.514 158.942 270.628C160.838 270.742 162.356 271.073 163.35 271.427C163.864 271.575 164.229 271.769 164.48 271.872C164.731 271.986 164.857 272.055 164.857 272.077C164.823 272.214 162.665 271.13 158.919 271.039C157.058 270.982 154.832 271.187 152.445 271.826C150.07 272.454 147.524 273.492 145.217 275.135C142.899 276.755 141.129 278.866 139.873 280.966C138.64 283.088 137.875 285.199 137.498 287.013C136.722 290.675 137.19 293.026 137.041 293.026L137.053 293.014Z" fill="#455A64"/>
<path d="M146.576 291.999C146.576 291.999 146.507 291.577 146.53 290.824C146.553 290.071 146.667 288.975 146.964 287.652C147.535 285.016 149.02 281.422 151.874 278.353C154.729 275.284 158.2 273.538 160.792 272.762C162.094 272.363 163.179 272.169 163.921 272.077C164.674 271.998 165.097 271.998 165.097 272.032C165.108 272.146 163.441 272.283 160.918 273.161C158.417 274.017 155.071 275.774 152.308 278.752C149.545 281.73 148.038 285.187 147.375 287.743C146.69 290.322 146.679 291.999 146.565 291.987L146.576 291.999Z" fill="#455A64"/>
<path d="M143.972 381.075C140.672 370.955 132.588 360.651 123.716 364.371C113.839 368.513 111.087 373.75 105.674 381.874C100.262 389.997 96.9391 399.296 93.6734 408.493C92.3945 412.087 91.1613 416.263 93.1253 419.537C94.8152 422.367 98.2979 423.485 101.484 424.329C109.717 426.52 118.029 428.391 126.399 429.943C129.756 430.571 133.444 431.095 136.413 429.407C140.181 427.273 141.335 422.481 142.123 418.225L150.39 373.442" fill="#E8505B"/>
<path d="M134.461 359.511L121.466 365.113C114.901 370.281 113.039 379.135 113.268 387.476L107.867 478.914C107.867 478.914 145.776 502.327 190.081 477.841C191.234 477.202 182.659 456.288 182.659 456.288L194.728 410.626C195.653 404.066 196.224 390.454 194.511 383.996C190.115 367.429 178.354 362.466 166.273 359.145C166.273 359.145 154.192 369.277 142.397 367.144C142.397 367.144 135.203 366.47 134.472 359.511H134.461Z" fill="#E8505B"/>
<g opacity="0.2">
<path opacity="0.2" d="M117.013 435.636C124.515 446.499 132.006 457.349 139.508 468.211C142.442 472.456 145.491 476.814 149.841 479.598C156.167 483.637 164.88 483.546 171.114 479.382C177.349 475.217 180.763 467.207 179.45 459.825C179.29 458.947 179.062 458.045 178.445 457.395C177.509 456.391 175.922 456.265 174.608 456.665C173.295 457.053 172.142 457.863 170.932 458.502C163.863 462.244 154.9 460.236 148.277 455.763C141.654 451.291 136.79 444.73 131.709 438.557C129.836 436.275 127.781 433.936 125.006 432.921C122.231 431.905 118.543 432.738 117.367 435.443" fill="black"/>
</g>
<path d="M154.9 390.83C159.188 390.83 162.665 387.367 162.665 383.095C162.665 378.822 159.188 375.359 154.9 375.359C150.612 375.359 147.135 378.822 147.135 383.095C147.135 387.367 150.612 390.83 154.9 390.83Z" fill="white"/>
<path d="M118.703 376.5C118.703 380.778 122.186 384.236 126.468 384.236C130.75 384.236 134.232 380.767 134.232 376.5C134.232 372.232 130.75 368.764 126.468 368.764C122.186 368.764 118.703 372.232 118.703 376.5Z" fill="white"/>
<path d="M112.434 450.606C112.434 454.885 115.917 458.342 120.199 458.342C124.481 458.342 127.964 454.873 127.964 450.606C127.964 446.339 124.481 442.87 120.199 442.87C115.917 442.87 112.434 446.339 112.434 450.606Z" fill="white"/>
<path d="M134.232 480.625C138.521 480.625 141.997 477.162 141.997 472.889C141.997 468.617 138.521 465.154 134.232 465.154C129.944 465.154 126.468 468.617 126.468 472.889C126.468 477.162 129.944 480.625 134.232 480.625Z" fill="white"/>
<path d="M170.429 482.508C174.718 482.508 178.194 479.044 178.194 474.772C178.194 470.5 174.718 467.036 170.429 467.036C166.141 467.036 162.665 470.5 162.665 474.772C162.665 479.044 166.141 482.508 170.429 482.508Z" fill="white"/>
<path d="M139.759 434.849C144.047 434.849 147.524 431.386 147.524 427.113C147.524 422.841 144.047 419.378 139.759 419.378C135.471 419.378 131.994 422.841 131.994 427.113C131.994 431.386 135.471 434.849 139.759 434.849Z" fill="white"/>
<path d="M131.994 410.444C136.283 410.444 139.759 406.98 139.759 402.708C139.759 398.436 136.283 394.972 131.994 394.972C127.706 394.972 124.23 398.436 124.23 402.708C124.23 406.98 127.706 410.444 131.994 410.444Z" fill="white"/>
<path d="M131.994 361.393C132.131 361.29 132.954 363.766 135.991 366.311C137.487 367.577 139.553 368.764 142.008 369.574C144.475 370.373 147.364 370.749 150.333 370.418C153.313 370.053 156.053 369.129 158.394 367.977C160.735 366.836 162.688 365.501 164.252 364.28C165.816 363.059 167.004 361.975 167.803 361.211C168.602 360.446 169.048 360.013 169.082 360.047C169.105 360.07 168.728 360.56 167.974 361.37C167.221 362.192 166.068 363.333 164.526 364.599C162.984 365.866 161.02 367.258 158.657 368.456C156.293 369.654 153.484 370.624 150.424 370.989C147.352 371.331 144.384 370.92 141.86 370.076C139.337 369.209 137.236 367.954 135.74 366.607C134.232 365.272 133.25 363.938 132.725 362.945C132.428 362.466 132.291 362.055 132.154 361.792C132.04 361.519 131.983 361.382 132.006 361.37L131.994 361.393Z" fill="#263238"/>
<path d="M171.126 360.868C180.01 364.576 189.247 368.547 195.379 375.952C201.614 383.471 203.783 393.694 203.326 403.438C202.87 413.182 200.038 422.641 197.217 431.985C196.11 435.636 194.637 439.733 191.108 441.216C188.071 442.494 184.6 441.353 181.517 440.155C173.581 437.074 165.771 433.685 158.097 430C155.014 428.528 151.737 426.771 150.344 423.668C148.574 419.72 150.481 415.179 152.377 411.288C159.011 397.619 165.645 383.962 172.279 370.293" fill="#E8505B"/>
<path d="M190.069 415.886C194.358 415.886 197.834 412.423 197.834 408.15C197.834 403.878 194.358 400.415 190.069 400.415C185.781 400.415 182.305 403.878 182.305 408.15C182.305 412.423 185.781 415.886 190.069 415.886Z" fill="white"/>
<path d="M169.504 430.034C173.793 430.034 177.269 426.571 177.269 422.298C177.269 418.026 173.793 414.563 169.504 414.563C165.216 414.563 161.74 418.026 161.74 422.298C161.74 426.571 165.216 430.034 169.504 430.034Z" fill="white"/>
<path d="M171.56 384.304C171.56 388.491 174.974 391.891 179.176 391.891C183.378 391.891 186.792 388.491 186.792 384.304C186.792 380.117 183.378 376.716 179.176 376.716C174.974 376.716 171.56 380.117 171.56 384.304Z" fill="white"/>
<path d="M155.779 428.791L153.804 436.412L114.341 407.671L102.26 390.511C100.639 388.217 98.1952 386.632 95.4319 386.095C92.4974 385.525 89.46 386.175 87.0278 387.898L75.7805 395.873C75.7805 395.873 76.0888 401.921 78.8179 400.711C81.5469 399.502 87.0164 396.478 87.0164 396.478L88.5351 411.003L95.215 415.841L101.895 420.986L146.45 465.176C156.053 474.692 172.188 472.068 178.24 459.996L184.84 441.261L155.779 428.791Z" fill="#FFBE9D"/>
<path d="M152.81 435.328C152.833 435.271 153.575 435.511 154.466 436.344C155.368 437.165 156.304 438.637 156.773 440.429C157.241 442.22 157.241 443.897 157.195 445.072C157.149 446.259 157.047 446.989 156.967 446.989C156.887 446.989 156.83 446.259 156.773 445.084C156.704 443.909 156.636 442.288 156.19 440.588C155.745 438.888 154.923 437.496 154.158 436.641C153.393 435.785 152.753 435.42 152.799 435.328H152.81Z" fill="#EB996E"/>
<path d="M86.9479 397.231C86.8794 397.186 87.0736 396.729 87.5417 396.056C87.9985 395.406 88.7864 394.481 90.0424 394.037C91.3327 393.603 92.6002 394.048 93.2282 394.653C93.879 395.269 93.8562 395.885 93.7877 395.873C93.6963 395.908 93.5593 395.406 92.9541 394.972C92.3832 394.55 91.287 394.242 90.2365 394.596C89.1632 394.972 88.3981 395.759 87.8614 396.318C87.3362 396.9 87.0165 397.277 86.9365 397.231H86.9479Z" fill="#EB996E"/>
<path d="M94.0161 401.111C93.9476 401.168 93.6507 400.905 93.1026 400.597C92.5659 400.3 91.7552 399.981 90.8303 399.992C89.9054 399.992 89.0947 400.312 88.5694 400.62C88.0327 400.928 87.7358 401.202 87.6673 401.133C87.6102 401.088 87.8044 400.7 88.3296 400.266C88.8549 399.833 89.7569 399.399 90.8303 399.388C91.9036 399.388 92.8171 399.821 93.3424 400.243C93.8791 400.677 94.0732 401.053 94.0161 401.099V401.111Z" fill="#EB996E"/>
<path d="M155.779 428.791C155.779 428.791 155.505 428.791 155.026 428.608C154.546 428.426 153.861 428.038 153.244 427.262C152.628 426.497 152.102 425.368 151.943 423.976C151.771 422.572 152.125 420.975 152.776 419.366C153.427 417.746 154.398 416.114 155.22 414.289C156.065 412.463 156.807 410.444 157.481 408.276C158.828 403.952 159.81 399.045 161.169 393.957C162.539 388.879 164.343 384.11 166.935 380.299C169.47 376.454 172.85 373.784 176.002 372.335C179.165 370.852 182.065 370.578 183.983 370.715C185.924 370.852 186.929 371.274 186.929 371.274C186.918 371.342 185.89 371.012 183.972 370.943C182.076 370.886 179.244 371.205 176.173 372.712C173.113 374.183 169.836 376.808 167.381 380.607C164.857 384.361 163.099 389.073 161.74 394.116C160.381 399.171 159.388 404.088 157.994 408.436C157.298 410.615 156.533 412.646 155.665 414.494C154.797 416.343 153.815 417.951 153.153 419.526C152.491 421.089 152.125 422.618 152.262 423.941C152.388 425.276 152.856 426.372 153.416 427.125C153.975 427.889 154.615 428.289 155.06 428.505C155.505 428.722 155.779 428.756 155.768 428.802L155.779 428.791Z" fill="#263238"/>
<path d="M111.989 404.02C111.829 403.997 112.263 399.57 112.971 394.128C113.679 388.685 114.375 384.293 114.535 384.315C114.695 384.338 114.261 388.765 113.553 394.208C112.845 399.65 112.149 404.043 111.989 404.02Z" fill="#263238"/>
<path d="M94.233 420.964L92.132 437.439L66.9882 416.023L53.2402 419.343C53.2402 419.343 67.4221 449.089 78.6238 460.875C89.8254 472.661 95.8659 474.338 100.091 474.521C105.903 474.772 108.552 467.709 108.552 467.709L111.087 426.76L94.233 420.975V420.964Z" fill="#FFBE9D"/>
<path d="M92.2347 436.994C92.3718 436.926 93.3538 438.706 94.0046 441.102C94.6669 443.498 94.7468 445.517 94.5984 445.529C94.4271 445.552 94.0845 443.601 93.4337 441.25C92.7942 438.911 92.0749 437.063 92.2347 436.983V436.994Z" fill="#EB996E"/>
<path d="M64.5674 374.263H45.6354C42.7693 374.263 40.2116 377.584 41.2392 380.288L60.274 417.335C61.0048 418.773 62.4892 419.674 64.1107 419.674L87.1877 419.629C89.8368 419.275 90.796 416.343 89.6998 414.745L71.3387 378.485C70.0712 375.906 67.4449 374.275 64.5674 374.275V374.263Z" fill="#455A64"/>
<path d="M63.2886 376.5H44.3565C41.9815 376.5 40.4514 378.998 41.5247 381.098L60.1028 417.335C60.8336 418.773 62.318 419.674 63.9394 419.674H86.7538C88.1469 419.674 89.0489 418.214 88.4209 416.97L70.0598 380.71C68.7923 378.131 66.1661 376.5 63.2886 376.5Z" fill="#263238"/>
<path d="M61.6899 391.663L50.1686 396.261L47.7021 405.538L53.2516 419.343L73.611 422.298L67.6505 416.206L68.4155 410.9C68.4155 410.9 74.0905 409.12 74.239 408.253C74.376 407.386 73.531 404.476 72.6632 404.328C71.7954 404.191 65.8349 406.405 65.8349 406.405C65.8349 406.405 72.8802 400.825 72.6861 399.935C72.4919 399.034 71.7269 396.752 70.3224 396.49C68.9179 396.239 57.545 401.59 57.545 401.59L55.6952 405.8L54.0852 399.068C54.0852 399.068 64.1906 396.239 61.7014 391.64L61.6899 391.663Z" fill="#FFBE9D"/>
<path d="M63.1401 413.41C63.0716 413.433 62.8547 413.011 62.7519 412.258C62.6377 411.516 62.6948 410.444 63.0945 409.348C63.4941 408.264 64.1564 407.409 64.7273 406.918C65.2982 406.416 65.7322 406.245 65.7664 406.302C65.8806 406.439 64.3848 407.523 63.654 409.554C62.8775 411.573 63.3114 413.365 63.1401 413.399V413.41Z" fill="#EB996E"/>
<path d="M57.6593 411.402C57.5908 411.368 58.0018 410.284 58.116 408.39C58.2074 407.454 58.253 406.291 58.6984 405.047C58.9153 404.431 59.2464 403.792 59.7603 403.267C60.2741 402.731 60.9592 402.354 61.6444 402.08C64.3962 401.076 66.8741 400.278 68.6896 399.684C70.5052 399.102 71.6356 398.794 71.6585 398.863C71.6813 398.943 70.5965 399.399 68.8267 400.072C67.0568 400.757 64.5675 401.635 61.8613 402.617C61.2104 402.879 60.6167 403.199 60.1714 403.655C59.726 404.1 59.4177 404.659 59.2122 405.218C58.7783 406.348 58.6755 407.477 58.5385 408.413C58.3101 410.318 57.7392 411.425 57.6593 411.379V411.402Z" fill="#EB996E"/>
<path d="M55.0214 409.314C54.8616 409.291 54.8958 408.276 55.0899 407.044C55.2955 405.811 55.5924 404.842 55.7522 404.876C55.9121 404.899 55.8778 405.914 55.6837 407.146C55.4782 408.367 55.1813 409.348 55.0214 409.314Z" fill="#EB996E"/>
<path d="M54.7131 383.482C54.7131 384.817 55.7979 385.89 57.1225 385.89C58.447 385.89 59.5318 384.806 59.5318 383.482C59.5318 382.159 58.447 381.075 57.1225 381.075C55.7979 381.075 54.7131 382.159 54.7131 383.482Z" fill="#FAFAFA"/>
<path d="M101.895 420.986C101.895 420.986 102.157 421.157 102.603 421.545C103.105 421.99 103.722 422.549 104.487 423.234C106.165 424.786 108.438 426.874 111.132 429.373L111.224 429.452V429.578C110.915 433.423 110.561 437.941 110.185 442.768C109.659 449.842 109.26 456.254 109.031 460.898C108.929 463.145 108.849 465.005 108.78 466.397C108.735 467.698 108.689 468.417 108.643 468.417C108.597 468.417 108.575 467.698 108.552 466.397C108.529 465.097 108.552 463.214 108.609 460.886C108.723 456.231 109.066 449.807 109.591 442.733C109.945 437.884 110.333 433.355 110.71 429.544L110.79 429.749C108.152 427.193 105.926 425.048 104.293 423.462C103.573 422.743 102.98 422.15 102.5 421.671C102.089 421.249 101.883 421.021 101.906 420.998L101.895 420.986Z" fill="#EB996E"/>
<path d="M292.723 130.87L252.141 110.755C238.53 81.1121 208.59 60.5175 173.821 60.5175C126.239 60.5175 87.6672 99.0597 87.6672 146.604C87.6672 194.149 126.239 232.691 173.821 232.691C221.402 232.691 257.999 196.066 259.883 150.187L292.734 130.882L292.723 130.87Z" fill="#E0E0E0"/>
<path d="M251.707 52.9756C251.707 54.2079 250.702 55.2119 249.469 55.2119C248.236 55.2119 247.231 54.2079 247.231 52.9756C247.231 51.7433 248.236 50.7393 249.469 50.7393C250.702 50.7393 251.707 51.7433 251.707 52.9756Z" fill="#263238"/>
<path d="M260.659 52.9756C260.659 54.2079 259.654 55.2119 258.421 55.2119C257.188 55.2119 256.183 54.2079 256.183 52.9756C256.183 51.7433 257.188 50.7393 258.421 50.7393C259.654 50.7393 260.659 51.7433 260.659 52.9756Z" fill="#263238"/>
<path d="M269.6 51.8574C270.216 52.93 269.851 54.2991 268.778 54.9153C267.704 55.5314 266.334 55.1663 265.717 54.0938C265.101 53.0212 265.466 51.6521 266.54 51.0359C267.613 50.4198 268.983 50.7849 269.6 51.8574Z" fill="#263238"/>
<path d="M258.558 26.8472C258.558 26.8472 258.707 26.8358 259.015 26.8472C259.346 26.8472 259.78 26.87 260.339 26.8814C260.636 26.8928 260.956 26.8928 261.321 26.9271C261.687 26.9727 262.075 27.0298 262.497 27.0868C262.92 27.1439 263.377 27.2123 263.868 27.2808C264.347 27.3949 264.861 27.5318 265.398 27.6573C267.545 28.205 270.148 29.152 272.808 30.8863C275.469 32.5977 278.232 35.028 280.47 38.3483C282.674 41.6685 284.376 45.8445 284.821 50.5339C284.867 51.7091 285.004 52.9071 284.889 54.1166C284.844 54.7213 284.855 55.3374 284.775 55.9535C284.684 56.5697 284.592 57.1744 284.501 57.8019C283.999 60.2436 283.268 62.7538 282.012 65.0928C280.779 67.4318 279.191 69.6567 277.25 71.642C275.275 73.5816 272.957 75.2703 270.388 76.571C267.819 77.8831 264.975 78.7845 262.018 79.1382C261.287 79.2865 260.533 79.2865 259.791 79.3322C259.038 79.3778 258.295 79.412 257.53 79.3778C256.023 79.3207 254.504 79.1268 253.009 78.8073C249.754 78.1113 246.694 76.7992 244.011 75.0193L244.285 75.0421C241.168 76.2971 238.107 77.518 235.116 78.716L234.568 78.9328L234.727 78.3737C235.652 75.0193 236.554 71.7447 237.422 68.5841L237.468 68.8238C234.899 65.4122 233.254 61.5101 232.581 57.6422C232.238 55.7025 232.101 53.7743 232.227 51.9145C232.261 50.9789 232.307 50.0547 232.489 49.1647C232.558 48.7197 232.626 48.2633 232.695 47.8298C232.775 47.3848 232.912 46.9626 233.015 46.5291C234.785 39.6376 239.032 34.5488 243.234 31.6393C245.335 30.156 247.414 29.0949 249.32 28.4332C249.789 28.262 250.257 28.1023 250.691 27.9425C251.147 27.8284 251.581 27.7143 251.992 27.6117C252.403 27.509 252.803 27.4063 253.18 27.315C253.557 27.2465 253.934 27.2009 254.276 27.1439C254.973 27.0526 255.578 26.9385 256.114 26.9157C256.64 26.8928 257.085 26.8814 257.462 26.87C257.804 26.87 258.078 26.8586 258.284 26.8472C258.467 26.8472 258.558 26.8472 258.558 26.8472C258.558 26.8472 258.467 26.87 258.284 26.8814L257.462 26.9499C257.096 26.9727 256.651 27.0069 256.126 27.0412C255.601 27.0868 254.995 27.2123 254.31 27.315C251.616 27.8056 247.573 28.8781 243.44 31.9017C239.318 34.8112 235.173 39.8543 233.471 46.6317C233.369 47.0539 233.243 47.4761 233.163 47.9096C233.095 48.3432 233.037 48.7882 232.969 49.2218C232.798 50.1003 232.763 51.0017 232.729 51.9259C232.615 53.7514 232.763 55.6455 233.106 57.5395C233.78 61.3275 235.401 65.1384 237.925 68.4815L238.005 68.5956L237.97 68.7325C237.103 71.893 236.212 75.1676 235.298 78.5221L234.91 78.1798C237.89 76.9817 240.951 75.7495 244.068 74.4944L244.216 74.4374L244.342 74.5172C246.968 76.2401 249.96 77.5408 253.134 78.214C254.596 78.5221 256.08 78.716 257.553 78.7731C258.295 78.8073 259.026 78.7731 259.757 78.7388C260.488 78.6932 261.219 78.6932 261.938 78.5563C264.827 78.214 267.613 77.3354 270.125 76.0576C272.649 74.7911 274.91 73.1481 276.851 71.254C278.758 69.3144 280.322 67.1351 281.532 64.8532C282.777 62.5712 283.496 60.1181 283.999 57.722C284.09 57.1173 284.181 56.5126 284.273 55.9193C284.364 55.326 284.353 54.7213 284.398 54.128C284.513 52.9413 284.376 51.7661 284.341 50.6138C283.919 46.0042 282.274 41.8967 280.128 38.6107C277.947 35.3361 275.241 32.9058 272.626 31.1943C270.011 29.46 267.453 28.4902 265.329 27.9083C264.793 27.7714 264.29 27.6345 263.822 27.509L262.463 27.2922L261.299 27.0982C260.945 27.064 260.613 27.0526 260.328 27.0298C259.768 26.9841 259.335 26.9613 259.003 26.9385C258.707 26.9157 258.547 26.8928 258.547 26.8814L258.558 26.8472Z" fill="#263238"/>
<path d="M225.992 137.431C226.152 137.431 226.163 145.52 226.004 155.481C225.844 165.453 225.592 173.531 225.421 173.531C225.261 173.531 225.25 165.442 225.41 155.481C225.57 145.509 225.821 137.431 225.992 137.442V137.431Z" fill="#263238"/>
<path d="M192.798 94.6897C192.798 94.6897 192.798 94.8951 192.764 95.283C192.73 95.6709 192.638 96.2414 192.478 96.9717C192.159 98.4207 191.462 100.509 190.081 102.802C188.676 105.073 186.529 107.549 183.492 109.431C180.477 111.325 176.561 112.443 172.45 112.329C168.339 112.204 164.491 110.869 161.591 108.804C158.668 106.761 156.67 104.16 155.391 101.809C154.135 99.4362 153.564 97.3254 153.324 95.8535C153.21 95.1119 153.141 94.5414 153.13 94.1534C153.107 93.7655 153.107 93.5601 153.13 93.5601C153.198 93.5601 153.244 94.3816 153.552 95.8193C153.861 97.2569 154.489 99.3221 155.756 101.615C157.047 103.886 159.045 106.396 161.899 108.359C164.731 110.344 168.465 111.61 172.462 111.736C176.458 111.839 180.261 110.777 183.195 108.963C186.164 107.161 188.288 104.776 189.715 102.574C191.12 100.349 191.862 98.3294 192.25 96.9146C192.638 95.4884 192.73 94.6783 192.798 94.6783V94.6897Z" fill="#263238"/>
<path d="M123.088 139.861C123.248 139.861 123.385 147.745 123.396 157.466C123.396 167.187 123.27 175.072 123.111 175.072C122.951 175.072 122.814 167.187 122.802 157.466C122.802 147.745 122.928 139.861 123.088 139.861Z" fill="#263238"/>
<path d="M156.807 91.5292H190.72C190.72 91.5292 221.379 102.426 231.347 110.07C241.316 117.703 256.605 171.5 256.605 171.5L225.981 170.599L223.686 216.797C192.319 239.115 154.672 237.483 125.6 217.949L123.327 174.216C123.327 174.216 106.439 173.725 97.8183 173.463C89.1973 173.2 88.7976 170.839 88.7976 170.839C88.7976 170.839 108.403 119.369 114.387 109.408C119.594 100.725 149.91 92.9782 156.807 91.5292Z" fill="#263238"/>
<path d="M238.393 122.393C238.393 122.393 238.004 122.689 237.182 123.1C236.36 123.511 235.058 123.99 233.311 124.173C231.564 124.367 229.383 124.252 226.963 123.659C224.53 123.1 221.893 121.993 219.084 120.658C216.263 119.346 213.226 117.76 209.709 116.825C206.204 115.878 202.23 115.935 198.279 116.962C194.317 117.966 190.389 119.814 186.472 121.948C182.556 124.104 178.582 126.546 174.22 128.497C169.87 130.437 165.222 131.726 160.666 131.498C156.122 131.304 151.897 129.912 148.117 128.292C144.315 126.66 140.889 124.743 137.623 123.1C134.369 121.446 131.263 120.019 128.317 119.061C122.414 117.099 117.207 117.224 113.873 118.103C112.194 118.525 110.95 119.061 110.127 119.46C109.716 119.654 109.42 119.848 109.214 119.951C109.008 120.065 108.894 120.111 108.894 120.111C108.894 120.111 108.986 120.031 109.18 119.905C109.385 119.78 109.671 119.574 110.07 119.369C110.87 118.924 112.114 118.354 113.816 117.886C117.173 116.927 122.46 116.733 128.443 118.673C131.435 119.62 134.563 121.023 137.84 122.666C141.129 124.298 144.555 126.192 148.334 127.789C152.091 129.387 156.247 130.745 160.7 130.916C165.142 131.133 169.687 129.877 173.992 127.961C178.308 126.032 182.27 123.602 186.21 121.446C190.149 119.301 194.123 117.441 198.165 116.437C202.184 115.398 206.284 115.364 209.858 116.345C213.443 117.315 216.48 118.935 219.289 120.27C222.087 121.64 224.668 122.746 227.065 123.328C229.452 123.944 231.587 124.093 233.311 123.933C235.036 123.785 236.326 123.351 237.159 122.986C237.993 122.621 238.404 122.358 238.427 122.393H238.393Z" fill="#FAFAFA"/>
<path d="M249.526 148.167C249.526 148.167 249.046 147.871 248.064 147.437C247.094 147.004 245.609 146.444 243.588 146.216C241.59 145.965 239.078 146.068 236.292 146.752C233.506 147.426 230.491 148.783 227.351 150.598C224.199 152.389 220.934 154.671 217.177 156.77C213.443 158.813 209.093 160.775 204.171 160.889C199.261 161.072 194.306 159.36 189.544 157.25C184.748 155.162 179.918 152.617 174.54 151.373C169.162 150.164 163.681 150.483 158.554 151.351C153.404 152.206 148.563 153.61 143.904 154.842C139.256 156.074 134.792 157.147 130.521 157.649C126.262 158.151 122.208 158.128 118.6 157.421C111.361 156.006 106.302 152.263 103.79 149.08C102.477 147.506 101.815 146.034 101.347 145.075L100.924 143.934C100.833 143.672 100.787 143.546 100.799 143.535C100.913 143.466 101.381 145.794 103.962 148.932C106.485 152.035 111.521 155.675 118.669 157.01C122.22 157.672 126.228 157.683 130.441 157.158C134.666 156.633 139.108 155.561 143.744 154.317C148.38 153.085 153.244 151.659 158.428 150.78C163.59 149.89 169.15 149.571 174.643 150.792C180.124 152.058 184.977 154.625 189.75 156.713C194.488 158.824 199.353 160.501 204.126 160.342C208.899 160.25 213.192 158.345 216.903 156.337C220.637 154.283 223.925 152.012 227.1 150.232C230.274 148.43 233.323 147.083 236.166 146.433C238.998 145.771 241.544 145.703 243.577 145.988C245.609 146.25 247.105 146.855 248.076 147.323C249.046 147.802 249.48 148.156 249.48 148.156L249.526 148.167Z" fill="#FAFAFA"/>
<path d="M224.976 190.463C224.976 190.463 224.668 190.68 224.005 190.931C223.343 191.182 222.315 191.422 220.957 191.41C219.609 191.399 217.965 191.102 216.172 190.418C214.38 189.745 212.484 188.683 210.372 187.599C208.271 186.504 205.85 185.523 203.098 185.146C200.357 184.724 197.354 184.793 194.271 185.283C188.048 186.207 181.688 189.071 174.883 191.639C171.468 192.916 168.043 193.966 164.652 194.605C161.272 195.267 157.949 195.598 154.786 195.7C148.449 195.872 142.762 195.016 138.138 193.829C133.502 192.654 129.916 191.137 127.518 189.973C126.296 189.425 125.417 188.889 124.789 188.558C124.515 188.398 124.287 188.273 124.093 188.159C123.933 188.067 123.864 188.01 123.864 188.01C123.864 188.01 123.956 188.033 124.115 188.113C124.31 188.204 124.549 188.318 124.835 188.455C125.474 188.752 126.376 189.254 127.598 189.767C130.019 190.863 133.604 192.323 138.217 193.43C142.831 194.548 148.471 195.358 154.752 195.153C157.88 195.039 161.169 194.696 164.514 194.035C167.872 193.384 171.251 192.346 174.654 191.079C181.425 188.535 187.843 185.66 194.169 184.747C197.309 184.268 200.357 184.222 203.155 184.667C205.964 185.078 208.453 186.116 210.554 187.234C212.667 188.353 214.528 189.425 216.275 190.11C218.022 190.806 219.621 191.125 220.945 191.171C223.617 191.262 224.942 190.361 224.953 190.452L224.976 190.463Z" fill="#FAFAFA"/>
<path d="M223.994 214.39C223.937 214.447 223.08 213.169 220.979 211.469C218.89 209.826 215.35 207.772 210.52 207.327C208.134 207.087 205.462 207.327 202.79 208.24C200.129 209.198 197.537 210.818 195.048 212.804C192.547 214.789 190.104 217.117 187.386 219.33C184.68 221.532 181.585 223.632 177.966 224.727C174.346 225.799 170.612 225.856 167.129 225.411C163.635 224.966 160.347 224.077 157.275 223.141C151.12 221.258 145.765 219.022 141.106 217.71C136.459 216.364 132.485 216.09 129.813 216.535C127.141 216.945 125.783 217.664 125.748 217.573C125.748 217.573 125.828 217.516 126 217.447C126.205 217.368 126.445 217.253 126.753 217.128C127.084 216.98 127.495 216.831 128.009 216.706C128.512 216.557 129.105 216.398 129.779 216.306C132.474 215.782 136.516 216.01 141.221 217.311C145.936 218.577 151.292 220.779 157.435 222.627C160.495 223.552 163.761 224.419 167.198 224.841C170.635 225.275 174.289 225.218 177.794 224.168C181.311 223.107 184.337 221.076 187.021 218.896C189.715 216.706 192.182 214.39 194.717 212.393C197.24 210.396 199.901 208.753 202.641 207.783C205.393 206.871 208.134 206.631 210.577 206.916C215.499 207.43 219.061 209.575 221.139 211.298C223.217 213.078 224.005 214.401 224.005 214.401L223.994 214.39Z" fill="#FAFAFA"/>
<g opacity="0.2">
<path opacity="0.2" d="M122.266 209.883C129.151 210.419 135.283 205.798 140.387 201.154C145.502 196.511 150.835 191.342 157.675 190.361C164.834 189.334 172.119 193.213 179.21 191.787C182.407 191.148 185.388 189.459 188.642 189.334C194.009 189.128 198.508 193.11 202.367 196.841C207.391 201.691 212.404 206.54 217.428 211.389C218.97 212.872 221.893 215.097 223.823 214.173L224.2 206.677C221.79 193.179 219.175 179.305 208.773 170.371C201.054 163.742 190.549 161.46 180.432 160.307C168.18 158.915 154.911 159.075 144.623 165.875C137.761 170.405 132.919 177.513 129.745 185.101C126.57 192.688 124.926 200.801 123.305 208.856" fill="black"/>
</g>
<path d="M254.105 171.42C254.402 173.2 259.346 201.702 258.455 207.338C257.565 212.975 256.08 220.391 249.549 223.05C243.017 225.72 233.528 222.16 228.185 212.963C222.841 203.767 199.695 171.455 199.695 171.455L182.487 169.378V140.614L215.43 161.562L230.56 175.288L229.406 170.69L254.116 171.42H254.105Z" fill="#EB996E"/>
<path d="M189.91 125.336H163.921C161.789 125.336 160.061 127.063 160.061 129.193V176.041C160.061 178.171 161.789 179.898 163.921 179.898H189.91C192.041 179.898 193.769 178.171 193.769 176.041V129.193C193.769 127.063 192.041 125.336 189.91 125.336Z" fill="#455A64"/>
<path d="M213.968 160.844C214.083 160.718 221.242 166.902 229.954 174.649C238.678 182.397 245.655 188.786 245.552 188.912C245.438 189.037 238.29 182.853 229.555 175.094C220.831 167.347 213.854 160.958 213.957 160.844H213.968Z" fill="#E07646"/>
<path d="M93.2738 173.041C93.2738 173.041 89.1631 208.468 89.1631 212.507C89.1631 216.546 92.7942 226.233 102.9 227.043C112.994 227.853 125.931 205.25 125.931 205.25L146.941 173.36L137.646 156.006L119.479 174.102L93.2738 173.041Z" fill="#EB996E"/>
<path d="M187.066 146.661L159.867 145.908L137.646 155.994L146.941 173.349L163.201 170.987C163.201 170.987 172.713 169.435 173.295 168.853C174.392 167.758 175.339 164.392 176.002 161.471C176.664 158.493 176.333 155.378 175.042 152.617L174.426 152.092C174.426 152.092 183.378 150.221 184.862 149.571C188.425 147.996 187.066 146.661 187.066 146.661Z" fill="#EB996E"/>
<path d="M137.646 155.994C137.646 155.994 137.292 156.485 136.585 157.284C135.877 158.094 134.826 159.223 133.513 160.615C130.887 163.399 127.164 167.165 123.008 171.272C118.897 175.345 115.175 179.031 112.377 181.803C111.087 183.093 110.002 184.177 109.168 185.009C108.403 185.762 107.97 186.162 107.947 186.139C107.912 186.116 108.301 185.648 109.009 184.85C109.717 184.04 110.767 182.91 112.08 181.518C114.706 178.734 118.429 174.969 122.597 170.861C126.707 166.788 130.43 163.103 133.227 160.33C134.518 159.041 135.603 157.957 136.436 157.124C137.201 156.371 137.635 155.972 137.658 155.994H137.646Z" fill="#E07646"/>
<path d="M164.446 154.728C164.343 154.625 166.387 152.937 169.527 152.332C172.656 151.693 175.202 152.48 175.145 152.606C175.122 152.788 172.633 152.298 169.653 152.914C166.661 153.484 164.549 154.888 164.457 154.728H164.446Z" fill="#E07646"/>
<path d="M176.687 157.763C176.63 157.934 174.506 157.09 171.788 157.364C169.07 157.592 167.129 158.801 167.049 158.641C166.935 158.539 168.842 157.021 171.742 156.782C174.631 156.508 176.778 157.66 176.687 157.774V157.763Z" fill="#E07646"/>
<path d="M174.974 162.76C174.917 162.829 174.609 162.635 174.095 162.441C173.581 162.247 172.839 162.121 172.017 162.224C171.194 162.338 170.509 162.669 170.075 162.989C169.63 163.308 169.39 163.571 169.322 163.525C169.265 163.491 169.379 163.114 169.813 162.669C170.235 162.224 171.012 161.768 171.948 161.642C172.896 161.517 173.752 161.745 174.289 162.064C174.826 162.384 175.031 162.715 174.985 162.76H174.974Z" fill="#E07646"/>
<path d="M174.768 108.598C183.789 108.073 190.8 100.577 190.72 91.552C190.674 86.1324 190.606 81.4886 190.606 81.4886C190.606 81.4886 204.365 79.355 204.537 65.6062C204.708 51.8688 202.321 20.3094 202.321 20.3094C186.404 13.475 168.02 15.7797 154.295 26.3452L152.262 27.9083L156.91 92.9212C157.572 102.152 165.531 109.134 174.768 108.61V108.598Z" fill="#EB996E"/>
<path d="M190.629 81.2832C190.629 81.2832 181.939 81.9906 172.701 76.1945C172.701 76.1945 176.938 86.0867 190.663 84.8431L190.629 81.2832Z" fill="#E07646"/>
<path d="M153.952 42.1363C153.712 42.0336 144.498 39.3409 144.806 48.7426C145.103 58.1328 154.489 55.8965 154.489 55.6341C154.489 55.3602 153.952 42.1477 153.952 42.1477V42.1363Z" fill="#EB996E"/>
<path d="M151.497 52.1541C151.497 52.1541 151.337 52.2682 151.063 52.4051C150.801 52.542 150.332 52.6333 149.841 52.4736C148.837 52.1427 147.946 50.5909 147.855 48.9023C147.797 48.0466 147.957 47.2251 148.243 46.5405C148.505 45.8445 148.939 45.3539 149.43 45.2398C149.921 45.1143 150.287 45.3995 150.412 45.6619C150.549 45.9244 150.492 46.1069 150.538 46.1297C150.561 46.1525 150.732 45.97 150.652 45.5821C150.606 45.3995 150.492 45.1827 150.264 45.0002C150.035 44.829 149.693 44.7377 149.35 44.7948C148.631 44.8632 147.992 45.5592 147.683 46.3009C147.329 47.0539 147.147 47.9781 147.204 48.9365C147.329 50.8306 148.346 52.5648 149.727 52.9185C150.389 53.0669 150.938 52.8501 151.212 52.6219C151.497 52.3823 151.543 52.1655 151.508 52.1541H151.497Z" fill="#E07646"/>
<path d="M197.811 43.4713C197.845 44.5095 197 45.3881 195.916 45.4566C194.831 45.5136 193.929 44.7263 193.895 43.688C193.86 42.6498 194.705 41.7598 195.79 41.7027C196.875 41.6457 197.777 42.433 197.811 43.4713Z" fill="#263238"/>
<path d="M199.718 39.6376C199.478 39.8886 197.982 38.7932 195.87 38.7932C193.758 38.7704 192.205 39.8544 191.976 39.5919C191.862 39.4778 192.113 39.01 192.787 38.5194C193.449 38.0288 194.591 37.5496 195.904 37.561C197.217 37.561 198.325 38.0516 198.964 38.5536C199.615 39.0557 199.832 39.5121 199.718 39.6262V39.6376Z" fill="#263238"/>
<path d="M176.63 43.7223C176.664 44.7606 175.819 45.6391 174.734 45.7076C173.649 45.7646 172.747 44.9773 172.713 43.939C172.679 42.9008 173.524 42.0108 174.608 41.9538C175.693 41.8967 176.595 42.684 176.63 43.7223Z" fill="#263238"/>
<path d="M178.948 40.0255C178.708 40.2765 177.212 39.1812 175.099 39.1812C172.987 39.1584 171.434 40.2423 171.206 39.9799C171.092 39.8658 171.343 39.398 172.016 38.9074C172.679 38.4167 173.809 37.9375 175.134 37.9489C176.447 37.9489 177.554 38.4396 178.194 38.9416C178.845 39.4436 179.062 39.9 178.948 40.0141V40.0255Z" fill="#263238"/>
<path d="M186.621 55.6911C186.621 55.5656 187.923 55.3488 190.058 55.075C190.595 55.018 191.108 54.9153 191.2 54.5387C191.325 54.1508 191.097 53.5689 190.834 52.9414C190.332 51.6407 189.795 50.2715 189.236 48.8339C187.021 42.9921 185.411 38.1771 185.65 38.0973C185.89 38.006 187.877 42.684 190.092 48.5258C190.629 49.9634 191.131 51.344 191.622 52.6561C191.828 53.2723 192.182 53.9683 191.908 54.7669C191.759 55.1663 191.371 55.4629 191.017 55.5542C190.675 55.6569 190.366 55.6683 190.104 55.6797C187.957 55.7938 186.632 55.8052 186.621 55.6797V55.6911Z" fill="#263238"/>
<path d="M180.398 57.1516C180.74 57.1287 180.74 59.4221 182.704 61.0537C184.668 62.6853 187.112 62.4229 187.123 62.7538C187.158 62.9021 186.575 63.1987 185.548 63.2216C184.531 63.2558 183.058 62.9363 181.859 61.9323C180.66 60.9396 180.147 59.6047 180.067 58.6576C179.975 57.6992 180.238 57.1287 180.386 57.1402L180.398 57.1516Z" fill="#263238"/>
<path d="M179.496 31.7534C179.29 32.3239 177.178 32.0501 174.7 32.3581C172.211 32.6091 170.212 33.328 169.881 32.8145C169.733 32.5635 170.087 32.0272 170.886 31.4682C171.685 30.9091 172.964 30.3842 174.46 30.2245C175.945 30.0648 177.315 30.293 178.217 30.6695C179.13 31.0346 179.587 31.491 179.496 31.7648V31.7534Z" fill="#E8505B"/>
<path d="M198.942 33.5219C198.565 34.0011 197.115 33.4991 195.368 33.4763C193.62 33.3964 192.136 33.7957 191.794 33.2937C191.645 33.0541 191.873 32.5749 192.524 32.1185C193.164 31.6621 194.226 31.297 195.436 31.3312C196.635 31.3655 197.686 31.799 198.291 32.3011C198.907 32.7917 199.113 33.2937 198.953 33.5219H198.942Z" fill="#E8505B"/>
<path d="M209.024 11.6266C209.172 9.92651 208.533 8.08954 207.151 7.09689C205.758 6.09283 203.612 6.16129 202.481 7.45059C203.132 5.15723 201.248 2.51016 198.873 2.36183C196.635 2.22492 194.717 3.91356 192.547 4.50687C190.435 5.08877 188.162 4.58674 186.13 3.76524C184.097 2.94373 182.19 1.81416 180.135 1.06112C175.842 -0.502019 170.92 -0.308053 166.764 1.59738C162.607 3.50281 159.25 7.09689 157.64 11.3756C154.637 10.44 151.212 11.9575 149.362 14.5132C147.512 17.0576 147.032 20.4007 147.398 23.527C147.649 25.6378 148.254 27.6801 148.974 29.6882C148.974 29.8594 148.951 30.0419 148.962 30.2131C149.099 37.7664 149.956 46.6432 153.187 46.6888C158.805 46.7801 157.469 36.1918 157.469 36.1918C164.366 33.5219 161.797 23.1961 163.521 21.6329C165.245 20.0698 168.853 16.4187 183.309 23.8008C188.916 26.6646 196.384 26.5734 200.449 25.6492C200.563 25.6264 200.688 25.6035 200.803 25.5807C200.825 25.5807 200.86 25.5807 200.883 25.5579C200.928 25.5579 200.962 25.5237 200.997 25.5123C202.298 25.17 203.543 24.6679 204.708 23.9377C206.021 23.1048 207.208 21.9866 207.757 20.549C208.316 19.1 208.099 17.2972 206.969 16.2475C208.031 14.9126 208.876 13.3266 209.013 11.6266H209.024Z" fill="#E8505B"/>
<path d="M491.189 467.766L343.067 467.082C325.254 467.002 310.878 452.512 310.947 434.701L312.511 63.6551C312.591 45.8445 327.104 31.4682 344.928 31.548L493.05 32.2326C510.863 32.3125 525.239 46.8029 525.171 64.6135L523.607 435.659C523.527 453.47 509.014 467.846 491.189 467.766Z" fill="#263238"/>
<path d="M492.845 45.0458L464.127 44.9089C460.279 44.8861 457.139 48.1378 457.127 52.1655L457.105 57.3683C457.093 61.396 453.953 64.6364 450.105 64.625L394.131 64.3625C390.283 64.3397 387.177 61.0651 387.189 57.0489L387.211 51.846C387.223 47.8184 384.117 44.5438 380.269 44.5324L370.163 44.4867L345.031 44.3726C332.551 44.3156 322.388 54.379 322.331 66.8613L320.801 429.03C320.744 441.501 330.815 451.644 343.295 451.701L491.121 452.386C503.601 452.443 513.764 442.38 513.821 429.897L515.351 67.7284C515.408 55.2575 505.337 45.1143 492.856 45.0572L492.845 45.0458Z" fill="#FAFAFA"/>
<path d="M356.964 102.311C356.964 106.236 353.778 109.408 349.861 109.408C345.945 109.408 342.759 106.225 342.759 102.311C342.759 98.3979 345.945 95.2146 349.861 95.2146C353.778 95.2146 356.964 98.3979 356.964 102.311Z" fill="#E8505B"/>
<path d="M370.221 96.9717H489.419C493.062 96.9717 496.019 99.9268 496.019 103.567V121.605C496.019 125.245 493.062 128.2 489.419 128.2H382.655C379.013 128.2 376.056 125.245 376.056 121.605V102.22L370.209 96.9717H370.221Z" fill="#E8505B"/>
<path d="M476.905 108.165C476.905 108.324 458.601 108.461 436.026 108.461C413.452 108.461 395.147 108.324 395.147 108.165C395.147 108.005 413.44 107.868 436.026 107.868C458.612 107.868 476.905 108.005 476.905 108.165Z" fill="white"/>
<path d="M476.905 115.524C476.905 115.684 458.601 115.821 436.026 115.821C413.452 115.821 395.147 115.684 395.147 115.524C395.147 115.364 413.44 115.227 436.026 115.227C458.612 115.227 476.905 115.364 476.905 115.524Z" fill="white"/>
<path d="M356.964 276.949C356.964 280.874 353.778 284.046 349.861 284.046C345.945 284.046 342.759 280.863 342.759 276.949C342.759 273.036 345.945 269.853 349.861 269.853C353.778 269.853 356.964 273.036 356.964 276.949Z" fill="#E8505B"/>
<path d="M370.221 271.61H489.419C493.062 271.61 496.019 274.565 496.019 278.205V296.243C496.019 299.883 493.062 302.838 489.419 302.838H382.655C379.013 302.838 376.056 299.883 376.056 296.243V276.858L370.209 271.61H370.221Z" fill="#E8505B"/>
<path d="M476.905 282.803C476.905 282.962 458.601 283.099 436.026 283.099C413.452 283.099 395.147 282.962 395.147 282.803C395.147 282.643 413.44 282.506 436.026 282.506C458.612 282.506 476.905 282.643 476.905 282.803Z" fill="white"/>
<path d="M476.905 290.162C476.905 290.322 458.601 290.459 436.026 290.459C413.452 290.459 395.147 290.322 395.147 290.162C395.147 290.002 413.44 289.865 436.026 289.865C458.612 289.865 476.905 290.002 476.905 290.162Z" fill="white"/>
<path d="M481.712 163.844C485.565 163.844 488.688 160.723 488.688 156.873C488.688 153.023 485.565 149.902 481.712 149.902C477.858 149.902 474.735 153.023 474.735 156.873C474.735 160.723 477.858 163.844 481.712 163.844Z" fill="#455A64"/>
<path d="M464.881 147.072H353.241C349.827 147.072 347.063 149.833 347.063 153.245V170.143C347.063 173.554 349.827 176.315 353.241 176.315H453.234C456.648 176.315 459.411 173.554 459.411 170.143V151.99L464.881 147.072Z" fill="#455A64"/>
<path d="M364.956 157.558C364.956 157.398 382.096 157.261 403.243 157.261C424.39 157.261 441.529 157.398 441.529 157.558C441.529 157.717 424.39 157.854 403.243 157.854C382.096 157.854 364.956 157.717 364.956 157.558Z" fill="white"/>
<path d="M364.956 164.449C364.956 164.289 382.096 164.152 403.243 164.152C424.39 164.152 441.529 164.289 441.529 164.449C441.529 164.609 424.39 164.746 403.243 164.746C382.096 164.746 364.956 164.609 364.956 164.449Z" fill="white"/>
<path d="M342.759 206.026C342.759 209.951 345.945 213.123 349.861 213.123C353.778 213.123 356.964 209.94 356.964 206.026C356.964 202.113 353.778 198.929 349.861 198.929C345.945 198.929 342.759 202.113 342.759 206.026Z" fill="#263238"/>
<path d="M374.651 195.746H486.291C489.705 195.746 492.468 198.507 492.468 201.919V218.817C492.468 222.228 489.705 224.989 486.291 224.989H386.298C382.884 224.989 380.12 222.228 380.12 218.817V200.664L374.651 195.746Z" fill="#263238"/>
<path d="M474.564 206.232C474.564 206.391 457.424 206.528 436.277 206.528C415.13 206.528 397.99 206.391 397.99 206.232C397.99 206.072 415.13 205.935 436.277 205.935C457.424 205.935 474.564 206.072 474.564 206.232Z" fill="white"/>
<path d="M474.564 213.123C474.564 213.283 457.424 213.42 436.277 213.42C415.13 213.42 397.99 213.283 397.99 213.123C397.99 212.963 415.13 212.827 436.277 212.827C457.424 212.827 474.564 212.963 474.564 213.123Z" fill="white"/>
<path d="M483.482 238.841H456.534C454.018 238.841 451.978 240.879 451.978 243.393V253.126C451.978 255.64 454.018 257.678 456.534 257.678H483.482C485.998 257.678 488.038 255.64 488.038 253.126V243.393C488.038 240.879 485.998 238.841 483.482 238.841Z" fill="#263238"/>
<path d="M481.621 248.265C481.621 248.425 476.882 248.562 471.035 248.562C465.189 248.562 460.45 248.425 460.45 248.265C460.45 248.106 465.189 247.969 471.035 247.969C476.882 247.969 481.621 248.106 481.621 248.265Z" fill="white"/>
<path d="M352.088 364.086H334.435V381.725H352.088V364.086Z" fill="#E0E0E0"/>
<path d="M373.086 364.086H355.433V381.725H373.086V364.086Z" fill="#E0E0E0"/>
<path d="M394.097 364.086H376.444V381.725H394.097V364.086Z" fill="#E0E0E0"/>
<path d="M415.096 364.086H397.442V381.725H415.096V364.086Z" fill="#E0E0E0"/>
<path d="M436.094 364.086H418.441V381.725H436.094V364.086Z" fill="#E0E0E0"/>
<path d="M352.887 407.614H334.435V426.052H352.887V407.614Z" fill="#E0E0E0"/>
<path d="M445.423 407.66H356.393V426.098H445.423V407.66Z" fill="#E0E0E0"/>
<path d="M499.319 358.963C499.319 358.963 499.308 358.506 499.296 357.628C499.296 356.738 499.274 355.437 499.262 353.737C499.239 350.303 499.217 345.248 499.182 338.653L499.319 338.79C469.471 338.825 406.806 338.882 334.446 338.95L334.743 338.653C334.743 345.613 334.743 352.482 334.743 358.963L334.446 358.666C380.828 358.712 422.015 358.757 451.601 358.792C466.411 358.826 478.32 358.86 486.542 358.883C490.641 358.906 493.827 358.917 495.996 358.929C497.07 358.929 497.892 358.94 498.463 358.951C499.022 358.951 499.319 358.974 499.319 358.974C499.319 358.974 499.057 358.986 498.509 358.997C497.949 358.997 497.138 358.997 496.088 359.02C493.93 359.02 490.767 359.043 486.69 359.066C478.48 359.088 466.594 359.111 451.818 359.157C422.164 359.191 380.92 359.237 334.446 359.282H334.149V358.986C334.149 352.505 334.149 345.636 334.149 338.676V338.38H334.457C406.817 338.448 469.482 338.517 499.331 338.539H499.468V338.676C499.433 345.294 499.411 350.383 499.388 353.828C499.376 355.517 499.365 356.806 499.354 357.696C499.354 358.563 499.331 358.986 499.331 358.986L499.319 358.963Z" fill="#263238"/>
<path d="M487.843 342.259H486.999C486.065 342.259 485.309 343.015 485.309 343.948V348.956C485.309 349.889 486.065 350.645 486.999 350.645H487.843C488.777 350.645 489.533 349.889 489.533 348.956V343.948C489.533 343.015 488.777 342.259 487.843 342.259Z" fill="#E8505B"/>
<path d="M492.537 348.991C492.537 349.059 492.046 349.116 491.189 349.162L491.361 349.002C491.315 349.71 491.132 350.657 490.504 351.615C490.184 352.083 489.739 352.539 489.145 352.836C488.563 353.144 487.866 353.235 487.181 353.212C485.834 353.19 484.681 352.379 484.064 351.501C483.436 350.611 483.151 349.732 483.025 349.025L483.196 349.173C482.214 349.128 481.643 349.059 481.643 348.991C481.643 348.922 482.214 348.865 483.196 348.808H483.333L483.379 348.956C483.562 349.573 483.893 350.406 484.487 351.181C485.08 351.946 486.039 352.596 487.216 352.619C487.809 352.642 488.403 352.562 488.894 352.322C489.385 352.083 489.773 351.718 490.07 351.318C490.653 350.508 490.904 349.618 491.018 348.979L491.052 348.82H491.189C492.046 348.877 492.537 348.934 492.537 348.991Z" fill="#E8505B"/>
<path d="M487.421 352.927C487.581 352.927 487.718 353.509 487.718 354.216C487.718 354.924 487.581 355.506 487.421 355.506C487.261 355.506 487.124 354.924 487.124 354.216C487.124 353.509 487.261 352.927 487.421 352.927Z" fill="#E8505B"/>
<path d="M466.879 407.614H448.427V426.052H466.879V407.614Z" fill="#E0E0E0"/>
<path d="M499.308 407.614H470.373V426.052H499.308V407.614Z" fill="#E8505B"/>
<path d="M457.31 364.086H439.657V381.725H457.31V364.086Z" fill="#E0E0E0"/>
<path d="M478.309 364.086H460.656V381.725H478.309V364.086Z" fill="#E0E0E0"/>
<path d="M499.308 364.086H481.655V381.725H499.308V364.086Z" fill="#E0E0E0"/>
<path d="M352.088 385.844H334.435V403.484H352.088V385.844Z" fill="#E0E0E0"/>
<path d="M373.086 385.844H355.433V403.484H373.086V385.844Z" fill="#E0E0E0"/>
<path d="M394.097 385.844H376.444V403.484H394.097V385.844Z" fill="#E0E0E0"/>
<path d="M415.096 385.844H397.442V403.484H415.096V385.844Z" fill="#E0E0E0"/>
<path d="M436.094 385.844H418.441V403.484H436.094V385.844Z" fill="#E0E0E0"/>
<path d="M457.31 385.844H439.657V403.484H457.31V385.844Z" fill="#E0E0E0"/>
<path d="M478.309 385.844H460.656V403.484H478.309V385.844Z" fill="#E0E0E0"/>
<path d="M499.308 385.844H481.655V403.484H499.308V385.844Z" fill="#E0E0E0"/>
<path d="M413.52 323.399C413.52 325.064 412.138 326.411 410.46 326.399C408.781 326.399 407.411 325.03 407.422 323.364C407.422 321.699 408.804 320.352 410.483 320.364C412.161 320.364 413.531 321.733 413.52 323.399Z" fill="#E8505B"/>
<path d="M422.975 323.433C422.975 325.099 421.593 326.445 419.914 326.434C418.224 326.434 416.866 325.064 416.877 323.399C416.877 321.733 418.259 320.386 419.937 320.398C421.616 320.398 422.986 321.767 422.975 323.433Z" fill="#E8505B"/>
<path d="M432.418 323.478C432.418 325.144 431.036 326.491 429.357 326.479C427.668 326.479 426.309 325.11 426.32 323.444C426.32 321.778 427.702 320.432 429.38 320.443C431.059 320.455 432.429 321.813 432.418 323.478Z" fill="#E8505B"/>
</svg>
