<svg width="17" height="17" viewBox="0 0 17 17" fill="none" xmlns="http://www.w3.org/2000/svg">
<g clip-path="url(#clip0_57_281)">
<path d="M17 8.5C17 3.80554 13.1945 0 8.5 0C3.80554 0 0 3.80554 0 8.5C0 12.7428 3.10882 16.26 7.17383 16.8991V10.9601H5.01639V8.50481H7.17383V6.63087C7.17383 4.50226 8.44234 3.32504 10.3835 3.32504C11.3157 3.32504 12.2863 3.49322 12.2863 3.49322V5.58338H11.2148C10.1577 5.58338 9.83098 6.23686 9.83098 6.90955V8.50481H12.1902L11.8154 10.9601H9.83578V16.8991C13.9008 16.26 17.0096 12.7428 17.0096 8.5H17Z" fill="#F4F4F4"/>
<path d="M11.8106 10.9553L12.1854 8.49995H9.82617V6.9047C9.82617 6.23201 10.1577 5.57853 11.21 5.57853H12.2815V3.48836C12.2815 3.48836 11.3109 3.32019 10.3787 3.32019C8.43754 3.32019 7.16902 4.49741 7.16902 6.62601V8.49995H5.01159V10.9553H7.16902V16.8942C7.60147 16.9615 8.04353 17 8.4952 17C8.94686 17 9.38892 16.9663 9.82137 16.8942V10.9553H11.801H11.8106Z" fill="#272727"/>
</g>
<defs>
<clipPath id="clip0_57_281">
<rect width="17" height="17" fill="white"/>
</clipPath>
</defs>
</svg>
