<svg width="17" height="17" viewBox="0 0 17 17" fill="none" xmlns="http://www.w3.org/2000/svg">
<path d="M8.5 17C13.1944 17 17 13.1944 17 8.5C17 3.80558 13.1944 0 8.5 0C3.80558 0 0 3.80558 0 8.5C0 13.1944 3.80558 17 8.5 17Z" fill="#F4F4F4"/>
<path d="M11.1379 5.28552C10.816 5.28552 10.5517 5.54499 10.5517 5.87173C10.5517 6.19847 10.8112 6.45794 11.1379 6.45794C11.4647 6.45794 11.7241 6.19847 11.7241 5.87173C11.7241 5.54499 11.4647 5.28552 11.1379 5.28552Z" fill="#272727"/>
<path d="M8.54324 6.03516C7.18824 6.03516 6.0879 7.1355 6.0879 8.4905C6.0879 9.8455 7.18824 10.9458 8.54324 10.9458C9.89825 10.9458 10.9986 9.8455 10.9986 8.4905C10.9986 7.1355 9.89825 6.03516 8.54324 6.03516ZM8.54324 10.0617C7.67835 10.0617 6.97202 9.35539 6.97202 8.4905C6.97202 7.6256 7.67835 6.91927 8.54324 6.91927C9.40814 6.91927 10.1145 7.6256 10.1145 8.4905C10.1145 9.35539 9.40814 10.0617 8.54324 10.0617Z" fill="#272727"/>
<path d="M10.4893 13.4732H6.51074C4.85783 13.4732 3.51724 12.1278 3.51724 10.4797V6.50119C3.51724 4.84828 4.85783 3.50769 6.51074 3.50769H10.4893C12.1422 3.50769 13.4828 4.84828 13.4828 6.50119V10.4797C13.4828 12.1326 12.1374 13.4732 10.4893 13.4732ZM6.51074 4.44466C5.37677 4.44466 4.45421 5.36722 4.45421 6.50119V10.4797C4.45421 11.6137 5.37677 12.5362 6.51074 12.5362H10.4893C11.6232 12.5362 12.5458 11.6137 12.5458 10.4797V6.50119C12.5458 5.36722 11.6232 4.44466 10.4893 4.44466H6.51074Z" fill="#272727"/>
</svg>
