<?xml version="1.0" encoding="UTF-8"?><svg id="a" xmlns="http://www.w3.org/2000/svg" viewBox="0 0 70 70"><defs><style>.b{fill:#231f20;}</style></defs><path class="b" d="M34.98,57.55c-.36,0-.71-.1-1.02-.29L1.07,36.63c-.57-.35-.9-.96-.9-1.63s.34-1.28,.9-1.63L33.95,12.74c.63-.39,1.43-.39,2.06,0l32.93,20.92c.56,.36,.9,.97,.89,1.64,0,.67-.35,1.28-.91,1.63l-32.92,20.33c-.31,.19-.66,.29-1.01,.29ZM2.51,35l32.47,20.37,32.51-20.08L34.98,14.63,2.51,35Z"/><path class="b" d="M63.33,55.13c-.21,0-.41-.06-.6-.18L5.04,16.32c-.49-.33-.62-1-.29-1.49s1-.62,1.49-.29L63.93,53.17c.49,.33,.62,1,.29,1.49-.21,.31-.55,.48-.89,.48Z"/><path class="b" d="M5.64,55.13c-.35,0-.69-.17-.89-.48-.33-.49-.2-1.16,.29-1.49L62.73,14.53c.49-.33,1.16-.2,1.49,.29,.33,.49,.2,1.16-.29,1.49L6.24,54.95c-.18,.12-.39,.18-.6,.18Z"/></svg>