<svg width="17" height="17" viewBox="0 0 17 17" fill="none" xmlns="http://www.w3.org/2000/svg">
<path d="M8.5 17C13.1944 17 17 13.1944 17 8.5C17 3.80558 13.1944 0 8.5 0C3.80558 0 0 3.80558 0 8.5C0 13.1944 3.80558 17 8.5 17Z" fill="#F4F4F4"/>
<path d="M13.1993 5.58825C12.9062 5.72279 12.5794 5.80447 12.2623 5.85732C12.4112 5.8333 12.6323 5.55942 12.7236 5.4489C12.8581 5.28073 12.9734 5.08853 13.0359 4.88191C13.0455 4.8675 13.0503 4.84348 13.0359 4.83387C13.0167 4.82426 13.0023 4.83387 12.9878 4.83387C12.6323 5.02606 12.2671 5.1606 11.8779 5.26151C11.8443 5.27112 11.8202 5.26151 11.801 5.24229C11.7674 5.20385 11.7386 5.17021 11.7049 5.14138C11.5415 5.00204 11.3638 4.89153 11.1668 4.80984C10.9073 4.70413 10.6238 4.66089 10.3403 4.6753C10.0664 4.69452 9.79734 4.7714 9.55709 4.89633C9.31204 5.02126 9.09582 5.19904 8.92284 5.41046C8.74505 5.63149 8.61051 5.89096 8.54325 6.16484C8.47598 6.42912 8.48559 6.69339 8.52402 6.96247C8.52883 7.00571 8.52402 7.01532 8.48559 7.00571C6.9576 6.77988 5.69389 6.23211 4.66563 5.0597C4.62239 5.00684 4.59836 5.00684 4.55992 5.0597C4.10825 5.7324 4.32928 6.81832 4.89146 7.34687C4.96834 7.41894 5.04522 7.49102 5.12691 7.55348C5.09808 7.55829 4.72329 7.51985 4.39175 7.34687C4.3485 7.31804 4.32448 7.33245 4.31967 7.38531C4.31967 7.45738 4.31967 7.52465 4.33409 7.60634C4.42058 8.28864 4.89146 8.9229 5.54014 9.16795C5.61702 9.20159 5.7035 9.23042 5.78519 9.24483C5.63624 9.27847 5.48728 9.30249 5.06444 9.26886C5.01159 9.25925 4.99237 9.28327 5.01159 9.33613C5.32872 10.201 6.01583 10.4605 6.52996 10.6094C6.59723 10.6191 6.6693 10.6191 6.73657 10.6383C6.73657 10.6431 6.72696 10.6431 6.72216 10.6527C6.55399 10.9122 5.95817 11.1044 5.68428 11.2005C5.18457 11.3734 4.6368 11.4551 4.10825 11.4023C4.02176 11.3879 4.00735 11.3927 3.98332 11.4023C3.9593 11.4167 3.98332 11.4359 4.00735 11.4599C4.11306 11.532 4.22357 11.5945 4.33409 11.6521C4.67044 11.8299 5.0212 11.9741 5.38638 12.075C7.27954 12.5987 9.41295 12.2143 10.8304 10.8016C11.9452 9.69169 12.3392 8.16371 12.3392 6.63093C12.3392 6.57327 12.4112 6.53963 12.4497 6.506C12.738 6.28977 12.9734 6.0255 13.1897 5.7372C13.2377 5.66993 13.2377 5.61227 13.2377 5.58825V5.57864C13.2377 5.55461 13.2377 5.55942 13.1993 5.57864V5.58825Z" fill="#272727"/>
</svg>
